<svg width="40" height="39" viewBox="0 0 40 39" fill="none" xmlns="http://www.w3.org/2000/svg">
<g clip-path="url(#clip0_747_752)">
<g clip-path="url(#clip1_747_752)">
<path fill-rule="evenodd" clip-rule="evenodd" d="M29.2172 6.66713H34.6868C35.1703 6.66713 35.6341 6.85921 35.976 7.20113C36.3179 7.54304 36.5099 8.00677 36.5099 8.49031V15.7831C36.5099 17.7172 35.7416 19.5721 34.374 20.9399C33.0063 22.3075 31.1514 23.0758 29.2172 23.0758H28.962C28.5588 24.6373 27.6494 26.0211 26.376 27.0108C25.1027 28.0005 23.5372 28.5401 21.9245 28.5453V28.5457H21.9255V32.1921H26.4835C26.7253 32.1921 26.9571 32.2881 27.128 32.4592C27.299 32.6301 27.395 32.862 27.395 33.1037V34.9269C27.395 35.1687 27.299 35.4005 27.128 35.5715C26.9571 35.7424 26.7253 35.8385 26.4835 35.8385H13.7211C13.4794 35.8385 13.2475 35.7424 13.0765 35.5715C12.9056 35.4005 12.8096 35.1687 12.8096 34.9269V33.1037C12.8096 32.862 12.9056 32.6301 13.0765 32.4592C13.2475 32.2881 13.4794 32.1921 13.7211 32.1921H18.2792V32.1917H18.2781V28.5453C16.6654 28.5401 15.0999 28.0005 13.8265 27.0108C12.5532 26.0211 11.6438 24.6373 11.2406 23.0758H10.9854C9.05122 23.0758 7.19628 22.3075 5.82862 20.9399C4.46096 19.5721 3.69263 17.7172 3.69263 15.7831V8.49031C3.69263 8.00677 3.88471 7.54304 4.22662 7.20113C4.56854 6.85921 5.03228 6.66713 5.51581 6.66713H10.9854V4.84394C10.9854 4.3604 11.1774 3.89666 11.5193 3.55475C11.8613 3.21283 12.325 3.02075 12.8086 3.02075H27.3941C27.8776 3.02075 28.3414 3.21283 28.6832 3.55475C29.0251 3.89666 29.2172 4.3604 29.2172 4.84394V6.66713ZM8.407 18.3614C9.09083 19.0453 10.0183 19.4295 10.9854 19.4295V10.3135H7.339V15.7831C7.339 16.7502 7.72317 17.6777 8.407 18.3614ZM31.7956 18.3614C32.4794 17.6777 32.8636 16.7502 32.8636 15.7831V10.3135H29.2172V19.4295C30.1843 19.4295 31.1118 19.0453 31.7956 18.3614Z" fill="#12071C"/>
</g>
</g>
<defs>
<clipPath id="clip0_747_752">
<rect width="38.6094" height="38.6094" fill="white" transform="translate(0.796875 0.125)"/>
</clipPath>
<clipPath id="clip1_747_752">
<rect width="38.6094" height="38.6094" fill="white" transform="translate(0.796875 0.125)"/>
</clipPath>
</defs>
</svg>
