<svg width="40" height="39" viewBox="0 0 40 39" fill="none" xmlns="http://www.w3.org/2000/svg">
<g clip-path="url(#clip0_747_759)">
<g clip-path="url(#clip1_747_759)">
<g clip-path="url(#clip2_747_759)">
<path fill-rule="evenodd" clip-rule="evenodd" d="M19.8829 3.02075C10.8205 3.02075 3.47388 10.3673 3.47388 19.4297C3.47388 28.4921 10.8205 35.8387 19.8829 35.8387C28.9453 35.8387 36.2919 28.4921 36.2919 19.4297C36.2919 10.3673 28.9453 3.02075 19.8829 3.02075ZM32.4996 17.6065H27.8139C27.7124 14.3198 26.9821 11.083 25.6625 8.07103C29.3541 9.95143 31.9033 13.5067 32.4996 17.6065ZM19.8826 32.1924H20.703C22.3622 31.1167 24.2766 27.1238 24.6048 21.2531H15.1605C15.4158 27.1603 17.4031 31.1531 19.0621 32.1924H19.8826ZM15.2334 17.6063C15.5616 11.7356 17.476 7.74271 19.1351 6.66701H19.8827H20.7031C22.3623 7.70624 24.3496 11.6991 24.6048 17.6063H15.2334ZM11.9521 17.6065C12.0538 14.3198 12.7841 11.083 14.1035 8.07103C10.412 9.95143 7.86274 13.5067 7.26648 17.6065H11.9521ZM7.26648 21.253H11.9521C12.0538 24.5397 12.7841 27.7765 14.1035 30.7884C10.412 28.9081 7.86274 25.3528 7.26648 21.253ZM27.8139 21.253C27.7124 24.5397 26.9821 27.7765 25.6625 30.7884C29.3541 28.9081 31.9033 25.3528 32.4996 21.253H27.8139Z" fill="#12071C"/>
</g>
</g>
</g>
<defs>
<clipPath id="clip0_747_759">
<rect width="38.6094" height="38.6094" fill="white" transform="translate(0.578125 0.125)"/>
</clipPath>
<clipPath id="clip1_747_759">
<rect width="38.6094" height="38.6094" fill="white" transform="translate(0.578125 0.125)"/>
</clipPath>
<clipPath id="clip2_747_759">
<rect width="38.6094" height="38.6094" fill="white" transform="translate(0.578125 0.125)"/>
</clipPath>
</defs>
</svg>
