<svg width="40" height="39" viewBox="0 0 40 39" fill="none" xmlns="http://www.w3.org/2000/svg">
<g clip-path="url(#clip0_892_1905)">
<g clip-path="url(#clip1_892_1905)">
<path fill-rule="evenodd" clip-rule="evenodd" d="M19.8836 3.02075C10.8212 3.02075 3.47461 10.3673 3.47461 19.4297C3.47461 28.4921 10.8212 35.8387 19.8836 35.8387C28.946 35.8387 36.2926 28.4921 36.2926 19.4297C36.2926 10.3673 28.946 3.02075 19.8836 3.02075ZM32.5003 17.6065H27.8147C27.7131 14.3198 26.9828 11.083 25.6632 8.07103C29.3549 9.95143 31.9041 13.5067 32.5003 17.6065ZM19.8833 32.1924H20.7038C22.3629 31.1167 24.2774 27.1238 24.6055 21.2531H15.1612C15.4165 27.1603 17.4038 31.1531 19.0629 32.1924H19.8833ZM15.2342 17.6063C15.5623 11.7356 17.4767 7.74271 19.1358 6.66701H19.8834H20.7039C22.363 7.70624 24.3503 11.6991 24.6055 17.6063H15.2342ZM11.9528 17.6065C12.0545 14.3198 12.7848 11.083 14.1043 8.07103C10.4127 9.95143 7.86348 13.5067 7.26721 17.6065H11.9528ZM7.26721 21.253H11.9528C12.0545 24.5397 12.7848 27.7765 14.1043 30.7884C10.4127 28.9081 7.86348 25.3528 7.26721 21.253ZM27.8147 21.253C27.7131 24.5397 26.9828 27.7765 25.6632 30.7884C29.3549 28.9081 31.9041 25.3528 32.5003 21.253H27.8147Z" fill="#C7ACFA"/>
</g>
</g>
<defs>
<clipPath id="clip0_892_1905">
<rect width="38.6094" height="38.6094" fill="white" transform="translate(0.578125 0.125)"/>
</clipPath>
<clipPath id="clip1_892_1905">
<rect width="38.6094" height="38.6094" fill="white" transform="translate(0.578125 0.125)"/>
</clipPath>
</defs>
</svg>
