<svg width="40" height="40" viewBox="0 0 40 40" fill="none" xmlns="http://www.w3.org/2000/svg">
<g clip-path="url(#clip0_747_734)">
<g clip-path="url(#clip1_747_734)">
<g clip-path="url(#clip2_747_734)">
<path fill-rule="evenodd" clip-rule="evenodd" d="M36.1888 10.1215C36.1888 8.34456 34.7483 6.90405 32.9714 6.90405H7.23174C5.45479 6.90405 4.01428 8.34456 4.01428 10.1215V29.4262C4.01428 31.2032 5.45479 32.6437 7.23174 32.6437H32.9714C34.7483 32.6437 36.1888 31.2032 36.1888 29.4262V10.1215ZM16.8841 27.0131C16.8841 27.4574 16.524 27.8175 16.0798 27.8175H11.2536C10.8093 27.8175 10.4492 27.4574 10.4492 27.0131V25.4044C10.4492 24.9601 10.8093 24.6 11.2536 24.6H16.0798C16.524 24.6 16.8841 24.9601 16.8841 25.4044V27.0131ZM32.167 19.7738C32.6113 19.7738 32.9714 19.4137 32.9714 18.9695V15.7521C32.9714 15.3078 32.6113 14.9477 32.167 14.9477H8.0361C7.59186 14.9477 7.23174 15.3078 7.23174 15.7521V18.9695C7.23174 19.4137 7.59186 19.7738 8.0361 19.7738H32.167Z" fill="#C7ACFA"/>
</g>
</g>
</g>
<defs>
<clipPath id="clip0_747_734">
<rect width="38.6094" height="38.6094" fill="white" transform="translate(0.796875 0.46875)"/>
</clipPath>
<clipPath id="clip1_747_734">
<rect width="38.6094" height="38.6094" fill="white" transform="translate(0.796875 0.46875)"/>
</clipPath>
<clipPath id="clip2_747_734">
<rect width="38.6094" height="38.6094" fill="white" transform="translate(0.796875 0.46875)"/>
</clipPath>
</defs>
</svg>
