<svg width="201" height="59" viewBox="0 0 201 59" fill="none" xmlns="http://www.w3.org/2000/svg">
<path d="M196.263 1H4.23183C2.41943 1 0.950195 2.46751 0.950195 4.27778V55.0833C0.950195 56.8936 2.41943 58.3611 4.23183 58.3611H196.263C198.076 58.3611 199.545 56.8936 199.545 55.0833V4.27778C199.545 2.46751 198.076 1 196.263 1Z" stroke="#F3EDFE"/>
<path d="M47.5533 28.3016C47.5153 23.7641 51.2743 21.5525 51.4493 21.4536C49.3187 18.3527 46.0163 17.9271 44.8521 17.8967C42.0747 17.6079 39.3886 19.5536 37.9733 19.5536C36.5352 19.5536 34.3589 17.9271 32.0077 17.9727C28.9868 18.0183 26.1637 19.7664 24.6191 22.4721C21.4232 27.9976 23.8049 36.1146 26.8714 40.5836C28.4008 42.7725 30.1891 45.2123 32.5327 45.1286C34.8231 45.0374 35.6829 43.6693 38.4451 43.6693C41.1844 43.6693 41.991 45.1286 44.3803 45.0754C46.8381 45.0374 48.3904 42.8789 49.8666 40.6749C51.6395 38.1668 52.3472 35.6966 52.3777 35.575C52.3168 35.537 47.599 33.7358 47.5533 28.3016ZM43.0411 14.9554C44.2737 13.4125 45.1184 11.3224 44.8825 9.19434C43.102 9.2703 40.8648 10.4256 39.5864 11.9305C38.4527 13.2605 37.433 15.4342 37.6994 17.4787C39.693 17.6231 41.7551 16.4678 43.0411 14.9554Z" fill="#F3EDFE"/>
<path d="M80.7446 44.8021H77.5411L75.7834 39.2994H69.6883L68.0143 44.8021H64.8945L70.9363 26.0597H74.6648L80.7446 44.8021ZM75.2583 36.9889L73.668 32.0944C73.5006 31.5927 73.181 30.4147 72.7244 28.5602H72.6712C72.4886 29.3583 72.1842 30.5363 71.7809 32.0944L70.221 36.9889H75.2583ZM96.2527 37.8782C96.2527 40.1735 95.6283 41.99 94.3805 43.3277C93.2615 44.5133 91.8692 45.1061 90.2104 45.1061C88.4145 45.1061 87.1289 44.4677 86.3454 43.1908V50.2819H83.3394V35.7273C83.3394 34.2833 83.3017 32.8012 83.2254 31.2887H85.8729L86.041 33.432H86.0935C87.0985 31.8208 88.6204 31.0075 90.6591 31.0075C92.2573 31.0075 93.5888 31.6384 94.6545 32.9C95.7194 34.1617 96.2527 35.8261 96.2527 37.8782ZM93.1934 37.9922C93.1934 36.6774 92.8964 35.5905 92.3032 34.7393C91.6559 33.85 90.7814 33.4092 89.6853 33.4092C88.9478 33.4092 88.2701 33.66 87.6687 34.1464C87.0682 34.6405 86.6719 35.2865 86.4898 36.0769C86.4061 36.3734 86.3602 36.6849 86.3528 36.9889V39.2462C86.3528 40.2267 86.6572 41.0551 87.2585 41.7392C87.8591 42.4156 88.6434 42.7576 89.609 42.7576C90.7428 42.7576 91.6256 42.3168 92.2573 41.4504C92.8734 40.5687 93.1934 39.421 93.1934 37.9922ZM111.821 37.8782C111.821 40.1735 111.197 41.99 109.949 43.3277C108.83 44.5133 107.438 45.1061 105.779 45.1061C103.983 45.1061 102.697 44.4677 101.913 43.1908V50.2819H98.9075V35.7273C98.9075 34.2833 98.8698 32.8012 98.7935 31.2887H101.442L101.609 33.432H101.662C102.667 31.8208 104.188 31.0075 106.228 31.0075C107.826 31.0075 109.158 31.6384 110.223 32.9C111.281 34.1617 111.821 35.8261 111.821 37.8782ZM108.754 37.9922C108.754 36.6774 108.458 35.5905 107.864 34.7393C107.217 33.85 106.342 33.4092 105.247 33.4092C104.508 33.4092 103.831 33.66 103.222 34.1464C102.621 34.6405 102.225 35.2865 102.043 36.0769C101.951 36.4493 101.899 36.7533 101.899 36.9889V39.2462C101.899 40.2267 102.203 41.0551 102.804 41.7392C103.405 42.4156 104.188 42.7576 105.163 42.7576C106.296 42.7576 107.179 42.3168 107.811 41.4504C108.442 40.5687 108.754 39.421 108.754 37.9922ZM129.223 39.5503C129.223 41.1464 128.668 42.446 127.557 43.4416C126.34 44.5361 124.627 45.0833 122.443 45.0833C120.427 45.0833 118.807 44.6957 117.581 43.9128L118.273 41.4124C119.59 42.1952 121.043 42.5828 122.618 42.5828C123.752 42.5828 124.635 42.3244 125.266 41.8151C125.898 41.3059 126.217 40.6219 126.217 39.7707C126.217 39.0107 125.951 38.3722 125.434 37.8478C124.916 37.331 124.056 36.8445 122.847 36.4038C119.56 35.1801 117.916 33.3864 117.916 31.038C117.916 29.5026 118.494 28.241 119.658 27.2606C120.815 26.2801 122.352 25.7861 124.27 25.7861C125.974 25.7861 127.397 26.0825 128.531 26.6753L127.778 29.1227C126.712 28.545 125.517 28.2638 124.17 28.2638C123.113 28.2638 122.276 28.5222 121.682 29.039C121.18 29.5026 120.929 30.0651 120.929 30.7339C120.929 31.4711 121.219 32.0868 121.797 32.5656C122.299 33.0064 123.204 33.4928 124.521 34.0097C126.134 34.6633 127.321 35.4157 128.082 36.2898C128.843 37.1638 129.223 38.2506 129.223 39.5503ZM139.191 33.546H135.873V40.1051C135.873 41.7772 136.459 42.6056 137.632 42.6056C138.171 42.6056 138.613 42.56 138.97 42.4688L139.054 44.7489C138.461 44.9693 137.685 45.0833 136.718 45.0833C135.531 45.0833 134.603 44.7185 133.933 43.9965C133.264 43.2744 132.929 42.0583 132.929 40.3559V33.546H130.958V31.2963H132.929V28.8187L135.882 27.9294V31.2963H139.199L139.191 33.546ZM154.113 37.939C154.113 40.0139 153.52 41.724 152.332 43.054C151.092 44.4296 149.441 45.1137 147.379 45.1137C145.393 45.1137 143.81 44.4525 142.63 43.1452C141.451 41.8304 140.866 40.1659 140.866 38.167C140.866 36.0693 141.474 34.3592 142.692 33.0216C143.909 31.6839 145.545 31.0227 147.607 31.0227C149.593 31.0227 151.191 31.6839 152.393 32.9988C153.534 34.268 154.113 35.9173 154.113 37.939ZM150.994 38.0074C150.994 36.7686 150.727 35.7045 150.186 34.8229C149.555 33.7512 148.657 33.2116 147.486 33.2116C146.283 33.2116 145.355 33.7512 144.731 34.8229C144.191 35.7121 143.924 36.7914 143.924 38.0682C143.924 39.307 144.191 40.3711 144.731 41.2604C145.378 42.3319 146.291 42.8716 147.463 42.8716C148.612 42.8716 149.509 42.3244 150.164 41.2376C150.72 40.3179 150.994 39.2462 150.994 38.0074ZM163.891 33.9336C163.579 33.8804 163.259 33.85 162.94 33.85C161.882 33.85 161.068 34.2453 160.49 35.0433C159.988 35.7501 159.737 36.6393 159.737 37.711V44.8021H156.731V35.5449C156.731 34.1237 156.708 32.7099 156.647 31.2887H159.265L159.371 33.8728H159.454C159.774 32.9836 160.269 32.2692 160.962 31.7296C161.585 31.2583 162.354 31.0075 163.137 31.0075C163.419 31.0075 163.662 31.0303 163.891 31.0607V33.9336ZM177.337 37.407C177.344 37.863 177.306 38.319 177.23 38.7674H168.206C168.236 40.1051 168.677 41.1235 169.514 41.8304C170.275 42.4612 171.257 42.7728 172.467 42.7728C173.806 42.7728 175.023 42.56 176.119 42.1344L176.591 44.2168C175.312 44.7717 173.798 45.0529 172.056 45.0529C169.956 45.0529 168.312 44.4373 167.11 43.206C165.915 41.9748 165.314 40.3179 165.314 38.243C165.314 36.2061 165.869 34.5112 166.988 33.1584C168.152 31.7143 169.735 30.9923 171.721 30.9923C173.669 30.9923 175.145 31.7143 176.15 33.1584C176.933 34.3061 177.337 35.7197 177.337 37.407ZM174.468 36.6317C174.491 35.7425 174.293 34.9749 173.882 34.3212C173.364 33.4852 172.558 33.0672 171.485 33.0672C170.504 33.0672 169.705 33.4776 169.088 34.2908C168.586 34.9369 168.289 35.7197 168.198 36.6242L174.468 36.6317Z" fill="#F3EDFE"/>
<path d="M68.8212 19.4396C67.9842 19.4396 67.2614 19.4016 66.6602 19.3332V10.266C67.5048 10.1368 68.3571 10.0684 69.2093 10.076C72.6563 10.076 74.2466 11.7708 74.2466 14.5297C74.239 17.7143 72.3672 19.4396 68.8212 19.4396ZM69.331 11.2389C68.8669 11.2389 68.4712 11.2693 68.144 11.3376V18.2236C68.319 18.254 68.6615 18.2615 69.1408 18.2615C71.4007 18.2615 72.6867 16.9771 72.6867 14.5754C72.6791 12.4245 71.5149 11.2389 69.331 11.2389ZM79.1926 19.508C77.2523 19.508 75.9891 18.0563 75.9891 16.0878C75.9891 14.0357 77.2751 12.5765 79.2992 12.5765C81.2167 12.5765 82.5029 13.9597 82.5029 15.9814C82.5029 18.0563 81.1787 19.508 79.1926 19.508ZM79.2459 13.6557C78.1806 13.6557 77.4958 14.6514 77.4958 16.0498C77.4958 17.4179 78.1958 18.4135 79.2307 18.4135C80.2732 18.4135 80.9656 17.3495 80.9656 16.0194C80.9732 14.6666 80.2884 13.6557 79.2459 13.6557ZM93.5817 12.7133L91.5044 19.356H90.1499L89.2901 16.4754C89.0768 15.7686 88.8947 15.0542 88.7577 14.3322H88.7273C88.6207 15.0542 88.4148 15.7838 88.1941 16.4754L87.2809 19.356H85.9117L83.9558 12.7133H85.4777L86.2308 15.8674C86.4064 16.6198 86.5582 17.3267 86.6804 18.0031H86.7108C86.8174 17.4407 86.9996 16.7491 87.2588 15.8827L88.2023 12.7133H89.4042L90.3099 15.8142C90.5306 16.5666 90.7053 17.3039 90.8423 18.0031H90.8801C90.9793 17.3191 91.1237 16.597 91.3297 15.8142L92.1361 12.7133H93.5817ZM101.244 19.356H99.7684V15.5406C99.7684 14.3626 99.3188 13.7773 98.4287 13.7773C97.5541 13.7773 96.9527 14.5298 96.9527 15.4038V19.356H95.4768V14.6133C95.4768 14.0282 95.4612 13.3974 95.4235 12.7133H96.7247L96.7928 13.7393H96.8305C97.2268 13.0325 98.0332 12.5765 98.939 12.5765C100.331 12.5765 101.252 13.6406 101.252 15.381L101.244 19.356ZM105.315 19.356H103.839V9.66553H105.315V19.356ZM110.71 19.508C108.77 19.508 107.506 18.0563 107.506 16.0878C107.506 14.0357 108.793 12.5765 110.817 12.5765C112.734 12.5765 114.021 13.9597 114.021 15.9814C114.021 18.0563 112.689 19.508 110.71 19.508ZM110.764 13.6557C109.698 13.6557 109.014 14.6514 109.014 16.0498C109.014 17.4179 109.713 18.4135 110.748 18.4135C111.791 18.4135 112.483 17.3495 112.483 16.0194C112.483 14.6666 111.806 13.6557 110.764 13.6557ZM119.849 19.356L119.742 18.5883H119.704C119.256 19.2039 118.593 19.5003 117.757 19.5003C116.561 19.5003 115.717 18.6643 115.717 17.5471C115.717 15.9054 117.14 15.0618 119.605 15.0618V14.9402C119.605 14.0661 119.142 13.6253 118.228 13.6253C117.574 13.6253 116.995 13.7926 116.493 14.1194L116.196 13.1465C116.813 12.7665 117.581 12.5689 118.479 12.5689C120.214 12.5689 121.097 13.4809 121.097 15.3126V17.7599C121.097 18.4287 121.127 18.9531 121.196 19.3483L119.849 19.356ZM119.644 16.0498C117.999 16.0498 117.178 16.445 117.178 17.3875C117.178 18.0867 117.604 18.4287 118.19 18.4287C118.944 18.4287 119.644 17.8587 119.644 17.0758V16.0498ZM128.257 19.356L128.189 18.2919H128.15C127.725 19.0976 127.009 19.508 126.012 19.508C124.407 19.508 123.22 18.102 123.22 16.1182C123.22 14.0433 124.453 12.5765 126.134 12.5765C127.025 12.5765 127.656 12.8729 128.006 13.4809H128.036V9.66553H129.512V17.5623C129.512 18.2007 129.528 18.8087 129.566 19.3483H128.257V19.356ZM128.044 15.4494C128.044 14.5221 127.428 13.7242 126.484 13.7242C125.388 13.7242 124.719 14.697 124.719 16.0574C124.719 17.3951 125.411 18.3148 126.454 18.3148C127.382 18.3148 128.044 17.5091 128.044 16.5515V15.4494ZM138.903 19.508C136.962 19.508 135.699 18.0563 135.699 16.0878C135.699 14.0357 136.985 12.5765 139.009 12.5765C140.927 12.5765 142.212 13.9597 142.212 15.9814C142.212 18.0563 140.889 19.508 138.903 19.508ZM138.956 13.6557C137.89 13.6557 137.205 14.6514 137.205 16.0498C137.205 17.4179 137.906 18.4135 138.94 18.4135C139.983 18.4135 140.676 17.3495 140.676 16.0194C140.683 14.6666 139.998 13.6557 138.956 13.6557ZM150.164 19.356H148.688V15.5406C148.688 14.3626 148.239 13.7773 147.349 13.7773C146.473 13.7773 145.873 14.5298 145.873 15.4038V19.356H144.396V14.6133C144.396 14.0282 144.381 13.3974 144.343 12.7133H145.644L145.713 13.7393H145.751C146.147 13.0325 146.953 12.5765 147.858 12.5765C149.251 12.5765 150.172 13.6406 150.172 15.381V19.356H150.164ZM160.102 13.8229H158.474V17.0454C158.474 17.8663 158.755 18.2767 159.333 18.2767C159.592 18.2767 159.812 18.2463 159.988 18.2083L160.026 19.3255C159.737 19.432 159.356 19.4928 158.877 19.4928C157.712 19.4928 157.012 18.8544 157.012 17.1671V13.8154H156.039V12.7057H157.012V11.4896L158.466 11.0488V12.7057H160.095L160.102 13.8229ZM167.932 19.356H166.455V15.571C166.455 14.3854 166.006 13.785 165.116 13.785C164.348 13.785 163.64 14.3018 163.64 15.3582V19.3636H162.164V9.66553H163.64V13.6557H163.671C164.135 12.9337 164.812 12.5765 165.672 12.5765C167.08 12.5765 167.939 13.6709 167.939 15.4038L167.932 19.356ZM175.944 16.3919H171.508C171.539 17.6459 172.368 18.3603 173.601 18.3603C174.255 18.3603 174.864 18.254 175.396 18.0487L175.625 19.0747C174.993 19.3483 174.255 19.4852 173.395 19.4852C171.318 19.4852 170.086 18.1703 170.086 16.141C170.086 14.1041 171.348 12.5765 173.228 12.5765C174.924 12.5765 175.99 13.8305 175.99 15.7306C176.005 15.9435 175.99 16.1714 175.944 16.3919ZM174.59 15.3354C174.59 14.3093 174.073 13.5873 173.129 13.5873C172.277 13.5873 171.607 14.3246 171.516 15.3354H174.59Z" fill="#F3EDFE"/>
</svg>
