<svg width="204" height="59" viewBox="0 0 204 59" fill="none" xmlns="http://www.w3.org/2000/svg">
<path d="M7.55371 58.3808H196.396C200.21 58.3808 203.324 55.3303 203.324 51.625V7.375C203.324 3.6697 200.21 0.619207 196.396 0.619207H7.55371C3.73981 0.619207 0.626495 3.6697 0.626495 7.375V51.625C0.626495 55.3303 3.73981 58.3808 7.55371 58.3808Z" stroke="#F3EDFE"/>
<mask id="path-2-inside-1_7_2964" fill="white">
<path d="M196.396 1.18184C199.894 1.18184 202.74 3.96037 202.74 7.375V51.625C202.74 55.0396 199.894 57.8182 196.396 57.8182H7.55371C4.05634 57.8182 1.21048 55.0396 1.21048 51.625V7.375C1.21048 3.96037 4.05634 1.18184 7.55371 1.18184H196.396ZM196.396 7.56029e-07H7.55371C3.40106 7.56029e-07 0 3.32059 0 7.375V51.625C0 55.6794 3.40106 59 7.55371 59H196.396C200.549 59 203.95 55.6794 203.95 51.625V7.375C203.95 3.32059 200.549 7.56029e-07 196.396 7.56029e-07Z"/>
</mask>
<path d="M196.396 1.18184C199.894 1.18184 202.74 3.96037 202.74 7.375V51.625C202.74 55.0396 199.894 57.8182 196.396 57.8182H7.55371C4.05634 57.8182 1.21048 55.0396 1.21048 51.625V7.375C1.21048 3.96037 4.05634 1.18184 7.55371 1.18184H196.396ZM196.396 7.56029e-07H7.55371C3.40106 7.56029e-07 0 3.32059 0 7.375V51.625C0 55.6794 3.40106 59 7.55371 59H196.396C200.549 59 203.95 55.6794 203.95 51.625V7.375C203.95 3.32059 200.549 7.56029e-07 196.396 7.56029e-07Z" fill="#A6A6A6"/>
<path d="M196.396 -0.0565711C200.571 -0.0565711 203.993 3.26218 203.993 7.375H201.487C201.487 4.65858 199.216 2.42025 196.396 2.42025V-0.0565711ZM203.993 7.375V51.625H201.487V7.375H203.993ZM203.993 51.625C203.993 55.7378 200.571 59.0566 196.396 59.0566V56.5797C199.216 56.5797 201.487 54.3414 201.487 51.625H203.993ZM196.396 59.0566H7.55371V56.5797H196.396V59.0566ZM7.55371 59.0566C3.37883 59.0566 -0.0425094 55.7378 -0.0425094 51.625H2.46347C2.46347 54.3414 4.73384 56.5797 7.55371 56.5797V59.0566ZM-0.0425094 51.625V7.375H2.46347V51.625H-0.0425094ZM-0.0425094 7.375C-0.0425094 3.26218 3.37883 -0.0565711 7.55371 -0.0565711V2.42025C4.73385 2.42025 2.46347 4.65858 2.46347 7.375H-0.0425094ZM7.55371 -0.0565711H196.396V2.42025H7.55371V-0.0565711ZM196.396 1.23841H7.55371V-1.23841H196.396V1.23841ZM7.55371 1.23841C4.07856 1.23841 1.25299 4.0188 1.25299 7.375H-1.25299C-1.25299 2.62239 2.72355 -1.23841 7.55371 -1.23841V1.23841ZM1.25299 7.375V51.625H-1.25299V7.375H1.25299ZM1.25299 51.625C1.25299 54.9812 4.07856 57.7616 7.55371 57.7616V60.2384C2.72355 60.2384 -1.25299 56.3776 -1.25299 51.625H1.25299ZM7.55371 57.7616H196.396V60.2384H7.55371V57.7616ZM196.396 57.7616C199.871 57.7616 202.697 54.9812 202.697 51.625H205.203C205.203 56.3776 201.226 60.2384 196.396 60.2384V57.7616ZM202.697 51.625V7.375H205.203V51.625H202.697ZM202.697 7.375C202.697 4.0188 199.871 1.23841 196.396 1.23841V-1.23841C201.226 -1.23841 205.203 2.62239 205.203 7.375H202.697Z" fill="#F3EDFE" mask="url(#path-2-inside-1_7_2964)"/>
<path d="M71.6355 15.1096C71.6355 16.3413 71.2579 17.3277 70.5138 18.0633C69.6584 18.9354 68.5442 19.3742 67.1789 19.3742C65.874 19.3742 64.7598 18.928 63.8458 18.0486C62.9299 17.1562 62.4729 16.061 62.4729 14.7501C62.4729 13.4392 62.9299 12.344 63.8458 11.459C64.7598 10.5722 65.874 10.126 67.1789 10.126C67.8285 10.126 68.4479 10.2569 69.039 10.5003C69.6281 10.7455 70.1078 11.0774 70.4553 11.4867L69.6659 12.2647C69.0597 11.5659 68.2345 11.2212 67.1789 11.2212C66.2271 11.2212 65.4019 11.5457 64.7012 12.2002C64.0082 12.8566 63.6607 13.7065 63.6607 14.7501C63.6607 15.7937 64.0082 16.651 64.7012 17.3074C65.4019 17.9545 66.2271 18.2864 67.1789 18.2864C68.1892 18.2864 69.039 17.9545 69.7094 17.3C70.1512 16.8667 70.4024 16.2694 70.4685 15.506H67.1789V14.4404H71.5676C71.6204 14.6708 71.6355 14.8939 71.6355 15.1096Z" fill="white" stroke="#F3EDFE" stroke-width="0.16" stroke-miterlimit="10"/>
<path d="M78.5981 11.4146H74.4756V14.2171H78.1921V15.2828H74.4756V18.0853H78.5981V19.1712H73.3086V10.3286H78.5981V11.4146Z" fill="white" stroke="#F3EDFE" stroke-width="0.16" stroke-miterlimit="10"/>
<path d="M83.5118 19.1712H82.3448V11.4146H79.8162V10.3286H86.0423V11.4146H83.5118V19.1712Z" fill="white" stroke="#F3EDFE" stroke-width="0.16" stroke-miterlimit="10"/>
<path d="M90.5481 19.1712V10.3286H91.7133V19.1712H90.5481Z" fill="white" stroke="#F3EDFE" stroke-width="0.16" stroke-miterlimit="10"/>
<path d="M96.878 19.1712H95.7204V11.4146H93.1824V10.3286H99.4161V11.4146H96.878V19.1712Z" fill="white" stroke="#F3EDFE" stroke-width="0.16" stroke-miterlimit="10"/>
<path d="M111.204 18.0338C110.311 18.928 109.204 19.3742 107.884 19.3742C106.556 19.3742 105.45 18.928 104.557 18.0338C103.665 17.1414 103.221 16.0463 103.221 14.7501C103.221 13.4539 103.665 12.3588 104.557 11.4664C105.45 10.5722 106.556 10.126 107.884 10.126C109.196 10.126 110.303 10.5722 111.196 11.4738C112.095 12.3735 112.539 13.4613 112.539 14.7501C112.539 16.0463 112.095 17.1414 111.204 18.0338ZM105.42 17.2926C106.092 17.9545 106.91 18.2864 107.884 18.2864C108.851 18.2864 109.676 17.9545 110.341 17.2926C111.011 16.6307 111.351 15.7808 111.351 14.7501C111.351 13.7194 111.011 12.8695 110.341 12.2076C109.676 11.5457 108.851 11.2138 107.884 11.2138C106.91 11.2138 106.092 11.5457 105.42 12.2076C104.749 12.8695 104.409 13.7194 104.409 14.7501C104.409 15.7808 104.749 16.6307 105.42 17.2926Z" fill="white" stroke="#F3EDFE" stroke-width="0.16" stroke-miterlimit="10"/>
<path d="M114.176 19.1712V10.3286H115.592L119.996 17.2058H120.047L119.996 15.5059V10.3286H121.161V19.1712H119.945L115.334 11.9548H115.283L115.334 13.6621V19.1712H114.176Z" fill="white" stroke="#F3EDFE" stroke-width="0.16" stroke-miterlimit="10"/>
<mask id="path-11-inside-2_7_2964" fill="white">
<path d="M102.934 32.085C99.3859 32.085 96.4872 34.7216 96.4872 38.3593C96.4872 41.9675 99.3859 44.6317 102.934 44.6317C106.49 44.6317 109.389 41.9675 109.389 38.3593C109.389 34.7216 106.49 32.085 102.934 32.085ZM102.934 42.1611C100.987 42.1611 99.3122 40.5921 99.3122 38.3593C99.3122 36.097 100.987 34.5557 102.934 34.5557C104.881 34.5557 106.564 36.097 106.564 38.3593C106.564 40.5921 104.881 42.1611 102.934 42.1611ZM88.8674 32.085C85.3115 32.085 82.4203 34.7216 82.4203 38.3593C82.4203 41.9675 85.3115 44.6317 88.8674 44.6317C92.4214 44.6317 95.3144 41.9675 95.3144 38.3593C95.3144 34.7216 92.4214 32.085 88.8674 32.085ZM88.8674 42.1611C86.9185 42.1611 85.2378 40.5921 85.2378 38.3593C85.2378 36.097 86.9185 34.5557 88.8674 34.5557C90.8143 34.5557 92.4894 36.097 92.4894 38.3593C92.4894 40.5921 90.8143 42.1611 88.8674 42.1611ZM72.1284 34.0081V36.6741H78.6491C78.4584 38.1639 77.9485 39.2591 77.1667 40.0224C76.2149 40.9443 74.7325 41.9675 72.1284 41.9675C68.1155 41.9675 64.9731 38.8055 64.9731 34.8875C64.9731 30.9696 68.1155 27.8075 72.1284 27.8075C74.2982 27.8075 75.8769 28.6354 77.042 29.7084L78.9664 27.8297C77.3366 26.3104 75.1687 25.1433 72.1284 25.1433C66.6255 25.1433 62.0007 29.5148 62.0007 34.8875C62.0007 40.2602 66.6255 44.6317 72.1284 44.6317C75.1026 44.6317 77.3366 43.6804 79.0929 41.8956C80.8925 40.1385 81.4534 37.6679 81.4534 35.673C81.4534 35.0535 81.4005 34.4838 81.3061 34.0081H72.1284ZM140.576 36.0749C140.046 34.6718 138.408 32.085 135.073 32.085C131.769 32.085 129.017 34.6276 129.017 38.3593C129.017 41.8735 131.74 44.6317 135.391 44.6317C138.342 44.6317 140.046 42.8747 140.746 41.8514L138.556 40.4262C137.825 41.4697 136.83 42.1611 135.391 42.1611C133.961 42.1611 132.936 41.5213 132.278 40.2602L140.873 36.7884L140.576 36.0749ZM131.814 38.1639C131.74 35.7449 133.738 34.5059 135.17 34.5059C136.291 34.5059 137.243 35.0535 137.56 35.8371L131.814 38.1639ZM124.829 44.2501H127.654V25.8126H124.829V44.2501ZM120.202 33.4826H120.108C119.473 32.7488 118.263 32.085 116.729 32.085C113.511 32.085 110.569 34.8433 110.569 38.3796C110.569 41.8956 113.511 44.6317 116.729 44.6317C118.263 44.6317 119.473 43.9625 120.108 43.2065H120.202V44.1063C120.202 46.505 118.89 47.7938 116.773 47.7938C115.047 47.7938 113.976 46.5769 113.534 45.5536L111.077 46.5548C111.785 48.2178 113.661 50.2644 116.773 50.2644C120.085 50.2644 122.88 48.3617 122.88 43.732V32.4667H120.202V33.4826ZM116.971 42.1611C115.024 42.1611 113.394 40.57 113.394 38.3796C113.394 36.1689 115.024 34.5557 116.971 34.5557C118.89 34.5557 120.402 36.1689 120.402 38.3796C120.402 40.57 118.89 42.1611 116.971 42.1611ZM153.803 25.8126H147.046V44.2501H149.864V37.2641H153.803C156.932 37.2641 160.001 35.0535 160.001 31.5374C160.001 28.0233 156.924 25.8126 153.803 25.8126ZM153.876 34.6995H149.864V28.3773H153.876C155.98 28.3773 157.181 30.0827 157.181 31.5374C157.181 32.9645 155.98 34.6995 153.876 34.6995ZM171.293 32.05C169.258 32.05 167.141 32.9276 166.27 34.8728L168.77 35.8961C169.309 34.8728 170.298 34.5409 171.344 34.5409C172.806 34.5409 174.288 35.3983 174.311 36.912V37.1056C173.801 36.8179 172.71 36.392 171.367 36.392C168.674 36.392 165.93 37.8394 165.93 40.5405C165.93 43.0111 168.136 44.6022 170.615 44.6022C172.511 44.6022 173.558 43.767 174.215 42.7954H174.311V44.2206H177.032V37.148C177.032 33.879 174.532 32.05 171.293 32.05ZM170.953 42.1538C170.032 42.1538 168.748 41.7076 168.748 40.5921C168.748 39.165 170.349 38.6174 171.735 38.6174C172.976 38.6174 173.558 38.8848 174.311 39.2369C174.09 40.9443 172.585 42.1538 170.953 42.1538ZM186.947 32.4538L183.708 40.4464H183.612L180.263 32.4538H177.225L182.256 43.6232L179.385 49.8385H182.329L190.081 32.4538H186.947ZM161.549 44.2501H164.374V25.8126H161.549V44.2501Z"/>
</mask>
<path d="M102.934 32.085C99.3859 32.085 96.4872 34.7216 96.4872 38.3593C96.4872 41.9675 99.3859 44.6317 102.934 44.6317C106.49 44.6317 109.389 41.9675 109.389 38.3593C109.389 34.7216 106.49 32.085 102.934 32.085ZM102.934 42.1611C100.987 42.1611 99.3122 40.5921 99.3122 38.3593C99.3122 36.097 100.987 34.5557 102.934 34.5557C104.881 34.5557 106.564 36.097 106.564 38.3593C106.564 40.5921 104.881 42.1611 102.934 42.1611ZM88.8674 32.085C85.3115 32.085 82.4203 34.7216 82.4203 38.3593C82.4203 41.9675 85.3115 44.6317 88.8674 44.6317C92.4214 44.6317 95.3144 41.9675 95.3144 38.3593C95.3144 34.7216 92.4214 32.085 88.8674 32.085ZM88.8674 42.1611C86.9185 42.1611 85.2378 40.5921 85.2378 38.3593C85.2378 36.097 86.9185 34.5557 88.8674 34.5557C90.8143 34.5557 92.4894 36.097 92.4894 38.3593C92.4894 40.5921 90.8143 42.1611 88.8674 42.1611ZM72.1284 34.0081V36.6741H78.6491C78.4584 38.1639 77.9485 39.2591 77.1667 40.0224C76.2149 40.9443 74.7325 41.9675 72.1284 41.9675C68.1155 41.9675 64.9731 38.8055 64.9731 34.8875C64.9731 30.9696 68.1155 27.8075 72.1284 27.8075C74.2982 27.8075 75.8769 28.6354 77.042 29.7084L78.9664 27.8297C77.3366 26.3104 75.1687 25.1433 72.1284 25.1433C66.6255 25.1433 62.0007 29.5148 62.0007 34.8875C62.0007 40.2602 66.6255 44.6317 72.1284 44.6317C75.1026 44.6317 77.3366 43.6804 79.0929 41.8956C80.8925 40.1385 81.4534 37.6679 81.4534 35.673C81.4534 35.0535 81.4005 34.4838 81.3061 34.0081H72.1284ZM140.576 36.0749C140.046 34.6718 138.408 32.085 135.073 32.085C131.769 32.085 129.017 34.6276 129.017 38.3593C129.017 41.8735 131.74 44.6317 135.391 44.6317C138.342 44.6317 140.046 42.8747 140.746 41.8514L138.556 40.4262C137.825 41.4697 136.83 42.1611 135.391 42.1611C133.961 42.1611 132.936 41.5213 132.278 40.2602L140.873 36.7884L140.576 36.0749ZM131.814 38.1639C131.74 35.7449 133.738 34.5059 135.17 34.5059C136.291 34.5059 137.243 35.0535 137.56 35.8371L131.814 38.1639ZM124.829 44.2501H127.654V25.8126H124.829V44.2501ZM120.202 33.4826H120.108C119.473 32.7488 118.263 32.085 116.729 32.085C113.511 32.085 110.569 34.8433 110.569 38.3796C110.569 41.8956 113.511 44.6317 116.729 44.6317C118.263 44.6317 119.473 43.9625 120.108 43.2065H120.202V44.1063C120.202 46.505 118.89 47.7938 116.773 47.7938C115.047 47.7938 113.976 46.5769 113.534 45.5536L111.077 46.5548C111.785 48.2178 113.661 50.2644 116.773 50.2644C120.085 50.2644 122.88 48.3617 122.88 43.732V32.4667H120.202V33.4826ZM116.971 42.1611C115.024 42.1611 113.394 40.57 113.394 38.3796C113.394 36.1689 115.024 34.5557 116.971 34.5557C118.89 34.5557 120.402 36.1689 120.402 38.3796C120.402 40.57 118.89 42.1611 116.971 42.1611ZM153.803 25.8126H147.046V44.2501H149.864V37.2641H153.803C156.932 37.2641 160.001 35.0535 160.001 31.5374C160.001 28.0233 156.924 25.8126 153.803 25.8126ZM153.876 34.6995H149.864V28.3773H153.876C155.98 28.3773 157.181 30.0827 157.181 31.5374C157.181 32.9645 155.98 34.6995 153.876 34.6995ZM171.293 32.05C169.258 32.05 167.141 32.9276 166.27 34.8728L168.77 35.8961C169.309 34.8728 170.298 34.5409 171.344 34.5409C172.806 34.5409 174.288 35.3983 174.311 36.912V37.1056C173.801 36.8179 172.71 36.392 171.367 36.392C168.674 36.392 165.93 37.8394 165.93 40.5405C165.93 43.0111 168.136 44.6022 170.615 44.6022C172.511 44.6022 173.558 43.767 174.215 42.7954H174.311V44.2206H177.032V37.148C177.032 33.879 174.532 32.05 171.293 32.05ZM170.953 42.1538C170.032 42.1538 168.748 41.7076 168.748 40.5921C168.748 39.165 170.349 38.6174 171.735 38.6174C172.976 38.6174 173.558 38.8848 174.311 39.2369C174.09 40.9443 172.585 42.1538 170.953 42.1538ZM186.947 32.4538L183.708 40.4464H183.612L180.263 32.4538H177.225L182.256 43.6232L179.385 49.8385H182.329L190.081 32.4538H186.947ZM161.549 44.2501H164.374V25.8126H161.549V44.2501Z" fill="white" stroke="#F3EDFE" stroke-width="2" mask="url(#path-11-inside-2_7_2964)"/>
<path d="M33.9253 29.5L15.9393 11.9466C15.788 12.2527 15.6905 12.6639 15.6905 13.1939V45.8135C15.6905 46.3406 15.787 46.7502 15.9369 47.0558L33.9253 29.5Z" fill="url(#paint0_linear_7_2964)" stroke="#F3EDFE"/>
<path d="M40.9406 23.9601L35.2663 29.5002L40.9362 35.0426L48.0611 31.0917C48.0612 31.0917 48.0612 31.0916 48.0613 31.0916C49.0037 30.5676 49.3238 29.9666 49.3238 29.5009C49.3238 29.0358 49.0043 28.4368 48.0626 27.9165L48.0613 27.9158L40.9406 23.9601Z" fill="url(#paint1_linear_7_2964)" stroke="#F3EDFE"/>
<mask id="path-14-inside-3_7_2964" fill="white">
<path d="M40.977 35.7301L34.596 29.5001L15.7646 47.8878C16.4653 48.6069 17.6078 48.6936 18.907 47.9745L40.977 35.7301Z"/>
</mask>
<path d="M40.977 35.7301L34.596 29.5001L15.7646 47.8878C16.4653 48.6069 17.6078 48.6936 18.907 47.9745L40.977 35.7301Z" fill="url(#paint2_linear_7_2964)"/>
<path d="M34.596 29.5001L33.7154 28.6191L34.596 27.7593L35.4766 28.6191L34.596 29.5001ZM15.7646 47.8878L14.8621 48.7469L14.004 47.8662L14.884 47.0068L15.7646 47.8878ZM18.907 47.9745L19.5203 49.0544L19.5192 49.055L18.907 47.9745ZM40.0965 36.6112L33.7155 30.3811L35.4766 28.6191L41.8576 34.8491L40.0965 36.6112ZM35.4766 30.3811L16.6453 48.7688L14.884 47.0068L33.7154 28.6191L35.4766 30.3811ZM16.6672 47.0288C16.8283 47.1942 17.2845 47.4531 18.2948 46.894L19.5192 49.055C17.931 49.934 16.1022 50.0196 14.8621 48.7469L16.6672 47.0288ZM18.2937 46.8946L40.3637 34.6502L41.5903 36.8101L19.5203 49.0544L18.2937 46.8946Z" fill="#F3EDFE" mask="url(#path-14-inside-3_7_2964)"/>
<path d="M34.596 28.6297L39.9448 23.4074L18.6033 11.5672C18.6028 11.567 18.6024 11.5667 18.6019 11.5665C17.8258 11.1417 17.2101 11.0801 16.7588 11.2197L34.596 28.6297Z" fill="url(#paint3_linear_7_2964)" stroke="#F3EDFE"/>
<defs>
<linearGradient id="paint0_linear_7_2964" x1="32.9337" y1="46.1532" x2="8.18673" y2="20.8066" gradientUnits="userSpaceOnUse">
<stop stop-color="#00A0FF"/>
<stop offset="0.0066" stop-color="#00A1FF"/>
<stop offset="0.2601" stop-color="#00BEFF"/>
<stop offset="0.5122" stop-color="#00D2FF"/>
<stop offset="0.7604" stop-color="#00DFFF"/>
<stop offset="1" stop-color="#00E3FF"/>
</linearGradient>
<linearGradient id="paint1_linear_7_2964" x1="51.115" y1="29.4979" x2="14.5597" y2="29.4979" gradientUnits="userSpaceOnUse">
<stop stop-color="#FFE000"/>
<stop offset="0.4087" stop-color="#FFBD00"/>
<stop offset="0.7754" stop-color="#FFA500"/>
<stop offset="1" stop-color="#FF9C00"/>
</linearGradient>
<linearGradient id="paint2_linear_7_2964" x1="37.5072" y1="26.1134" x2="3.94836" y2="-8.25867" gradientUnits="userSpaceOnUse">
<stop stop-color="#FF3A44"/>
<stop offset="1" stop-color="#C31162"/>
</linearGradient>
<linearGradient id="paint3_linear_7_2964" x1="11.0244" y1="58.7401" x2="26.0099" y2="43.3916" gradientUnits="userSpaceOnUse">
<stop stop-color="#32A071"/>
<stop offset="0.0685" stop-color="#2DA771"/>
<stop offset="0.4762" stop-color="#15CF74"/>
<stop offset="0.8009" stop-color="#06E775"/>
<stop offset="1" stop-color="#00F076"/>
</linearGradient>
</defs>
</svg>
