<svg width="161" height="52" viewBox="0 0 161 52" fill="none" xmlns="http://www.w3.org/2000/svg">
<mask id="mask0_153_3028" style="mask-type:alpha" maskUnits="userSpaceOnUse" x="0" y="0" width="161" height="52">
<rect x="0.5" width="160" height="52" rx="26" fill="url(#paint0_linear_153_3028)"/>
</mask>
<g mask="url(#mask0_153_3028)">
<rect x="-9.5" y="-29" width="182" height="122" fill="url(#paint1_linear_153_3028)"/>
<path d="M63.5214 26.1553L56 37.3105H68.04H80.0514L78.9361 35.3026L77.7921 33.3265L70.9285 33.2309C67.1249 33.199 64.0362 33.1034 64.0362 33.0397C64.0362 32.9759 66.6101 29.1194 69.7559 24.498C72.9018 19.9084 75.4757 16.02 75.4757 15.9244C75.4757 15.6375 74.5605 15.4144 72.6158 15.1913L71.0429 15.0001L63.5214 26.1553Z" fill="#381F66"/>
<path d="M79.5653 18.1557L77.9065 20.6736L77.1058 19.08C76.2192 17.2952 76.1334 17.327 74.6749 19.5581L73.7883 20.9604L76.5624 26.4424L79.3365 31.8926H81.2812C82.3393 31.8926 83.1973 31.797 83.1973 31.7013C83.1973 31.6057 82.4251 29.9165 81.4814 27.9723C80.5376 26.0281 79.794 24.2751 79.8798 24.0839C79.937 23.9246 80.6806 22.7453 81.5386 21.5023L83.0543 19.2394L86.2001 25.55L89.346 31.8607L91.4337 31.8926H93.5214L92.0914 28.9285C91.2907 27.3349 89.5176 23.7014 88.1448 20.8967L85.6282 15.7972L83.4261 15.7016L81.224 15.6059L79.5653 18.1557Z" fill="#381F66"/>
<path d="M90.0896 17.5501L88.8884 19.4306L89.6034 21.0242C90.0038 21.8847 90.4328 22.6815 90.5471 22.7453C90.6901 22.8409 91.2907 22.1397 91.8913 21.1836C92.5205 20.2274 93.0924 19.4625 93.1782 19.4625C93.264 19.4943 94.7511 22.2672 96.4385 25.6775L99.5557 31.8926H101.558C102.644 31.8926 103.502 31.7651 103.445 31.6057C103.417 31.4464 101.615 27.7811 99.4985 23.4783L95.6377 15.6378H93.4642H91.2907L90.0896 17.5501Z" fill="#381F66"/>
<path d="M80.3374 33.454C80.3374 33.6134 80.7664 34.5377 81.2812 35.5257L82.1963 37.3105H89.2888H96.4098L95.6091 35.8126C95.1801 34.952 94.6939 34.0277 94.5223 33.709C94.2363 33.2309 93.5786 33.1672 87.2869 33.1672C83.2545 33.1672 80.3374 33.2947 80.3374 33.454Z" fill="#381F66"/>
<path d="M100.357 33.3584C100.357 33.4859 100.814 34.4102 101.386 35.4301L102.387 37.3105H104.246C105.304 37.3105 106.076 37.1831 106.076 36.9918C106.076 36.8006 105.676 35.8763 105.19 34.9201L104.303 33.1672H102.33C101.243 33.1672 100.357 33.2628 100.357 33.3584Z" fill="#381F66"/>
</g>
<defs>
<linearGradient id="paint0_linear_153_3028" x1="0.5" y1="1.34777" x2="160.5" y2="50.6522" gradientUnits="userSpaceOnUse">
<stop stop-color="#C7ACFA"/>
<stop offset="0.554787" stop-color="#9981C6"/>
<stop offset="1" stop-color="#604C87"/>
</linearGradient>
<linearGradient id="paint1_linear_153_3028" x1="-9.5" y1="-25.8379" x2="185.431" y2="3.28551" gradientUnits="userSpaceOnUse">
<stop stop-color="#C7ACFA"/>
<stop offset="0.554787" stop-color="#9981C6"/>
<stop offset="1" stop-color="#604C87"/>
</linearGradient>
</defs>
</svg>
