<svg width="98" height="32" viewBox="0 0 98 32" fill="none" xmlns="http://www.w3.org/2000/svg">
<path d="M7.31293 21.3521V13.7192L0 1.40912H4.26681L9.28395 10.0711L14.3235 1.40912H18.3607L11.0198 13.7441V21.3521H7.31293Z" fill="#D9C7FC"/>
<path d="M19.1562 21.352V1.409H22.8631V17.7039H32.6622V21.352H19.1562Z" fill="#D9C7FC"/>
<path d="M34.5547 21.352V1.409H38.2615V17.7039H48.0607V21.352H34.5547Z" fill="#D9C7FC"/>
<path d="M6.91211 25.8928H8.54716C8.93492 25.8928 9.2429 25.9988 9.47108 26.2108C9.70205 26.4197 9.81824 26.6972 9.81824 27.0464C9.81824 27.2803 9.76365 27.4814 9.65586 27.6513C9.54667 27.8228 9.39548 27.9538 9.2023 28.0442C9.44448 28.1237 9.63486 28.2594 9.77345 28.4496C9.91484 28.6413 9.98623 28.8643 9.98623 29.1168C9.98623 29.5035 9.85884 29.8121 9.60546 30.0398C9.35489 30.2689 9.02452 30.3827 8.61435 30.3827H6.91211V25.8928ZM8.52476 26.3231H7.35447V27.8509H8.52476C8.78514 27.8509 8.99232 27.7823 9.14631 27.6451C9.30309 27.5048 9.38148 27.3193 9.38148 27.0901C9.38148 26.8578 9.30309 26.6723 9.14631 26.5351C8.99232 26.3948 8.78514 26.3231 8.52476 26.3231ZM8.58076 29.9525C8.86773 29.9525 9.09871 29.8761 9.27509 29.7217C9.45008 29.5689 9.53827 29.3631 9.53827 29.1043C9.53827 28.8518 9.45008 28.6476 9.27509 28.4932C9.09871 28.3404 8.86773 28.2625 8.58076 28.2625H7.35447V29.9525H8.58076Z" fill="#D9C7FC"/>
<path d="M10.8731 27.1709V29.1041C10.8731 29.3878 10.9459 29.6123 11.0915 29.7776C11.2371 29.9444 11.433 30.027 11.6794 30.027C11.8502 30.027 12.0042 29.9834 12.1386 29.8961C12.2758 29.8088 12.3877 29.6872 12.4745 29.5281V27.1709H12.9001V30.3825H12.4745V30.0083C12.3626 30.1549 12.2296 30.264 12.077 30.3388C11.9272 30.409 11.7578 30.4448 11.5674 30.4448C11.2385 30.4448 10.9697 30.331 10.7611 30.1019C10.5553 29.8696 10.4531 29.5702 10.4531 29.2039V27.1709H10.8731Z" fill="#D9C7FC"/>
<path d="M13.6865 26.5538C13.6081 26.5538 13.5382 26.5226 13.4794 26.4602C13.4235 26.3947 13.3955 26.3199 13.3955 26.2357C13.3955 26.1453 13.4235 26.0673 13.4794 26.005C13.5382 25.9426 13.6081 25.9114 13.6865 25.9114C13.7648 25.9114 13.832 25.9426 13.8879 26.005C13.9439 26.0673 13.9719 26.1453 13.9719 26.2357C13.9719 26.3199 13.9439 26.3947 13.8879 26.4602C13.832 26.5226 13.7648 26.5538 13.6865 26.5538ZM13.8991 27.1711V30.3827H13.4738V27.1711H13.8991Z" fill="#D9C7FC"/>
<path d="M14.8999 25.7866V30.3826H14.4746V25.8926L14.8999 25.7866Z" fill="#D9C7FC"/>
<path d="M17.7272 30.3826V30.0458C17.604 30.1705 17.4612 30.2672 17.3016 30.3327C17.1406 30.3982 16.9712 30.4324 16.7921 30.4324C16.5905 30.4324 16.4001 30.3904 16.2209 30.3077C16.0445 30.2204 15.8919 30.1051 15.7618 29.9585C15.6302 29.8088 15.528 29.6327 15.4538 29.4284C15.3782 29.2211 15.3418 29.0028 15.3418 28.7736C15.3418 28.5414 15.3782 28.3247 15.4538 28.1251C15.528 27.9224 15.6302 27.7478 15.7618 27.6013C15.8919 27.4516 16.0473 27.3362 16.2265 27.252C16.4057 27.1647 16.5961 27.1211 16.7977 27.1211C16.9614 27.1211 17.1238 27.1523 17.2848 27.2146C17.4444 27.277 17.59 27.3674 17.7216 27.4828V25.8926L18.1471 25.7866V30.3826H17.7272ZM15.7618 28.7674C15.7618 28.942 15.7898 29.1073 15.8458 29.2601C15.9017 29.4144 15.9759 29.5469 16.0697 29.6592C16.1663 29.7714 16.2797 29.8587 16.4113 29.9211C16.5415 29.9835 16.6815 30.0146 16.8313 30.0146C17.0132 30.0146 17.1812 29.9757 17.3352 29.8961C17.492 29.8182 17.6208 29.7075 17.7216 29.5656V27.9817C17.6208 27.8445 17.492 27.7369 17.3352 27.6574C17.1784 27.5794 17.0104 27.5389 16.8313 27.5389C16.5317 27.5389 16.2783 27.6574 16.0697 27.8944C15.8639 28.1282 15.7618 28.4182 15.7618 28.7674Z" fill="#D9C7FC"/>
<path d="M20.7162 30.4387C20.4027 30.4387 20.1465 30.3499 19.9491 30.1706C19.7503 29.9928 19.6523 29.759 19.6523 29.4721C19.6523 29.1728 19.7545 28.9358 19.9603 28.7612C20.1689 28.5835 20.4503 28.4931 20.8058 28.4931C20.9584 28.4931 21.1054 28.5118 21.2482 28.5492C21.3938 28.5866 21.5282 28.6412 21.6514 28.7113V28.2873C21.6514 28.03 21.5856 27.8367 21.4554 27.7073C21.3238 27.5748 21.1334 27.5078 20.8842 27.5078C20.7414 27.5078 20.5987 27.5311 20.4531 27.5763C20.3103 27.6231 20.1535 27.6948 19.9827 27.7946L19.8203 27.4267C20.0247 27.3144 20.2151 27.2334 20.3915 27.1835C20.5707 27.1336 20.747 27.1086 20.9234 27.1086C21.2888 27.1086 21.5702 27.2053 21.769 27.3955C21.9663 27.5873 22.0657 27.8632 22.0657 28.2249V30.3826H21.6514V30.0708C21.5198 30.1924 21.377 30.2828 21.2202 30.3452C21.0662 30.4075 20.8982 30.4387 20.7162 30.4387ZM20.0611 29.4596C20.0611 29.6389 20.1283 29.787 20.2627 29.9024C20.3999 30.0147 20.5777 30.0708 20.7946 30.0708C20.9654 30.0708 21.1222 30.0427 21.265 29.9835C21.4064 29.9211 21.5352 29.826 21.6514 29.6966V29.0917C21.531 29.0044 21.4022 28.9405 21.265 28.8984C21.1306 28.8579 20.9808 28.836 20.817 28.836C20.5847 28.836 20.3999 28.8953 20.2627 29.0107C20.1283 29.1229 20.0611 29.2726 20.0611 29.4596Z" fill="#D9C7FC"/>
<path d="M24.657 30.3825H24.2426L23.4307 27.1709H23.8506L24.4722 29.7339L25.1945 27.1709H25.5753L26.2864 29.7339L26.9135 27.1709H27.3167L26.4992 30.3825H26.0904L25.3793 27.8132L24.657 30.3825Z" fill="#D9C7FC"/>
<path d="M27.4775 28.7737C27.4775 28.5414 27.5139 28.3231 27.5895 28.1189C27.6679 27.9162 27.7715 27.7385 27.9031 27.5888C28.0375 27.4392 28.1943 27.3238 28.3735 27.2396C28.5554 27.1523 28.7486 27.1086 28.9502 27.1086C29.1546 27.1086 29.345 27.1523 29.5214 27.2396C29.7005 27.3238 29.8545 27.4392 29.9861 27.5888C30.1205 27.7385 30.2241 27.9162 30.2997 28.1189C30.3781 28.3231 30.4173 28.5414 30.4173 28.7737C30.4173 29.0107 30.3781 29.232 30.2997 29.4347C30.2241 29.6389 30.1205 29.8151 29.9861 29.9648C29.8545 30.1144 29.7005 30.2329 29.5214 30.3202C29.345 30.4029 29.1546 30.445 28.9502 30.445C28.7486 30.445 28.5554 30.4029 28.3735 30.3202C28.1943 30.2329 28.0375 30.1144 27.9031 29.9648C27.7715 29.8151 27.6679 29.6389 27.5895 29.4347C27.5139 29.232 27.4775 29.0107 27.4775 28.7737ZM28.9502 30.0209C29.0958 30.0209 29.2316 29.9897 29.359 29.9274C29.4892 29.865 29.6011 29.7777 29.6949 29.6654C29.7915 29.5501 29.8657 29.416 29.9189 29.2663C29.9707 29.1135 29.9973 28.9483 29.9973 28.7737C29.9973 28.5991 29.9707 28.4369 29.9189 28.2873C29.8657 28.1345 29.7915 28.0004 29.6949 27.8882C29.6011 27.7759 29.4892 27.6886 29.359 27.6262C29.2316 27.5639 29.0958 27.5327 28.9502 27.5327C28.8046 27.5327 28.666 27.5639 28.5358 27.6262C28.4085 27.6886 28.2979 27.7759 28.2055 27.8882C28.1117 28.0004 28.0375 28.1345 27.9815 28.2873C27.9255 28.4369 27.8975 28.5991 27.8975 28.7737C27.8975 28.9483 27.9227 29.1135 27.9759 29.2663C28.0319 29.416 28.1061 29.5501 28.1999 29.6654C28.2923 29.7777 28.4043 29.865 28.5358 29.9274C28.666 29.9897 28.8046 30.0209 28.9502 30.0209Z" fill="#D9C7FC"/>
<path d="M30.8623 30.3827V27.1711H31.2879V27.6264C31.3691 27.4611 31.4796 27.3317 31.6182 27.2397C31.7554 27.1493 31.915 27.1025 32.0942 27.1025C32.146 27.1025 32.1922 27.1072 32.2342 27.115C32.279 27.1197 32.321 27.1306 32.363 27.1462V27.5827C32.314 27.5671 32.2636 27.5547 32.2118 27.5453C32.1628 27.5328 32.1138 27.5266 32.0662 27.5266C31.887 27.5266 31.7302 27.5827 31.5958 27.695C31.4615 27.8072 31.3579 27.9694 31.2879 28.1814V30.3827H30.8623Z" fill="#D9C7FC"/>
<path d="M33.1294 25.7866V30.3826H32.7041V25.8926L33.1294 25.7866Z" fill="#D9C7FC"/>
<path d="M35.9557 30.3826V30.0458C35.8325 30.1705 35.6897 30.2672 35.5301 30.3327C35.3691 30.3982 35.1998 30.4324 35.0206 30.4324C34.819 30.4324 34.6286 30.3904 34.4494 30.3077C34.273 30.2204 34.1205 30.1051 33.9903 29.9585C33.8587 29.8088 33.7565 29.6327 33.6823 29.4284C33.6067 29.2211 33.5703 29.0028 33.5703 28.7736C33.5703 28.5414 33.6067 28.3247 33.6823 28.1251C33.7565 27.9224 33.8587 27.7478 33.9903 27.6013C34.1205 27.4516 34.2758 27.3362 34.455 27.252C34.6342 27.1647 34.8246 27.1211 35.0262 27.1211C35.19 27.1211 35.3523 27.1523 35.5133 27.2146C35.6729 27.277 35.8185 27.3674 35.9501 27.4828V25.8926L36.3757 25.7866V30.3826H35.9557ZM33.9903 28.7674C33.9903 28.942 34.0183 29.1073 34.0743 29.2601C34.1303 29.4144 34.2045 29.5469 34.2982 29.6592C34.3948 29.7714 34.5082 29.8587 34.6398 29.9211C34.77 29.9835 34.91 30.0146 35.0598 30.0146C35.2418 30.0146 35.4097 29.9757 35.5637 29.8961C35.7205 29.8182 35.8493 29.7075 35.9501 29.5656V27.9817C35.8493 27.8445 35.7205 27.7369 35.5637 27.6574C35.4069 27.5794 35.239 27.5389 35.0598 27.5389C34.7602 27.5389 34.5068 27.6574 34.2982 27.8944C34.0925 28.1282 33.9903 28.4182 33.9903 28.7674Z" fill="#D9C7FC"/>
<path d="M36.8662 28.3685H38.8764V28.7925H36.8662V28.3685Z" fill="#D9C7FC"/>
<path d="M40.7165 30.0084C40.8691 30.0084 41.0161 29.9757 41.1589 29.9086C41.3045 29.8385 41.4361 29.7387 41.5565 29.6093L41.8252 29.9274C41.6713 30.0895 41.4977 30.2173 41.3045 30.3078C41.1141 30.3951 40.9139 30.4387 40.7053 30.4387C40.5038 30.4387 40.3106 30.3966 40.1286 30.314C39.9494 30.2267 39.794 30.1082 39.6638 29.9585C39.5323 29.8089 39.4287 29.6327 39.3503 29.4285C39.2747 29.2211 39.2383 29.0029 39.2383 28.7737C39.2383 28.5414 39.2747 28.3247 39.3503 28.1251C39.4287 27.9225 39.5323 27.7447 39.6638 27.5951C39.794 27.4454 39.9494 27.3269 40.1286 27.2396C40.3106 27.1523 40.5038 27.1086 40.7053 27.1086C40.9139 27.1086 41.1169 27.1554 41.3157 27.2458C41.5131 27.3331 41.6867 27.4563 41.8364 27.6138L41.5621 27.9568C41.4501 27.8289 41.3171 27.7291 41.1645 27.6574C41.0147 27.5826 40.8635 27.5452 40.7109 27.5452C40.5654 27.5452 40.4268 27.5763 40.2966 27.6387C40.165 27.7011 40.053 27.7884 39.9606 27.9006C39.8668 28.0129 39.7926 28.1438 39.7366 28.2935C39.6834 28.4432 39.6582 28.6037 39.6582 28.7737C39.6582 28.9483 39.6862 29.1135 39.7422 29.2663C39.7982 29.416 39.8724 29.547 39.9662 29.6592C40.0586 29.7683 40.1706 29.8525 40.3022 29.9149C40.4324 29.9772 40.571 30.0084 40.7165 30.0084Z" fill="#D9C7FC"/>
<path d="M42.6001 25.7866V30.3826H42.1748V25.8926L42.6001 25.7866Z" fill="#D9C7FC"/>
<path d="M44.0834 30.4387C43.7699 30.4387 43.5137 30.3499 43.3163 30.1706C43.1175 29.9928 43.0195 29.759 43.0195 29.4721C43.0195 29.1728 43.1217 28.9358 43.3275 28.7612C43.5361 28.5835 43.8175 28.4931 44.173 28.4931C44.3256 28.4931 44.4726 28.5118 44.6154 28.5492C44.761 28.5866 44.8954 28.6412 45.0185 28.7113V28.2873C45.0185 28.03 44.9528 27.8367 44.8226 27.7073C44.691 27.5748 44.5006 27.5078 44.2514 27.5078C44.1086 27.5078 43.9658 27.5311 43.8203 27.5763C43.6775 27.6231 43.5207 27.6948 43.3499 27.7946L43.1875 27.4267C43.3919 27.3144 43.5823 27.2334 43.7587 27.1835C43.9378 27.1336 44.1142 27.1086 44.2906 27.1086C44.656 27.1086 44.9374 27.2053 45.1361 27.3955C45.3335 27.5873 45.4329 27.8632 45.4329 28.2249V30.3826H45.0185V30.0708C44.887 30.1924 44.7442 30.2828 44.5874 30.3452C44.4334 30.4075 44.2654 30.4387 44.0834 30.4387ZM43.4283 29.4596C43.4283 29.6389 43.4955 29.787 43.6299 29.9024C43.7671 30.0147 43.9448 30.0708 44.1618 30.0708C44.3326 30.0708 44.4894 30.0427 44.6322 29.9835C44.7736 29.9211 44.9024 29.826 45.0185 29.6966V29.0917C44.8982 29.0044 44.7694 28.9405 44.6322 28.8984C44.4978 28.8579 44.348 28.836 44.1842 28.836C43.9518 28.836 43.7671 28.8953 43.6299 29.0107C43.4955 29.1229 43.4283 29.2726 43.4283 29.4596Z" fill="#D9C7FC"/>
<path d="M45.6992 29.94L45.9624 29.6344C46.0926 29.7716 46.2382 29.8776 46.3992 29.9525C46.5629 30.0273 46.7295 30.0647 46.8975 30.0647C47.1285 30.0647 47.3175 30.0117 47.4631 29.9026C47.6086 29.795 47.6814 29.6562 47.6814 29.4848C47.6814 29.3476 47.638 29.24 47.5526 29.1605C47.4659 29.0825 47.3301 29.028 47.1439 28.9983L46.6455 28.9235C46.3572 28.8736 46.143 28.7785 46.0016 28.6366C45.863 28.4917 45.7944 28.2983 45.7944 28.0567C45.7944 27.787 45.8952 27.564 46.0968 27.3894C46.3012 27.2117 46.5615 27.1213 46.8751 27.1213C47.0837 27.1213 47.2797 27.1571 47.4631 27.2273C47.6492 27.2943 47.8326 27.4003 48.0118 27.5453L47.7822 27.8634C47.6212 27.7433 47.4645 27.6545 47.3119 27.5952C47.1621 27.5329 47.0095 27.5017 46.8527 27.5017C46.6581 27.5017 46.4971 27.5516 46.3712 27.6513C46.248 27.7511 46.1864 27.8805 46.1864 28.038C46.1864 28.1752 46.227 28.2812 46.3096 28.356C46.395 28.4309 46.5307 28.4839 46.7183 28.5119L47.2223 28.5868C47.5093 28.6289 47.7234 28.724 47.8662 28.8736C48.0118 29.0202 48.0846 29.215 48.0846 29.4598C48.0846 29.597 48.0538 29.7264 47.995 29.8464C47.9348 29.9681 47.8522 30.0741 47.7486 30.1645C47.6436 30.2518 47.5191 30.3204 47.3735 30.3703C47.2307 30.4155 47.0781 30.4389 46.9143 30.4389C46.6791 30.4389 46.4551 30.3952 46.2424 30.3079C46.0324 30.2206 45.8518 30.099 45.6992 29.94Z" fill="#D9C7FC"/>
<path d="M48.1152 29.94L48.3784 29.6344C48.5086 29.7716 48.6542 29.8776 48.8152 29.9525C48.979 30.0273 49.1455 30.0647 49.3135 30.0647C49.5445 30.0647 49.7335 30.0117 49.8791 29.9026C50.0247 29.795 50.0975 29.6562 50.0975 29.4848C50.0975 29.3476 50.0541 29.24 49.9687 29.1605C49.8819 29.0825 49.7461 29.028 49.5599 28.9983L49.0615 28.9235C48.7732 28.8736 48.559 28.7785 48.4176 28.6366C48.279 28.4917 48.2104 28.2983 48.2104 28.0567C48.2104 27.787 48.3112 27.564 48.5128 27.3894C48.7172 27.2117 48.9776 27.1213 49.2911 27.1213C49.4997 27.1213 49.6957 27.1571 49.8791 27.2273C50.0653 27.2943 50.2486 27.4003 50.4278 27.5453L50.1982 27.8634C50.0373 27.7433 49.8805 27.6545 49.7279 27.5952C49.5781 27.5329 49.4255 27.5017 49.2687 27.5017C49.0741 27.5017 48.9132 27.5516 48.7872 27.6513C48.664 27.7511 48.6024 27.8805 48.6024 28.038C48.6024 28.1752 48.643 28.2812 48.7256 28.356C48.811 28.4309 48.9468 28.4839 49.1343 28.5119L49.6383 28.5868C49.9253 28.6289 50.1395 28.724 50.2822 28.8736C50.4278 29.0202 50.5006 29.215 50.5006 29.4598C50.5006 29.597 50.4698 29.7264 50.411 29.8464C50.3508 29.9681 50.2682 30.0741 50.1646 30.1645C50.0597 30.2518 49.9351 30.3204 49.7895 30.3703C49.6467 30.4155 49.4941 30.4389 49.3303 30.4389C49.0951 30.4389 48.8712 30.3952 48.6584 30.3079C48.4484 30.2206 48.2678 30.099 48.1152 29.94Z" fill="#D9C7FC"/>
<path d="M52.269 29.6656V27.5765H51.6475V27.1712H52.269V26.3543L52.6946 26.2358V27.1712H53.5625V27.5765H52.6946V29.5409C52.6946 29.7124 52.7282 29.834 52.7954 29.9088C52.8653 29.9837 52.9801 30.0211 53.1369 30.0211C53.2153 30.0211 53.2853 30.0149 53.3497 30.0024C53.4127 29.9899 53.4813 29.9696 53.5569 29.94V30.3578C53.4813 30.3859 53.4001 30.4077 53.3105 30.4202C53.2209 30.4327 53.1327 30.4389 53.0473 30.4389C52.7968 30.4389 52.605 30.375 52.4706 30.2456C52.3362 30.1131 52.269 29.9198 52.269 29.6656Z" fill="#D9C7FC"/>
<path d="M56.297 30.046C56.1318 30.1754 55.9624 30.2736 55.7874 30.3391C55.6152 30.4046 55.4249 30.4389 55.2163 30.4389C55.0105 30.4389 54.8159 30.3968 54.6339 30.3142C54.4506 30.2269 54.2924 30.1084 54.158 29.9587C54.0264 29.809 53.9228 29.6344 53.8444 29.4349C53.7688 29.2322 53.7324 29.0108 53.7324 28.7738C53.7324 28.5415 53.7688 28.3248 53.8444 28.1253C53.9186 27.9257 54.0194 27.7511 54.1468 27.6015C54.2728 27.4518 54.424 27.3364 54.6003 27.2522C54.7753 27.1649 54.9601 27.1213 55.1547 27.1213C55.3451 27.1213 55.5243 27.1649 55.6922 27.2522C55.8602 27.3364 56.003 27.4518 56.1234 27.6015C56.2466 27.7511 56.3432 27.9257 56.4146 28.1253C56.4846 28.3248 56.521 28.5415 56.521 28.7738V28.9235H54.1524C54.1818 29.24 54.298 29.5019 54.4996 29.7093C54.7039 29.9182 54.9489 30.0211 55.2331 30.0211C55.3857 30.0211 55.5327 29.9961 55.6754 29.9462C55.8168 29.8963 55.9344 29.8246 56.0282 29.728L56.297 30.046ZM55.1435 27.5391C54.8929 27.5391 54.6759 27.6326 54.494 27.8197C54.3106 28.0068 54.2 28.2485 54.1636 28.5431H56.0954C56.0534 28.2609 55.9442 28.024 55.765 27.8322C55.5887 27.6373 55.3815 27.5391 55.1435 27.5391Z" fill="#D9C7FC"/>
<path d="M57.8705 30.4387C57.557 30.4387 57.3008 30.3499 57.1034 30.1706C56.9046 29.9928 56.8066 29.759 56.8066 29.4721C56.8066 29.1728 56.9088 28.9358 57.1146 28.7612C57.3232 28.5835 57.6046 28.4931 57.9601 28.4931C58.1127 28.4931 58.2597 28.5118 58.4025 28.5492C58.5481 28.5866 58.6825 28.6412 58.8057 28.7113V28.2873C58.8057 28.03 58.7399 27.8367 58.6097 27.7073C58.4781 27.5748 58.2877 27.5078 58.0385 27.5078C57.8957 27.5078 57.753 27.5311 57.6074 27.5763C57.4646 27.6231 57.3078 27.6948 57.137 27.7946L56.9746 27.4267C57.179 27.3144 57.3694 27.2334 57.5458 27.1835C57.725 27.1336 57.9013 27.1086 58.0777 27.1086C58.4431 27.1086 58.7245 27.2053 58.9232 27.3955C59.1206 27.5873 59.22 27.8632 59.22 28.2249V30.3826H58.8057V30.0708C58.6741 30.1924 58.5313 30.2828 58.3745 30.3452C58.2205 30.4075 58.0525 30.4387 57.8705 30.4387ZM57.2154 29.4596C57.2154 29.6389 57.2826 29.787 57.417 29.9024C57.5542 30.0147 57.732 30.0708 57.9489 30.0708C58.1197 30.0708 58.2765 30.0427 58.4193 29.9835C58.5607 29.9211 58.6895 29.826 58.8057 29.6966V29.0917C58.6853 29.0044 58.5565 28.9405 58.4193 28.8984C58.2849 28.8579 58.1351 28.836 57.9713 28.836C57.739 28.836 57.5542 28.8953 57.417 29.0107C57.2826 29.1229 57.2154 29.2726 57.2154 29.4596Z" fill="#D9C7FC"/>
<path d="M59.7822 30.3826V27.171H60.2078V27.5265C60.3156 27.3893 60.4402 27.2864 60.583 27.2147C60.7243 27.1445 60.8811 27.1086 61.0533 27.1086C61.2507 27.1086 61.4299 27.1616 61.5909 27.2645C61.7504 27.369 61.8736 27.5109 61.9604 27.6886C62.0794 27.4937 62.2236 27.3487 62.3916 27.2521C62.5596 27.157 62.7458 27.1086 62.9515 27.1086C63.2609 27.1086 63.5143 27.2256 63.7131 27.4579C63.9104 27.687 64.0098 27.9848 64.0098 28.3496V30.3826H63.5899V28.4494C63.5899 28.1672 63.5227 27.9427 63.3883 27.7759C63.2539 27.6106 63.0719 27.5265 62.8451 27.5265C62.6884 27.5265 62.5442 27.5732 62.414 27.6637C62.2824 27.751 62.1704 27.8804 62.078 28.0503C62.085 28.0971 62.0906 28.1438 62.0948 28.1937C62.1018 28.2436 62.106 28.2966 62.106 28.3496V30.3826H61.6861V28.4494C61.6861 28.1672 61.6189 27.9427 61.4845 27.7759C61.3501 27.6106 61.1681 27.5265 60.9413 27.5265C60.7873 27.5265 60.6473 27.567 60.5214 27.6449C60.3982 27.7245 60.2932 27.8414 60.2078 27.9942V30.3826H59.7822Z" fill="#D9C7FC"/>
<path d="M64.7829 29.7651C64.8612 29.7651 64.9284 29.7994 64.9843 29.8649C65.0431 29.9273 65.0739 30.0052 65.0739 30.0956C65.0739 30.1829 65.0431 30.2609 64.9843 30.3264C64.9284 30.3887 64.8612 30.4199 64.7829 30.4199C64.7004 30.4199 64.629 30.3887 64.5703 30.3264C64.5143 30.2609 64.4863 30.1829 64.4863 30.0956C64.4863 30.0052 64.5143 29.9273 64.5703 29.8649C64.629 29.7994 64.7004 29.7651 64.7829 29.7651ZM64.7829 27.0961C64.8612 27.0961 64.9284 27.1304 64.9843 27.1958C65.0431 27.2582 65.0739 27.3362 65.0739 27.4266C65.0739 27.5139 65.0431 27.5918 64.9843 27.6573C64.9284 27.7197 64.8612 27.7509 64.7829 27.7509C64.7004 27.7509 64.629 27.7197 64.5703 27.6573C64.5143 27.5918 64.4863 27.5139 64.4863 27.4266C64.4863 27.3362 64.5143 27.2582 64.5703 27.1958C64.629 27.1304 64.7004 27.0961 64.7829 27.0961Z" fill="#D9C7FC"/>
<path d="M66.3506 29.6157L66.6474 29.2727C66.8517 29.519 67.0729 29.703 67.3081 29.8277C67.5461 29.9524 67.7967 30.0148 68.0584 30.0148C68.372 30.0148 68.6296 29.9322 68.8312 29.7653C69.0355 29.6001 69.1391 29.3896 69.1391 29.1355C69.1391 28.9032 69.0663 28.7239 68.9208 28.5992C68.778 28.4745 68.5414 28.3841 68.2096 28.3248L67.6329 28.225C67.2437 28.1549 66.9567 28.0286 66.7705 27.8446C66.5872 27.6575 66.4962 27.4065 66.4962 27.0901C66.4962 26.7159 66.6264 26.415 66.8881 26.1858C67.1485 25.9535 67.4901 25.8366 67.9128 25.8366C68.1928 25.8366 68.47 25.8896 68.7472 25.9925C69.0229 26.0923 69.2749 26.2404 69.5031 26.4353L69.2455 26.8157C69.0285 26.6333 68.806 26.4961 68.5792 26.4041C68.351 26.309 68.1228 26.2607 67.896 26.2607C67.6077 26.2607 67.3753 26.3355 67.1961 26.4852C67.0169 26.6317 66.9273 26.8188 66.9273 27.0464C66.9273 27.2584 66.9903 27.4206 67.1177 27.5328C67.2437 27.642 67.4537 27.723 67.7449 27.776L68.3216 27.8758C68.7584 27.96 69.0775 28.0988 69.2791 28.2936C69.4807 28.4901 69.5815 28.7598 69.5815 29.1043C69.5815 29.3039 69.5437 29.4878 69.4695 29.6531C69.3939 29.8152 69.2875 29.9555 69.1503 30.0709C69.0159 30.1878 68.8536 30.2798 68.6632 30.3453C68.4728 30.4108 68.2656 30.4451 68.0416 30.4451C67.7197 30.4451 67.4117 30.3749 67.1177 30.2331C66.8265 30.0881 66.5704 29.8823 66.3506 29.6157Z" fill="#D9C7FC"/>
<path d="M70.3081 29.6656V27.5765H69.6865V27.1712H70.3081V26.3543L70.7336 26.2358V27.1712H71.6015V27.5765H70.7336V29.5409C70.7336 29.7124 70.7672 29.834 70.8344 29.9088C70.9044 29.9837 71.0192 30.0211 71.176 30.0211C71.2544 30.0211 71.3244 30.0149 71.3888 30.0024C71.4518 29.9899 71.5204 29.9696 71.5959 29.94V30.3578C71.5204 30.3859 71.4392 30.4077 71.3496 30.4202C71.26 30.4327 71.1718 30.4389 71.0864 30.4389C70.8358 30.4389 70.644 30.375 70.5096 30.2456C70.3753 30.1131 70.3081 29.9198 70.3081 29.6656Z" fill="#D9C7FC"/>
<path d="M72.8139 30.4387C72.5003 30.4387 72.2442 30.3499 72.0468 30.1706C71.848 29.9928 71.75 29.759 71.75 29.4721C71.75 29.1728 71.8522 28.9358 72.058 28.7612C72.2666 28.5835 72.5479 28.4931 72.9035 28.4931C73.0561 28.4931 73.2031 28.5118 73.3459 28.5492C73.4914 28.5866 73.6258 28.6412 73.749 28.7113V28.2873C73.749 28.03 73.6832 27.8367 73.553 27.7073C73.4214 27.5748 73.2311 27.5078 72.9819 27.5078C72.8391 27.5078 72.6963 27.5311 72.5507 27.5763C72.4079 27.6231 72.2512 27.6948 72.0804 27.7946L71.918 27.4267C72.1224 27.3144 72.3127 27.2334 72.4891 27.1835C72.6683 27.1336 72.8447 27.1086 73.0211 27.1086C73.3865 27.1086 73.6678 27.2053 73.8666 27.3955C74.064 27.5873 74.1634 27.8632 74.1634 28.2249V30.3826H73.749V30.0708C73.6174 30.1924 73.4746 30.2828 73.3179 30.3452C73.1639 30.4075 72.9959 30.4387 72.8139 30.4387ZM72.1588 29.4596C72.1588 29.6389 72.226 29.787 72.3603 29.9024C72.4975 30.0147 72.6753 30.0708 72.8923 30.0708C73.0631 30.0708 73.2199 30.0427 73.3627 29.9835C73.504 29.9211 73.6328 29.826 73.749 29.6966V29.0917C73.6286 29.0044 73.4998 28.9405 73.3627 28.8984C73.2283 28.8579 73.0785 28.836 72.9147 28.836C72.6823 28.836 72.4975 28.8953 72.3603 29.0107C72.226 29.1229 72.1588 29.2726 72.1588 29.4596Z" fill="#D9C7FC"/>
<path d="M74.7256 30.3827V27.1711H75.1511V27.6264C75.2323 27.4611 75.3429 27.3317 75.4815 27.2397C75.6187 27.1493 75.7783 27.1025 75.9575 27.1025C76.0093 27.1025 76.0555 27.1072 76.0975 27.115C76.1423 27.1197 76.1843 27.1306 76.2262 27.1462V27.5827C76.1773 27.5671 76.1269 27.5547 76.0751 27.5453C76.0261 27.5328 75.9771 27.5266 75.9295 27.5266C75.7503 27.5266 75.5935 27.5827 75.4591 27.695C75.3247 27.8072 75.2211 27.9694 75.1511 28.1814V30.3827H74.7256Z" fill="#D9C7FC"/>
<path d="M76.9194 29.6656V27.5765H76.2979V27.1712H76.9194V26.3543L77.345 26.2358V27.1712H78.2129V27.5765H77.345V29.5409C77.345 29.7124 77.3786 29.834 77.4457 29.9088C77.5157 29.9837 77.6305 30.0211 77.7873 30.0211C77.8657 30.0211 77.9357 30.0149 78.0001 30.0024C78.0631 29.9899 78.1317 29.9696 78.2073 29.94V30.3578C78.1317 30.3859 78.0505 30.4077 77.9609 30.4202C77.8713 30.4327 77.7831 30.4389 77.6977 30.4389C77.4471 30.4389 77.2554 30.375 77.121 30.2456C76.9866 30.1131 76.9194 29.9198 76.9194 29.6656Z" fill="#D9C7FC"/>
<path d="M80.0137 27.1709V29.1041C80.0137 29.3878 80.0865 29.6123 80.2321 29.7776C80.3777 29.9444 80.5737 30.027 80.82 30.027C80.9908 30.027 81.1448 29.9834 81.2792 29.8961C81.4164 29.8088 81.5284 29.6872 81.6152 29.5281V27.1709H82.0407V30.3825H81.6152V30.0083C81.5032 30.1549 81.3702 30.264 81.2176 30.3388C81.0678 30.409 80.8984 30.4448 80.708 30.4448C80.3791 30.4448 80.1103 30.331 79.9017 30.1019C79.6959 29.8696 79.5938 29.5702 79.5938 29.2039V27.1709H80.0137Z" fill="#D9C7FC"/>
<path d="M82.6143 31.6986V27.1712H83.0342V27.5142C83.1574 27.3863 83.2974 27.2881 83.4542 27.2211C83.6138 27.1556 83.7846 27.1213 83.9637 27.1213C84.1681 27.1213 84.3585 27.1649 84.5349 27.2522C84.7099 27.3364 84.8625 27.4518 84.994 27.6015C85.1242 27.748 85.2264 27.9226 85.302 28.1253C85.3762 28.3248 85.414 28.5415 85.414 28.7738C85.414 29.003 85.3762 29.2213 85.302 29.4286C85.2264 29.6329 85.1242 29.809 84.994 29.9587C84.8625 30.1052 84.7085 30.2206 84.5293 30.3079C84.3529 30.3905 84.1625 30.4326 83.9581 30.4326C83.7902 30.4326 83.6278 30.4015 83.471 30.3391C83.3142 30.2736 83.17 30.1816 83.0398 30.0647V31.6986H82.6143ZM83.9245 27.5391C83.7454 27.5391 83.5774 27.5796 83.4206 27.6576C83.2666 27.7371 83.1406 27.8478 83.0398 27.9881V29.5721C83.1406 29.7093 83.2694 29.8184 83.4262 29.8963C83.583 29.9758 83.7482 30.0148 83.9245 30.0148C84.2269 30.0148 84.4803 29.8963 84.6861 29.6594C84.8905 29.4224 84.994 29.1293 84.994 28.7801C84.994 28.6055 84.966 28.4433 84.91 28.2937C84.8569 28.1409 84.7827 28.0068 84.6861 27.8946C84.5881 27.7823 84.4747 27.695 84.3445 27.6326C84.2129 27.5703 84.0729 27.5391 83.9245 27.5391Z" fill="#D9C7FC"/>
<path d="M86.9473 30.3826V27.171H87.3728V27.5514C87.4848 27.4064 87.6164 27.2957 87.7704 27.2209C87.923 27.1461 88.0924 27.1086 88.2799 27.1086C88.6075 27.1086 88.8749 27.2256 89.0807 27.4579C89.2893 27.687 89.3942 27.9848 89.3942 28.3496V30.3826H88.9743V28.4494C88.9743 28.1672 88.8987 27.9427 88.7503 27.7759C88.6047 27.6106 88.4101 27.5265 88.168 27.5265C87.9916 27.5265 87.8348 27.5701 87.6976 27.6574C87.5632 27.7416 87.454 27.8617 87.3728 28.0191V30.3826H86.9473Z" fill="#D9C7FC"/>
<path d="M89.8223 28.7737C89.8223 28.5414 89.8587 28.3231 89.9343 28.1189C90.0126 27.9162 90.1162 27.7385 90.2478 27.5888C90.3822 27.4392 90.539 27.3238 90.7182 27.2396C90.9002 27.1523 91.0933 27.1086 91.2949 27.1086C91.4993 27.1086 91.6897 27.1523 91.8661 27.2396C92.0453 27.3238 92.1992 27.4392 92.3308 27.5888C92.4652 27.7385 92.5688 27.9162 92.6444 28.1189C92.7228 28.3231 92.762 28.5414 92.762 28.7737C92.762 29.0107 92.7228 29.232 92.6444 29.4347C92.5688 29.6389 92.4652 29.8151 92.3308 29.9648C92.1992 30.1144 92.0453 30.2329 91.8661 30.3202C91.6897 30.4029 91.4993 30.445 91.2949 30.445C91.0933 30.445 90.9002 30.4029 90.7182 30.3202C90.539 30.2329 90.3822 30.1144 90.2478 29.9648C90.1162 29.8151 90.0126 29.6389 89.9343 29.4347C89.8587 29.232 89.8223 29.0107 89.8223 28.7737ZM91.2949 30.0209C91.4405 30.0209 91.5763 29.9897 91.7037 29.9274C91.8339 29.865 91.9459 29.7777 92.0397 29.6654C92.1363 29.5501 92.2104 29.416 92.2636 29.2663C92.3154 29.1135 92.342 28.9483 92.342 28.7737C92.342 28.5991 92.3154 28.4369 92.2636 28.2873C92.2104 28.1345 92.1363 28.0004 92.0397 27.8882C91.9459 27.7759 91.8339 27.6886 91.7037 27.6262C91.5763 27.5639 91.4405 27.5327 91.2949 27.5327C91.1493 27.5327 91.0108 27.5639 90.8806 27.6262C90.7532 27.6886 90.6426 27.7759 90.5502 27.8882C90.4564 28.0004 90.3822 28.1345 90.3262 28.2873C90.2702 28.4369 90.2422 28.5991 90.2422 28.7737C90.2422 28.9483 90.2674 29.1135 90.3206 29.2663C90.3766 29.416 90.4508 29.5501 90.5446 29.6654C90.637 29.7777 90.749 29.865 90.8806 29.9274C91.0108 29.9897 91.1493 30.0209 91.2949 30.0209Z" fill="#D9C7FC"/>
<path d="M94.1482 30.3825H93.7338L92.9219 27.1709H93.3418L93.9634 29.7339L94.6857 27.1709H95.0665L95.7776 29.7339L96.4048 27.1709H96.8079L95.9904 30.3825H95.5816L94.8705 27.8132L94.1482 30.3825Z" fill="#D9C7FC"/>
<path d="M97.1368 29.1416L97.0864 25.7866H97.5285L97.4781 29.1416H97.1368ZM97.3102 30.42C97.2277 30.42 97.1564 30.3888 97.0976 30.3264C97.0416 30.261 97.0137 30.183 97.0137 30.0957C97.0137 30.0053 97.0416 29.9273 97.0976 29.865C97.1564 29.7995 97.2277 29.7652 97.3102 29.7652C97.3886 29.7652 97.4557 29.7995 97.5117 29.865C97.5704 29.9273 97.6012 30.0053 97.6012 30.0957C97.6012 30.183 97.5704 30.261 97.5117 30.3264C97.4557 30.3888 97.3886 30.42 97.3102 30.42Z" fill="#D9C7FC"/>
<path d="M56.429 10.7153L49.1992 21.4306H60.7724H72.3182L71.2461 19.5018L70.1465 17.6037L63.5489 17.5119C59.8928 17.4812 56.9239 17.3894 56.9239 17.3282C56.9239 17.2669 59.398 13.5625 62.4218 9.12331C65.4457 4.71473 67.9198 0.979685 67.9198 0.887838C67.9198 0.612303 67.0401 0.397997 65.1708 0.183691L63.6589 0L56.429 10.7153Z" fill="#D9C7FC"/>
<path d="M71.8508 3.03082L70.2564 5.44942L69.4867 3.91866C68.6345 2.20421 68.552 2.23483 67.15 4.37789L66.2979 5.72496L68.9644 10.9908L71.6309 16.226H73.5002C74.5173 16.226 75.342 16.1341 75.342 16.0423C75.342 15.9504 74.5998 14.3278 73.6926 12.4603C72.7855 10.5928 72.0707 8.90893 72.1532 8.72524C72.2082 8.57217 72.9229 7.4394 73.7476 6.24541L75.2046 4.07174L78.2284 10.1335L81.2523 16.1953L83.2591 16.226H85.2658L83.8913 13.3787C83.1216 11.848 81.4173 8.35786 80.0978 5.66373L77.6786 0.765302L75.5619 0.673456L73.4452 0.581611L71.8508 3.03082Z" fill="#D9C7FC"/>
<path d="M81.9671 2.44913L80.8125 4.25543L81.4997 5.78619C81.8846 6.61279 82.297 7.37817 82.4069 7.4394C82.5444 7.53125 83.1216 6.85772 83.6989 5.93926C84.3037 5.02081 84.8535 4.28604 84.936 4.28604C85.0184 4.31666 86.4479 6.98018 88.0698 10.256L91.0662 16.226H92.9905C94.0351 16.226 94.8598 16.1035 94.8048 15.9504C94.7773 15.7973 93.0455 12.2766 91.0112 8.14355L87.3001 0.612225H85.2109H83.1216L81.9671 2.44913Z" fill="#D9C7FC"/>
<path d="M72.5928 17.726C72.5928 17.8791 73.0051 18.767 73.4999 19.716L74.3796 21.4305H81.1971H88.0421L87.2723 19.9916C86.86 19.165 86.3927 18.2771 86.2277 17.971C85.9528 17.5117 85.3206 17.4505 79.2728 17.4505C75.3967 17.4505 72.5928 17.573 72.5928 17.726Z" fill="#D9C7FC"/>
<path d="M91.8359 17.6342C91.8359 17.7567 92.2758 18.6445 92.8256 19.6242L93.7877 21.4305H95.5746C96.5917 21.4305 97.3339 21.308 97.3339 21.1243C97.3339 20.9406 96.949 20.0528 96.4817 19.1343L95.6295 17.4505H93.7327C92.6881 17.4505 91.8359 17.5424 91.8359 17.6342Z" fill="#D9C7FC"/>
</svg>
