<svg width="30" height="37" viewBox="0 0 30 37" fill="none" xmlns="http://www.w3.org/2000/svg">
<path d="M24.5519 19.3016C24.5139 14.7641 28.2728 12.5525 28.4478 12.4536C26.3172 9.35269 23.0148 8.92707 21.8506 8.89667C19.0733 8.6079 16.3872 10.5536 14.9719 10.5536C13.5337 10.5536 11.3574 8.92707 9.0062 8.97272C5.98529 9.01828 3.16227 10.7664 1.6176 13.4721C-1.5783 18.9976 0.803428 27.1146 3.86995 31.5836C5.39935 33.7725 7.1876 36.2123 9.53126 36.1286C11.8216 36.0374 12.6815 34.6693 15.4436 34.6693C18.183 34.6693 18.9895 36.1286 21.3789 36.0754C23.8366 36.0374 25.3889 33.8789 26.8651 31.6749C28.6381 29.1668 29.3458 26.6966 29.3762 26.575C29.3153 26.537 24.5976 24.7358 24.5519 19.3016ZM20.0396 5.95536C21.2723 4.41251 22.1169 2.32243 21.881 0.194336C20.1005 0.270298 17.8633 1.42555 16.585 2.93046C15.4512 4.2605 14.4316 6.43416 14.6979 8.47867C16.6915 8.62306 18.7536 7.46781 20.0396 5.95536Z" fill="#F3EDFE"/>
</svg>
