<svg width="296" height="65" viewBox="0 0 296 65" fill="none" xmlns="http://www.w3.org/2000/svg">
<path d="M22.1651 64.7623V41.6111L0 4.27417H12.9325L28.1391 30.5462L43.4137 4.27417H55.6503L33.4003 41.6868V64.7623H22.1651Z" fill="#C7ACFA"/>
<path d="M58.0625 64.7613V4.27319H69.2978V53.6964H98.9983V64.7613H58.0625Z" fill="#C7ACFA"/>
<path d="M104.731 64.7613V4.27319H115.966V53.6964H145.667V64.7613H104.731Z" fill="#C7ACFA"/>
<path d="M171.034 32.5L149.121 65H184.199H219.193L215.944 59.15L212.611 53.3929L192.614 53.1143C181.533 53.0214 172.534 52.7429 172.534 52.5571C172.534 52.3714 180.033 41.1357 189.198 27.6714C198.363 14.3 205.862 2.97143 205.862 2.69286C205.862 1.85714 203.196 1.20714 197.53 0.557144L192.947 0L171.034 32.5Z" fill="#C7ACFA"/>
<path d="M217.778 9.19293L212.945 16.5286L210.612 11.8858C208.029 6.68579 207.78 6.77864 203.53 13.2786L200.947 17.3644L209.029 33.3358L217.111 49.2144H222.777C225.86 49.2144 228.36 48.9358 228.36 48.6572C228.36 48.3786 226.11 43.4572 223.36 37.7929C220.611 32.1286 218.444 27.0215 218.694 26.4644C218.861 26.0001 221.027 22.5644 223.527 18.9429L227.943 12.3501L237.108 30.7358L246.273 49.1215L252.356 49.2144H258.438L254.272 40.5786C251.939 35.9358 246.773 25.3501 242.774 17.1786L235.442 2.3215L229.026 2.04293L222.61 1.76436L217.778 9.19293Z" fill="#C7ACFA"/>
<path d="M248.44 7.42864L244.94 12.9072L247.023 17.5501C248.19 20.0572 249.44 22.3786 249.773 22.5644C250.19 22.8429 251.939 20.8001 253.689 18.0144C255.522 15.2286 257.188 13.0001 257.438 13.0001C257.688 13.0929 262.021 21.1715 266.937 31.1072L276.019 49.2144H281.851C285.017 49.2144 287.517 48.8429 287.35 48.3786C287.267 47.9144 282.018 37.2358 275.852 24.7001L264.604 1.85722H258.272H251.939L248.44 7.42864Z" fill="#C7ACFA"/>
<path d="M220.026 53.7643C220.026 54.2286 221.276 56.9214 222.776 59.8L225.442 65H246.106H266.852L264.519 60.6357C263.269 58.1286 261.853 55.4357 261.353 54.5071C260.52 53.1143 258.604 52.9286 240.273 52.9286C228.525 52.9286 220.026 53.3 220.026 53.7643Z" fill="#C7ACFA"/>
<path d="M278.351 53.4857C278.351 53.8571 279.684 56.55 281.351 59.5214L284.267 65H289.683C292.765 65 295.015 64.6286 295.015 64.0714C295.015 63.5143 293.849 60.8214 292.432 58.0357L289.849 52.9286H284.1C280.934 52.9286 278.351 53.2071 278.351 53.4857Z" fill="#C7ACFA"/>
</svg>
