<svg width="20" height="20" viewBox="0 0 20 20" fill="none" xmlns="http://www.w3.org/2000/svg">
<path fill-rule="evenodd" clip-rule="evenodd" d="M10 0C4.47715 0 0 4.47715 0 10C0 15.5228 4.47715 20 10 20C15.5228 20 20 15.5228 20 10C20 4.47715 15.5228 0 10 0ZM9.55878 6.32207C9.3157 6.07855 9.31587 5.68413 9.55918 5.44082C9.80264 5.19736 10.1974 5.19736 10.4408 5.44082L14.2929 9.29289C14.6834 9.68342 14.6834 10.3166 14.2929 10.7071L10.4408 14.5592C10.1974 14.8026 9.80264 14.8026 9.55918 14.5592C9.31587 14.3159 9.3157 13.9215 9.55878 13.6779L12.6062 10.625H5.625C5.27982 10.625 5 10.3452 5 10C5 9.65482 5.27982 9.375 5.625 9.375H12.6062L9.55878 6.32207Z" fill="#4A2986"/>
</svg>
