<svg width="20" height="15" viewBox="0 0 20 15" fill="none" xmlns="http://www.w3.org/2000/svg">
<path d="M19.3818 10.9917C19.6727 10.9917 19.9273 10.7397 19.9273 10.4518V1.20246C19.9273 1.20246 19.9273 1.20246 19.9273 1.16647C19.9273 1.13048 19.9273 1.13049 19.9273 1.0945V1.02252C19.9273 1.02252 19.9273 0.986526 19.8909 0.986526C19.8909 0.986526 19.8909 0.950536 19.8545 0.950536L19.8182 0.914547C19.8182 0.914547 19.8182 0.914547 19.8182 0.878557L19.7091 0.770587C19.7091 0.770587 19.6727 0.770588 19.6727 0.734598C19.6727 0.734598 19.6364 0.734598 19.6364 0.698608H19.6C19.6 0.698608 19.5636 0.698608 19.5273 0.698608H19.4909C19.4909 0.698608 19.4909 0.698608 19.4545 0.698608H0.472727C0.472727 0.698608 0.472727 0.698608 0.436363 0.698608C0.4 0.698608 0.4 0.698608 0.363636 0.698608H0.327273C0.290909 0.698608 0.290909 0.698608 0.290909 0.698608C0.290909 0.698608 0.254545 0.698609 0.254545 0.734598C0.254545 0.734598 0.218181 0.734598 0.218181 0.770587C0.218181 0.770587 0.181818 0.770588 0.181818 0.806577L0.109091 0.878557C0.109091 0.878557 0.109091 0.878557 0.109091 0.914547L0.0727269 0.950536C0.0727269 0.950536 0.0727267 0.986526 0.0363631 0.986526C0.0363631 0.986526 0.0363636 1.02252 0 1.02252V1.0945C0 1.13049 0 1.13048 0 1.16647C0 1.16647 0 1.16647 0 1.20246V14.1588C0 14.4467 0.254545 14.6986 0.545455 14.6986H19.4545C19.7455 14.6986 20 14.4467 20 14.1588C20 13.8708 19.7455 13.6189 19.4545 13.6189H1.01818V2.35414L9.56364 9.33614C9.6 9.37213 9.67273 9.40812 9.70909 9.40812H9.74545C9.78182 9.40812 9.85455 9.44411 9.89091 9.44411C9.92727 9.44411 10 9.44411 10.0364 9.40812H10.0727C10.1091 9.37213 10.1818 9.37213 10.2182 9.33614L18.7636 2.35414V10.4518C18.8364 10.7397 19.0909 10.9917 19.3818 10.9917ZM9.92727 8.22046L2 1.74231H17.8545L9.92727 8.22046Z" fill="#D9C7FC"/>
</svg>
