<svg width="20" height="17" viewBox="0 0 20 17" fill="none" xmlns="http://www.w3.org/2000/svg">
<path d="M4.81132 16.6986C4.90566 16.6986 5 16.6646 5.09434 16.5967L9.43396 12.9958C9.55975 12.9958 9.65409 12.9958 9.74843 12.9958C9.81132 12.9958 9.90566 12.9958 10 12.9958C15.5975 12.9958 20 10.2782 20 6.84723C20 3.38226 15.5975 0.698608 10 0.698608C4.40252 0.698608 0 3.41623 0 6.84723C0 7.39075 0.0943394 7.93428 0.283018 8.44383C0.377357 8.71559 0.660378 8.8175 0.911949 8.71559C1.16352 8.61368 1.25786 8.30795 1.16352 8.03619C1.00629 7.62854 0.943396 7.2209 0.943396 6.81326C0.943396 4.02769 5.09434 1.68375 10 1.68375C14.9057 1.68375 19.0566 4.02769 19.0566 6.81326C19.0566 9.59882 14.9057 11.9428 10 11.9428C9.90566 11.9428 9.81132 11.9428 9.71698 11.9428C9.59119 11.9428 9.46541 11.9428 9.27673 11.9428C9.15094 11.9428 9.0566 11.9767 8.96226 12.0447L5.37736 15.0341L5.75472 11.8748C5.78616 11.637 5.62893 11.3992 5.40881 11.3313C4.71698 11.1275 4.0566 10.8557 3.49056 10.516C3.27044 10.3801 2.98742 10.482 2.86163 10.7198C2.73585 10.9576 2.83019 11.2634 3.05032 11.3992C3.55346 11.705 4.1195 11.9428 4.74843 12.1466L4.33962 16.1211C4.30818 16.3249 4.40252 16.5288 4.55975 16.6307C4.65409 16.6986 4.74843 16.6986 4.81132 16.6986Z" fill="#D9C7FC"/>
</svg>
