<svg width="11" height="8" viewBox="0 0 11 8" fill="none" xmlns="http://www.w3.org/2000/svg">
<path d="M10.5641 7.3888C10.9294 7.18064 11.0918 6.71127 10.9479 6.28679C10.8925 6.12353 10.5494 5.72354 8.46096 3.40932C7.09205 1.891 5.96667 0.674709 5.87443 0.613486C5.6678 0.474714 5.3062 0.46247 5.09958 0.580834C5.02947 0.621649 3.87826 1.85835 2.54625 3.33585C0.764095 5.30314 0.103626 6.05822 0.0593489 6.17659C0.026141 6.26638 -0.00337711 6.44189 0.000312656 6.56841C0.000312644 7.05819 0.321322 7.42145 0.760405 7.43369C1.15521 7.44186 1.07404 7.51532 3.358 4.99703L5.46855 2.66649L7.58279 5.00111C9.19153 6.78473 9.73393 7.35615 9.85938 7.41737C10.0955 7.53573 10.3243 7.52757 10.5641 7.3888Z" fill="#2A0468"/>
</svg>
