<svg width="675" height="258" viewBox="0 0 675 258" fill="none" xmlns="http://www.w3.org/2000/svg">
<mask id="mask0_153_2358" style="mask-type:alpha" maskUnits="userSpaceOnUse" x="0" y="0" width="669" height="258">
<path d="M0 208.736V167.256L103.941 3.40594H139.682V60.8204H118.529L53.0039 164.58V166.526H200.71V208.736H0ZM119.502 252.526V196.085L120.474 177.717V3.40594H169.831V252.526H119.502Z" fill="#2862FF"/>
<path d="M333.402 258C312.492 257.919 294.5 252.769 279.425 242.552C264.432 232.334 252.883 217.534 244.778 198.153C236.755 178.771 232.784 155.457 232.865 128.209C232.865 101.043 236.876 77.8906 244.9 58.7525C253.005 39.6143 264.554 25.058 279.547 15.0835C294.622 5.02782 312.573 0 333.402 0C354.231 0 372.142 5.02782 387.135 15.0835C402.21 25.1391 413.799 39.736 421.904 58.8741C430.008 77.9312 434.02 101.043 433.939 128.209C433.939 155.538 429.887 178.893 421.782 198.274C413.759 217.656 402.25 232.455 387.257 242.673C372.263 252.891 354.312 258 333.402 258ZM333.402 214.331C347.666 214.331 359.053 207.154 367.563 192.801C376.073 178.447 380.287 156.917 380.206 128.209C380.206 109.314 378.261 93.5823 374.371 81.0127C370.561 68.4432 365.131 58.9958 358.08 52.6704C351.11 46.3451 342.884 43.1825 333.402 43.1825C319.219 43.1825 307.872 50.2782 299.363 64.4696C290.853 78.661 286.557 99.9076 286.476 128.209C286.476 147.347 288.381 163.323 292.19 176.136C296.08 188.868 301.551 198.437 308.602 204.843C315.653 211.168 323.92 214.331 333.402 214.331Z" fill="#2862FF"/>
<path d="M467.705 208.736V167.256L571.646 3.40594H607.387V60.8204H586.234L520.709 164.58V166.526H668.415V208.736H467.705ZM587.207 252.526V196.085L588.179 177.717V3.40594H637.536V252.526H587.207Z" fill="#2862FF"/>
</mask>
<g mask="url(#mask0_153_2358)">
<rect y="204.757" width="668.415" height="53.2433" fill="#9E6EF6"/>
</g>
<mask id="mask1_153_2358" style="mask-type:alpha" maskUnits="userSpaceOnUse" x="0" y="0" width="669" height="258">
<path d="M0 208.736V167.256L103.941 3.40594H139.682V60.8204H118.529L53.0039 164.58V166.526H200.71V208.736H0ZM119.502 252.526V196.085L120.475 177.717V3.40594H169.831V252.526H119.502Z" fill="#2862FF"/>
<path d="M333.402 258C312.492 257.919 294.5 252.769 279.425 242.552C264.432 232.334 252.883 217.534 244.778 198.153C236.755 178.771 232.784 155.457 232.865 128.209C232.865 101.043 236.876 77.8906 244.9 58.7525C253.005 39.6143 264.554 25.058 279.547 15.0835C294.622 5.02782 312.573 0 333.402 0C354.231 0 372.142 5.02782 387.135 15.0835C402.21 25.1391 413.799 39.736 421.904 58.8741C430.008 77.9312 434.02 101.043 433.939 128.209C433.939 155.538 429.887 178.893 421.782 198.274C413.759 217.656 402.25 232.455 387.257 242.673C372.263 252.891 354.312 258 333.402 258ZM333.402 214.331C347.666 214.331 359.053 207.154 367.563 192.801C376.073 178.447 380.287 156.917 380.206 128.209C380.206 109.314 378.261 93.5823 374.371 81.0127C370.561 68.4432 365.131 58.9957 358.08 52.6704C351.11 46.3451 342.884 43.1825 333.402 43.1825C319.219 43.1825 307.873 50.2782 299.363 64.4696C290.853 78.661 286.557 99.9076 286.476 128.209C286.476 147.347 288.381 163.323 292.19 176.136C296.08 188.868 301.551 198.437 308.602 204.843C315.653 211.168 323.92 214.331 333.402 214.331Z" fill="#2862FF"/>
<path d="M467.705 208.736V167.256L571.646 3.40594H607.387V60.8204H586.234L520.709 164.58V166.526H668.415V208.736H467.705ZM587.207 252.526V196.085L588.179 177.717V3.40594H637.536V252.526H587.207Z" fill="#2862FF"/>
</mask>
<g mask="url(#mask1_153_2358)">
<rect y="153.485" width="668.415" height="51.6" fill="#9E6EF6"/>
</g>
<mask id="mask2_153_2358" style="mask-type:alpha" maskUnits="userSpaceOnUse" x="0" y="0" width="669" height="258">
<path d="M0 208.736V167.256L103.941 3.40594H139.682V60.8204H118.529L53.0039 164.58V166.526H200.71V208.736H0ZM119.502 252.526V196.085L120.475 177.717V3.40594H169.831V252.526H119.502Z" fill="#2862FF"/>
<path d="M333.402 258C312.492 257.919 294.5 252.769 279.425 242.552C264.432 232.334 252.883 217.534 244.778 198.153C236.755 178.771 232.784 155.457 232.865 128.209C232.865 101.043 236.876 77.8906 244.9 58.7525C253.005 39.6143 264.554 25.058 279.547 15.0835C294.622 5.02782 312.573 0 333.402 0C354.231 0 372.142 5.02782 387.135 15.0835C402.21 25.1391 413.799 39.736 421.904 58.8741C430.008 77.9312 434.02 101.043 433.939 128.209C433.939 155.538 429.887 178.893 421.782 198.274C413.759 217.656 402.25 232.455 387.257 242.673C372.263 252.891 354.312 258 333.402 258ZM333.402 214.331C347.666 214.331 359.053 207.154 367.563 192.801C376.073 178.447 380.287 156.917 380.206 128.209C380.206 109.314 378.261 93.5823 374.371 81.0127C370.561 68.4432 365.131 58.9957 358.08 52.6704C351.11 46.3451 342.884 43.1825 333.402 43.1825C319.219 43.1825 307.872 50.2782 299.363 64.4696C290.853 78.661 286.557 99.9076 286.476 128.209C286.476 147.347 288.381 163.323 292.19 176.136C296.08 188.868 301.551 198.437 308.602 204.843C315.653 211.168 323.92 214.331 333.402 214.331Z" fill="#2862FF"/>
<path d="M467.705 208.736V167.256L571.646 3.40594H607.387V60.8204H586.234L520.709 164.58V166.526H668.415V208.736H467.705ZM587.207 252.526V196.085L588.179 177.717V3.40594H637.536V252.526H587.207Z" fill="#2862FF"/>
</mask>
<g mask="url(#mask2_153_2358)">
<rect y="101.885" width="668.415" height="51.6" fill="#9E6EF6"/>
</g>
<mask id="mask3_153_2358" style="mask-type:alpha" maskUnits="userSpaceOnUse" x="0" y="0" width="669" height="258">
<path d="M0 208.736V167.256L103.941 3.40594H139.682V60.8204H118.529L53.0039 164.58V166.526H200.71V208.736H0ZM119.502 252.526V196.085L120.475 177.717V3.40594H169.831V252.526H119.502Z" fill="#2862FF"/>
<path d="M333.402 258C312.492 257.919 294.5 252.769 279.425 242.552C264.432 232.334 252.883 217.534 244.778 198.153C236.755 178.771 232.784 155.457 232.865 128.209C232.865 101.043 236.876 77.8906 244.9 58.7525C253.005 39.6143 264.554 25.058 279.547 15.0835C294.622 5.02782 312.573 0 333.402 0C354.231 0 372.142 5.02782 387.135 15.0835C402.21 25.1391 413.799 39.736 421.904 58.8741C430.008 77.9312 434.02 101.043 433.939 128.209C433.939 155.538 429.887 178.893 421.782 198.274C413.759 217.656 402.25 232.455 387.257 242.673C372.263 252.891 354.312 258 333.402 258ZM333.402 214.331C347.666 214.331 359.053 207.154 367.563 192.801C376.073 178.447 380.287 156.917 380.206 128.209C380.206 109.314 378.261 93.5823 374.371 81.0127C370.561 68.4432 365.131 58.9957 358.08 52.6704C351.11 46.3451 342.884 43.1825 333.402 43.1825C319.219 43.1825 307.872 50.2782 299.363 64.4696C290.853 78.661 286.557 99.9076 286.476 128.209C286.476 147.347 288.381 163.323 292.19 176.136C296.08 188.868 301.551 198.437 308.602 204.843C315.653 211.168 323.92 214.331 333.402 214.331Z" fill="#2862FF"/>
<path d="M467.705 208.736V167.256L571.646 3.40594H607.387V60.8204H586.234L520.709 164.58V166.526H668.415V208.736H467.705ZM587.207 252.526V196.085L588.179 177.717V3.40594H637.536V252.526H587.207Z" fill="#2862FF"/>
</mask>
<g mask="url(#mask3_153_2358)">
<rect y="50.2854" width="668.415" height="51.6" fill="#9E6EF6"/>
</g>
<mask id="mask4_153_2358" style="mask-type:alpha" maskUnits="userSpaceOnUse" x="0" y="0" width="669" height="258">
<path d="M0 208.736V167.256L103.941 3.40594H139.682V60.8204H118.529L53.0039 164.58V166.526H200.71V208.736H0ZM119.502 252.526V196.085L120.475 177.717V3.40594H169.831V252.526H119.502Z" fill="#2862FF"/>
<path d="M333.402 258C312.492 257.919 294.5 252.769 279.425 242.552C264.432 232.334 252.883 217.534 244.778 198.153C236.755 178.771 232.784 155.457 232.865 128.209C232.865 101.043 236.876 77.8906 244.9 58.7525C253.005 39.6143 264.554 25.058 279.547 15.0835C294.622 5.02782 312.573 0 333.402 0C354.231 0 372.142 5.02782 387.135 15.0835C402.21 25.1391 413.799 39.736 421.904 58.8741C430.008 77.9312 434.02 101.043 433.939 128.209C433.939 155.538 429.887 178.893 421.782 198.274C413.759 217.656 402.25 232.455 387.257 242.673C372.263 252.891 354.312 258 333.402 258ZM333.402 214.331C347.666 214.331 359.053 207.154 367.563 192.801C376.073 178.447 380.287 156.917 380.206 128.209C380.206 109.314 378.261 93.5823 374.371 81.0127C370.561 68.4432 365.131 58.9957 358.08 52.6704C351.11 46.3451 342.884 43.1825 333.402 43.1825C319.219 43.1825 307.872 50.2782 299.363 64.4696C290.853 78.661 286.557 99.9076 286.476 128.209C286.476 147.347 288.381 163.323 292.19 176.136C296.08 188.868 301.551 198.437 308.602 204.843C315.653 211.168 323.92 214.331 333.402 214.331Z" fill="#2862FF"/>
<path d="M467.705 208.736V167.256L571.646 3.40594H607.387V60.8204H586.234L520.709 164.58V166.526H668.415V208.736H467.705ZM587.207 252.526V196.085L588.179 177.717V3.40594H637.536V252.526H587.207Z" fill="#2862FF"/>
</mask>
<g mask="url(#mask4_153_2358)">
<rect width="668.415" height="51.6" fill="#9E6EF6"/>
</g>
<mask id="mask5_153_2358" style="mask-type:alpha" maskUnits="userSpaceOnUse" x="6" y="0" width="669" height="258">
<path d="M6.58496 208.736V167.256L110.526 3.40594H146.267V60.8204H125.114L59.5889 164.58V166.526H207.295V208.736H6.58496ZM126.087 252.526V196.085L127.059 177.717V3.40594H176.416V252.526H126.087Z" fill="#2862FF"/>
<path d="M339.987 258C319.077 257.919 301.085 252.769 286.01 242.552C271.017 232.334 259.468 217.534 251.363 198.153C243.34 178.771 239.369 155.457 239.45 128.209C239.45 101.043 243.461 77.8906 251.485 58.7525C259.589 39.6143 271.139 25.058 286.132 15.0835C301.206 5.02782 319.158 0 339.987 0C360.816 0 378.727 5.02782 393.72 15.0835C408.795 25.1391 420.384 39.736 428.489 58.8741C436.593 77.9312 440.605 101.043 440.524 128.209C440.524 155.538 436.472 178.893 428.367 198.274C420.344 217.656 408.835 232.455 393.842 242.673C378.848 252.891 360.897 258 339.987 258ZM339.987 214.331C354.251 214.331 365.638 207.154 374.148 192.801C382.657 178.447 386.872 156.917 386.791 128.209C386.791 109.314 384.846 93.5823 380.955 81.0127C377.146 68.4432 371.716 58.9958 364.665 52.6704C357.695 46.3451 349.469 43.1825 339.987 43.1825C325.804 43.1825 314.457 50.2782 305.948 64.4696C297.438 78.661 293.142 99.9076 293.061 128.209C293.061 147.347 294.966 163.323 298.775 176.136C302.665 188.868 308.136 198.437 315.187 204.843C322.238 211.168 330.505 214.331 339.987 214.331Z" fill="#2862FF"/>
<path d="M474.29 208.736V167.256L578.231 3.40594H613.972V60.8204H592.819L527.294 164.58V166.526H675V208.736H474.29ZM593.792 252.526V196.085L594.764 177.717V3.40594H644.121V252.526H593.792Z" fill="#2862FF"/>
</mask>
<g mask="url(#mask5_153_2358)">
<rect x="6.58496" y="204.757" width="668.415" height="53.2433" fill="#5F35AD"/>
</g>
<mask id="mask6_153_2358" style="mask-type:alpha" maskUnits="userSpaceOnUse" x="6" y="0" width="669" height="258">
<path d="M6.58496 208.736V167.256L110.526 3.40594H146.267V60.8204H125.114L59.5889 164.58V166.526H207.295V208.736H6.58496ZM126.087 252.526V196.085L127.059 177.717V3.40594H176.416V252.526H126.087Z" fill="#2862FF"/>
<path d="M339.987 258C319.077 257.919 301.085 252.769 286.01 242.552C271.017 232.334 259.468 217.534 251.363 198.153C243.34 178.771 239.369 155.457 239.45 128.209C239.45 101.043 243.461 77.8906 251.485 58.7525C259.59 39.6143 271.139 25.058 286.132 15.0835C301.207 5.02782 319.158 0 339.987 0C360.816 0 378.727 5.02782 393.72 15.0835C408.795 25.1391 420.384 39.736 428.489 58.8741C436.593 77.9312 440.605 101.043 440.524 128.209C440.524 155.538 436.472 178.893 428.367 198.274C420.344 217.656 408.835 232.455 393.842 242.673C378.848 252.891 360.897 258 339.987 258ZM339.987 214.331C354.251 214.331 365.638 207.154 374.148 192.801C382.658 178.447 386.872 156.917 386.791 128.209C386.791 109.314 384.846 93.5823 380.956 81.0127C377.146 68.4432 371.716 58.9957 364.665 52.6704C357.695 46.3451 349.469 43.1825 339.987 43.1825C325.804 43.1825 314.457 50.2782 305.948 64.4696C297.438 78.661 293.142 99.9076 293.061 128.209C293.061 147.347 294.966 163.323 298.775 176.136C302.665 188.868 308.136 198.437 315.187 204.843C322.238 211.168 330.505 214.331 339.987 214.331Z" fill="#2862FF"/>
<path d="M474.29 208.736V167.256L578.231 3.40594H613.972V60.8204H592.819L527.294 164.58V166.526H675V208.736H474.29ZM593.792 252.526V196.085L594.764 177.717V3.40594H644.121V252.526H593.792Z" fill="#2862FF"/>
</mask>
<g mask="url(#mask6_153_2358)">
<rect x="6.58496" y="153.485" width="668.415" height="51.6" fill="#5F35AD"/>
</g>
<mask id="mask7_153_2358" style="mask-type:alpha" maskUnits="userSpaceOnUse" x="6" y="0" width="669" height="258">
<path d="M6.58496 208.736V167.256L110.526 3.40594H146.267V60.8204H125.114L59.5889 164.58V166.526H207.295V208.736H6.58496ZM126.087 252.526V196.085L127.059 177.717V3.40594H176.416V252.526H126.087Z" fill="#2862FF"/>
<path d="M339.987 258C319.077 257.919 301.085 252.769 286.01 242.552C271.017 232.334 259.468 217.534 251.363 198.153C243.34 178.771 239.369 155.457 239.45 128.209C239.45 101.043 243.461 77.8906 251.485 58.7525C259.589 39.6143 271.139 25.058 286.132 15.0835C301.207 5.02782 319.158 0 339.987 0C360.816 0 378.727 5.02782 393.72 15.0835C408.795 25.1391 420.384 39.736 428.489 58.8741C436.593 77.9312 440.605 101.043 440.524 128.209C440.524 155.538 436.472 178.893 428.367 198.274C420.344 217.656 408.835 232.455 393.842 242.673C378.848 252.891 360.897 258 339.987 258ZM339.987 214.331C354.251 214.331 365.638 207.154 374.148 192.801C382.658 178.447 386.872 156.917 386.791 128.209C386.791 109.314 384.846 93.5823 380.956 81.0127C377.146 68.4432 371.716 58.9957 364.665 52.6704C357.695 46.3451 349.469 43.1825 339.987 43.1825C325.804 43.1825 314.457 50.2782 305.948 64.4696C297.438 78.661 293.142 99.9076 293.061 128.209C293.061 147.347 294.966 163.323 298.775 176.136C302.665 188.868 308.136 198.437 315.187 204.843C322.238 211.168 330.505 214.331 339.987 214.331Z" fill="#2862FF"/>
<path d="M474.29 208.736V167.256L578.231 3.40594H613.972V60.8204H592.819L527.294 164.58V166.526H675V208.736H474.29ZM593.792 252.526V196.085L594.764 177.717V3.40594H644.121V252.526H593.792Z" fill="#2862FF"/>
</mask>
<g mask="url(#mask7_153_2358)">
<rect x="6.58496" y="101.885" width="668.415" height="51.6" fill="#5F35AD"/>
</g>
<mask id="mask8_153_2358" style="mask-type:alpha" maskUnits="userSpaceOnUse" x="6" y="0" width="669" height="258">
<path d="M6.58496 208.736V167.256L110.526 3.40594H146.267V60.8204H125.114L59.5889 164.58V166.526H207.295V208.736H6.58496ZM126.087 252.526V196.085L127.059 177.717V3.40594H176.416V252.526H126.087Z" fill="#2862FF"/>
<path d="M339.987 258C319.077 257.919 301.085 252.769 286.01 242.552C271.017 232.334 259.468 217.534 251.363 198.153C243.34 178.771 239.369 155.457 239.45 128.209C239.45 101.043 243.461 77.8906 251.485 58.7525C259.589 39.6143 271.139 25.058 286.132 15.0835C301.207 5.02782 319.158 0 339.987 0C360.816 0 378.727 5.02782 393.72 15.0835C408.795 25.1391 420.384 39.736 428.489 58.8741C436.593 77.9312 440.605 101.043 440.524 128.209C440.524 155.538 436.472 178.893 428.367 198.274C420.344 217.656 408.835 232.455 393.842 242.673C378.848 252.891 360.897 258 339.987 258ZM339.987 214.331C354.251 214.331 365.638 207.154 374.148 192.801C382.658 178.447 386.872 156.917 386.791 128.209C386.791 109.314 384.846 93.5823 380.956 81.0127C377.146 68.4432 371.716 58.9957 364.665 52.6704C357.695 46.3451 349.469 43.1825 339.987 43.1825C325.804 43.1825 314.457 50.2782 305.948 64.4696C297.438 78.661 293.142 99.9076 293.061 128.209C293.061 147.347 294.966 163.323 298.775 176.136C302.665 188.868 308.136 198.437 315.187 204.843C322.238 211.168 330.505 214.331 339.987 214.331Z" fill="#2862FF"/>
<path d="M474.29 208.736V167.256L578.231 3.40594H613.972V60.8204H592.819L527.294 164.58V166.526H675V208.736H474.29ZM593.792 252.526V196.085L594.764 177.717V3.40594H644.121V252.526H593.792Z" fill="#2862FF"/>
</mask>
<g mask="url(#mask8_153_2358)">
<rect x="6.58496" y="50.2854" width="668.415" height="51.6" fill="#5F35AD"/>
</g>
<mask id="mask9_153_2358" style="mask-type:alpha" maskUnits="userSpaceOnUse" x="6" y="0" width="669" height="258">
<path d="M6.58496 208.736V167.256L110.526 3.40594H146.267V60.8204H125.114L59.5889 164.58V166.526H207.295V208.736H6.58496ZM126.087 252.526V196.085L127.059 177.717V3.40594H176.416V252.526H126.087Z" fill="#2862FF"/>
<path d="M339.987 258C319.077 257.919 301.085 252.769 286.01 242.552C271.017 232.334 259.468 217.534 251.363 198.153C243.34 178.771 239.369 155.457 239.45 128.209C239.45 101.043 243.461 77.8906 251.485 58.7525C259.589 39.6143 271.139 25.058 286.132 15.0835C301.207 5.02782 319.158 0 339.987 0C360.816 0 378.727 5.02782 393.72 15.0835C408.795 25.1391 420.384 39.736 428.489 58.8741C436.593 77.9312 440.605 101.043 440.524 128.209C440.524 155.538 436.472 178.893 428.367 198.274C420.344 217.656 408.835 232.455 393.842 242.673C378.848 252.891 360.897 258 339.987 258ZM339.987 214.331C354.251 214.331 365.638 207.154 374.148 192.801C382.658 178.447 386.872 156.917 386.791 128.209C386.791 109.314 384.846 93.5823 380.956 81.0127C377.146 68.4432 371.716 58.9957 364.665 52.6704C357.695 46.3451 349.469 43.1825 339.987 43.1825C325.804 43.1825 314.457 50.2782 305.948 64.4696C297.438 78.661 293.142 99.9076 293.061 128.209C293.061 147.347 294.966 163.323 298.775 176.136C302.665 188.868 308.136 198.437 315.187 204.843C322.238 211.168 330.505 214.331 339.987 214.331Z" fill="#2862FF"/>
<path d="M474.29 208.736V167.256L578.231 3.40594H613.972V60.8204H592.819L527.294 164.58V166.526H675V208.736H474.29ZM593.792 252.526V196.085L594.764 177.717V3.40594H644.121V252.526H593.792Z" fill="#2862FF"/>
</mask>
<g mask="url(#mask9_153_2358)">
<rect x="6.58496" width="668.415" height="51.6" fill="#5F35AD"/>
</g>
<mask id="mask10_153_2358" style="mask-type:alpha" maskUnits="userSpaceOnUse" x="3" y="0" width="669" height="258">
<path d="M3.29297 208.736V167.256L107.234 3.40594H142.975V60.8204H121.822L56.2969 164.58V166.526H204.003V208.736H3.29297ZM122.795 252.526V196.085L123.767 177.717V3.40594H173.124V252.526H122.795Z" fill="#2862FF"/>
<path d="M336.695 258C315.785 257.919 297.793 252.769 282.718 242.552C267.725 232.334 256.176 217.534 248.071 198.153C240.048 178.771 236.077 155.457 236.158 128.209C236.158 101.043 240.169 77.8906 248.193 58.7525C256.298 39.6143 267.847 25.058 282.84 15.0835C297.915 5.02782 315.866 0 336.695 0C357.524 0 375.435 5.02782 390.428 15.0835C405.503 25.1391 417.092 39.736 425.197 58.8741C433.301 77.9312 437.313 101.043 437.232 128.209C437.232 155.538 433.18 178.893 425.075 198.274C417.052 217.656 405.543 232.455 390.55 242.673C375.556 252.891 357.605 258 336.695 258ZM336.695 214.331C350.959 214.331 362.346 207.154 370.856 192.801C379.366 178.447 383.58 156.917 383.499 128.209C383.499 109.314 381.554 93.5823 377.664 81.0127C373.854 68.4432 368.424 58.9958 361.373 52.6704C354.403 46.3451 346.177 43.1825 336.695 43.1825C322.512 43.1825 311.165 50.2782 302.656 64.4696C294.146 78.661 289.85 99.9076 289.769 128.209C289.769 147.347 291.674 163.323 295.483 176.136C299.373 188.868 304.844 198.437 311.895 204.843C318.946 211.168 327.213 214.331 336.695 214.331Z" fill="#2862FF"/>
<path d="M470.998 208.736V167.256L574.939 3.40594H610.68V60.8204H589.527L524.002 164.58V166.526H671.708V208.736H470.998ZM590.5 252.526V196.085L591.472 177.717V3.40594H640.829V252.526H590.5Z" fill="#2862FF"/>
</mask>
<g mask="url(#mask10_153_2358)">
<rect x="3.29297" y="204.757" width="668.415" height="53.2433" fill="#2A0468"/>
</g>
<mask id="mask11_153_2358" style="mask-type:alpha" maskUnits="userSpaceOnUse" x="3" y="0" width="669" height="258">
<path d="M3.29297 208.736V167.256L107.234 3.40594H142.975V60.8204H121.822L56.2969 164.58V166.526H204.003V208.736H3.29297ZM122.795 252.526V196.085L123.767 177.717V3.40594H173.124V252.526H122.795Z" fill="#2862FF"/>
<path d="M336.695 258C315.785 257.919 297.793 252.769 282.718 242.552C267.725 232.334 256.176 217.534 248.071 198.153C240.048 178.771 236.077 155.457 236.158 128.209C236.158 101.043 240.169 77.8906 248.193 58.7525C256.298 39.6143 267.847 25.058 282.84 15.0835C297.915 5.02782 315.866 0 336.695 0C357.524 0 375.435 5.02782 390.428 15.0835C405.503 25.1391 417.092 39.736 425.197 58.8741C433.301 77.9312 437.313 101.043 437.232 128.209C437.232 155.538 433.18 178.893 425.075 198.274C417.052 217.656 405.543 232.455 390.55 242.673C375.556 252.891 357.605 258 336.695 258ZM336.695 214.331C350.959 214.331 362.346 207.154 370.856 192.801C379.366 178.447 383.58 156.917 383.499 128.209C383.499 109.314 381.554 93.5823 377.664 81.0127C373.854 68.4432 368.424 58.9957 361.373 52.6704C354.403 46.3451 346.177 43.1825 336.695 43.1825C322.512 43.1825 311.165 50.2782 302.656 64.4696C294.146 78.661 289.85 99.9076 289.769 128.209C289.769 147.347 291.674 163.323 295.483 176.136C299.373 188.868 304.844 198.437 311.895 204.843C318.946 211.168 327.213 214.331 336.695 214.331Z" fill="#2862FF"/>
<path d="M470.998 208.736V167.256L574.939 3.40594H610.68V60.8204H589.527L524.002 164.58V166.526H671.708V208.736H470.998ZM590.5 252.526V196.085L591.472 177.717V3.40594H640.829V252.526H590.5Z" fill="#2862FF"/>
</mask>
<g mask="url(#mask11_153_2358)">
<rect x="3.29297" y="153.485" width="668.415" height="51.6" fill="#2A0468"/>
</g>
<mask id="mask12_153_2358" style="mask-type:alpha" maskUnits="userSpaceOnUse" x="3" y="0" width="669" height="258">
<path d="M3.29297 208.736V167.256L107.234 3.40594H142.975V60.8204H121.822L56.2969 164.58V166.526H204.003V208.736H3.29297ZM122.795 252.526V196.085L123.767 177.717V3.40594H173.124V252.526H122.795Z" fill="#2862FF"/>
<path d="M336.695 258C315.785 257.919 297.793 252.769 282.718 242.552C267.725 232.334 256.176 217.534 248.071 198.153C240.048 178.771 236.077 155.457 236.158 128.209C236.158 101.043 240.169 77.8906 248.193 58.7525C256.298 39.6143 267.847 25.058 282.84 15.0835C297.915 5.02782 315.866 0 336.695 0C357.524 0 375.435 5.02782 390.428 15.0835C405.503 25.1391 417.092 39.736 425.197 58.8741C433.301 77.9312 437.313 101.043 437.232 128.209C437.232 155.538 433.18 178.893 425.075 198.274C417.052 217.656 405.543 232.455 390.55 242.673C375.556 252.891 357.605 258 336.695 258ZM336.695 214.331C350.959 214.331 362.346 207.154 370.856 192.801C379.366 178.447 383.58 156.917 383.499 128.209C383.499 109.314 381.554 93.5823 377.664 81.0127C373.854 68.4432 368.424 58.9957 361.373 52.6704C354.403 46.3451 346.177 43.1825 336.695 43.1825C322.512 43.1825 311.165 50.2782 302.656 64.4696C294.146 78.661 289.85 99.9076 289.769 128.209C289.769 147.347 291.674 163.323 295.483 176.136C299.373 188.868 304.844 198.437 311.895 204.843C318.946 211.168 327.213 214.331 336.695 214.331Z" fill="#2862FF"/>
<path d="M470.998 208.736V167.256L574.939 3.40594H610.68V60.8204H589.527L524.002 164.58V166.526H671.708V208.736H470.998ZM590.5 252.526V196.085L591.472 177.717V3.40594H640.829V252.526H590.5Z" fill="#2862FF"/>
</mask>
<g mask="url(#mask12_153_2358)">
<rect x="3.29297" y="101.885" width="668.415" height="51.6" fill="#2A0468"/>
</g>
<mask id="mask13_153_2358" style="mask-type:alpha" maskUnits="userSpaceOnUse" x="3" y="0" width="669" height="258">
<path d="M3.29297 208.736V167.256L107.234 3.40594H142.975V60.8204H121.822L56.2969 164.58V166.526H204.003V208.736H3.29297ZM122.795 252.526V196.085L123.767 177.717V3.40594H173.124V252.526H122.795Z" fill="#2862FF"/>
<path d="M336.695 258C315.785 257.919 297.793 252.769 282.718 242.552C267.725 232.334 256.176 217.534 248.071 198.153C240.048 178.771 236.077 155.457 236.158 128.209C236.158 101.043 240.169 77.8906 248.193 58.7525C256.298 39.6143 267.847 25.058 282.84 15.0835C297.915 5.02782 315.866 0 336.695 0C357.524 0 375.435 5.02782 390.428 15.0835C405.503 25.1391 417.092 39.736 425.197 58.8741C433.301 77.9312 437.313 101.043 437.232 128.209C437.232 155.538 433.18 178.893 425.075 198.274C417.052 217.656 405.543 232.455 390.55 242.673C375.556 252.891 357.605 258 336.695 258ZM336.695 214.331C350.959 214.331 362.346 207.154 370.856 192.801C379.366 178.447 383.58 156.917 383.499 128.209C383.499 109.314 381.554 93.5823 377.664 81.0127C373.854 68.4432 368.424 58.9957 361.373 52.6704C354.403 46.3451 346.177 43.1825 336.695 43.1825C322.512 43.1825 311.165 50.2782 302.656 64.4696C294.146 78.661 289.85 99.9076 289.769 128.209C289.769 147.347 291.674 163.323 295.483 176.136C299.373 188.868 304.844 198.437 311.895 204.843C318.946 211.168 327.213 214.331 336.695 214.331Z" fill="#2862FF"/>
<path d="M470.998 208.736V167.256L574.939 3.40594H610.68V60.8204H589.527L524.002 164.58V166.526H671.708V208.736H470.998ZM590.5 252.526V196.085L591.472 177.717V3.40594H640.829V252.526H590.5Z" fill="#2862FF"/>
</mask>
<g mask="url(#mask13_153_2358)">
<rect x="3.29297" y="50.2854" width="668.415" height="51.6" fill="#2A0468"/>
</g>
<mask id="mask14_153_2358" style="mask-type:alpha" maskUnits="userSpaceOnUse" x="3" y="0" width="669" height="258">
<path d="M3.29297 208.736V167.256L107.234 3.40594H142.975V60.8204H121.822L56.2969 164.58V166.526H204.003V208.736H3.29297ZM122.795 252.526V196.085L123.767 177.717V3.40594H173.124V252.526H122.795Z" fill="#2862FF"/>
<path d="M336.695 258C315.785 257.919 297.793 252.769 282.718 242.552C267.725 232.334 256.176 217.534 248.071 198.153C240.048 178.771 236.077 155.457 236.158 128.209C236.158 101.043 240.169 77.8906 248.193 58.7525C256.298 39.6143 267.847 25.058 282.84 15.0835C297.915 5.02782 315.866 0 336.695 0C357.524 0 375.435 5.02782 390.428 15.0835C405.503 25.1391 417.092 39.736 425.197 58.8741C433.301 77.9312 437.313 101.043 437.232 128.209C437.232 155.538 433.18 178.893 425.075 198.274C417.052 217.656 405.543 232.455 390.55 242.673C375.556 252.891 357.605 258 336.695 258ZM336.695 214.331C350.959 214.331 362.346 207.154 370.856 192.801C379.366 178.447 383.58 156.917 383.499 128.209C383.499 109.314 381.554 93.5823 377.664 81.0127C373.854 68.4432 368.424 58.9957 361.373 52.6704C354.403 46.3451 346.177 43.1825 336.695 43.1825C322.512 43.1825 311.165 50.2782 302.656 64.4696C294.146 78.661 289.85 99.9076 289.769 128.209C289.769 147.347 291.674 163.323 295.483 176.136C299.373 188.868 304.844 198.437 311.895 204.843C318.946 211.168 327.213 214.331 336.695 214.331Z" fill="#2862FF"/>
<path d="M470.998 208.736V167.256L574.939 3.40594H610.68V60.8204H589.527L524.002 164.58V166.526H671.708V208.736H470.998ZM590.5 252.526V196.085L591.472 177.717V3.40594H640.829V252.526H590.5Z" fill="#2862FF"/>
</mask>
<g mask="url(#mask14_153_2358)">
<rect x="3.29297" width="668.415" height="51.6" fill="#2A0468"/>
</g>
</svg>
