<svg width="195" height="73" viewBox="0 0 195 73" fill="none" xmlns="http://www.w3.org/2000/svg">
<mask id="mask0_914_1477" style="mask-type:alpha" maskUnits="userSpaceOnUse" x="0" y="0" width="195" height="73">
<rect x="0.0703125" width="194.298" height="72.4238" rx="26" fill="url(#paint0_linear_914_1477)"/>
</mask>
<g mask="url(#mask0_914_1477)">
<rect x="-12" width="221" height="72" fill="url(#paint1_linear_914_1477)"/>
<path d="M76.6025 36.4282L67.4688 51.9648H82.0897H96.6759L95.3215 49.1683L93.9323 46.416L85.5973 46.2829C80.9784 46.2385 77.2276 46.1053 77.2276 46.0165C77.2276 45.9278 80.3532 40.5565 84.1734 34.1199C87.9936 27.7277 91.1192 22.3121 91.1192 22.1789C91.1192 21.7794 90.0079 21.4687 87.6463 21.1579L85.7362 20.8916L76.6025 36.4282Z" fill="#381F66"/>
<path d="M96.0856 25.2857L94.0713 28.7926L93.0989 26.573C92.0223 24.0872 91.9181 24.1316 90.1469 27.2389L89.0703 29.1921L92.439 36.8272L95.8078 44.418H98.1693C99.4543 44.418 100.496 44.2848 100.496 44.1516C100.496 44.0185 99.5585 41.6658 98.4124 38.958C97.2664 36.2501 96.3634 33.8087 96.4676 33.5423C96.5371 33.3204 97.44 31.6779 98.4819 29.9467L100.323 26.795L104.143 35.5843L107.963 44.3736L110.498 44.418H113.033L111.297 40.2897C110.324 38.0701 108.171 33.0096 106.504 29.1033L103.448 22.0008L100.774 21.8677L98.0999 21.7345L96.0856 25.2857Z" fill="#381F66"/>
<path d="M108.865 24.4423L107.406 27.0613L108.274 29.2809C108.761 30.4794 109.282 31.5892 109.421 31.6779C109.594 31.8111 110.323 30.8345 111.053 29.5028C111.817 28.1711 112.511 27.1057 112.616 27.1057C112.72 27.1501 114.526 31.0121 116.575 35.7618L120.36 44.418H122.791C124.111 44.418 125.153 44.2404 125.083 44.0185C125.049 43.7965 122.861 38.6916 120.291 32.6989L115.602 21.7789H112.963H110.323L108.865 24.4423Z" fill="#381F66"/>
<path d="M97.0234 46.5936C97.0234 46.8156 97.5444 48.1029 98.1695 49.479L99.2808 51.9648H107.894H116.541L115.569 49.8785C115.048 48.68 114.457 47.3926 114.249 46.9487C113.902 46.2829 113.103 46.1941 105.463 46.1941C100.566 46.1941 97.0234 46.3717 97.0234 46.5936Z" fill="#381F66"/>
<path d="M121.332 46.4604C121.332 46.638 121.888 47.9253 122.582 49.3458L123.798 51.9648H126.055C127.34 51.9648 128.278 51.7873 128.278 51.5209C128.278 51.2546 127.792 49.9673 127.201 48.6356L126.125 46.1941H123.728C122.409 46.1941 121.332 46.3273 121.332 46.4604Z" fill="#381F66"/>
</g>
<defs>
<linearGradient id="paint0_linear_914_1477" x1="0.0703126" y1="1.87713" x2="198.494" y2="55.1898" gradientUnits="userSpaceOnUse">
<stop stop-color="#C7ACFA"/>
<stop offset="0.554787" stop-color="#9981C6"/>
<stop offset="1" stop-color="#604C87"/>
</linearGradient>
<linearGradient id="paint1_linear_914_1477" x1="-12" y1="1.86614" x2="209.093" y2="69.831" gradientUnits="userSpaceOnUse">
<stop stop-color="#C16CF2"/>
<stop offset="0.554787" stop-color="#F8F4FF"/>
<stop offset="1" stop-color="#E0D2FB"/>
</linearGradient>
</defs>
</svg>
