<?xml version="1.0" standalone="no"?>
<!DOCTYPE svg PUBLIC "-//W3C//DTD SVG 20010904//EN"
 "http://www.w3.org/TR/2001/REC-SVG-20010904/DTD/svg10.dtd">
<svg version="1.0" xmlns="http://www.w3.org/2000/svg"
 width="675.000000pt" height="450.000000pt" viewBox="0 0 675.000000 450.000000"
 preserveAspectRatio="xMidYMid meet">

<g transform="translate(0.000000,450.000000) scale(0.100000,-0.100000)"
fill="#000000" stroke="none">
<path d="M0 2250 l0 -2245 248 248 247 247 3128 0 3127 0 0 250 0 250 -2877 0
-2878 0 250 250 250 250 2627 0 2628 0 0 250 0 250 -2377 0 -2378 0 125 125
125 125 -125 125 -125 125 2378 0 2377 0 0 250 0 250 -2628 0 -2627 0 -250
250 -250 250 2878 0 2877 0 0 250 0 250 -3127 0 -3128 0 -247 247 -248 248 0
-2245z m1372 198 l241 -3 -191 -139 c-106 -76 -192 -144 -192 -151 0 -7 31
-109 69 -226 39 -117 68 -215 66 -217 -2 -2 -87 58 -190 133 -116 84 -193 134
-202 131 -8 -4 -96 -65 -195 -137 -98 -72 -181 -130 -182 -128 -2 2 29 104 69
227 l73 223 -92 68 c-50 37 -137 100 -194 141 l-103 75 242 5 243 5 66 205
c36 113 69 214 74 225 6 15 27 -38 82 -207 l75 -228 241 -2z"/>
</g>
</svg>
