<svg width="74" height="74" viewBox="0 0 74 74" fill="none" xmlns="http://www.w3.org/2000/svg">
<g clip-path="url(#clip0_184_1456)">
<path d="M34.923 68.2879C40.255 66.8593 43.4228 61.3724 41.9941 56.0405L39.4059 46.3812L29.7467 48.9694C24.4148 50.3981 21.2469 55.885 22.6756 61.2169C24.1043 66.5488 29.5911 69.7166 34.923 68.2879Z" fill="#0ACF83"/>
<path d="M17.4993 41.8985C16.0706 36.5666 19.2385 31.0797 24.5704 29.6511L34.2296 27.0629L39.406 46.3814L29.7468 48.9696C24.4149 50.3983 18.928 47.2304 17.4993 41.8985Z" fill="#A259FF"/>
<path d="M12.3231 22.5799C10.8944 17.248 14.0622 11.7611 19.3941 10.3325L29.0534 7.74427L34.2298 27.0628L24.5705 29.651C19.2386 31.0797 13.7517 27.9118 12.3231 22.5799Z" fill="#F24E1E"/>
<path d="M29.0532 7.74414L38.7125 5.15595C44.0444 3.72727 49.5313 6.89511 50.9599 12.227C52.3886 17.5589 49.2208 23.0458 43.8889 24.4745L34.2296 27.0627L29.0532 7.74414Z" fill="#FF7262"/>
<path d="M56.1362 31.5456C57.5649 36.8775 54.397 42.3644 49.0651 43.7931C43.7332 45.2218 38.2464 42.0539 36.8177 36.722C35.389 31.3901 38.5568 25.9032 43.8888 24.4746C49.2207 23.0459 54.7075 26.2137 56.1362 31.5456Z" fill="#1ABCFE"/>
</g>
<defs>
<clipPath id="clip0_184_1456">
<rect width="60" height="60" fill="white" transform="translate(0 15.5291) rotate(-15)"/>
</clipPath>
</defs>
</svg>
