<svg width="74" height="74" viewBox="0 0 74 74" fill="none" xmlns="http://www.w3.org/2000/svg">
<g clip-path="url(#clip0_184_1416)">
<path d="M44.5069 65.72C60.5109 61.4318 70.0084 44.9817 65.7201 28.9777C61.4319 12.9737 44.9818 3.47623 28.9778 7.76448C12.9738 12.0527 3.47632 28.5028 7.76457 44.5068C12.0528 60.5108 28.5029 70.0083 44.5069 65.72Z" fill="#FC521F"/>
<path d="M47.15 48.2733L41.8198 46.8458L53.5611 35.1143C54.0114 34.6645 54.4183 34.1773 54.7799 33.6594C57.2739 35.7459 58.3579 39.0829 57.4959 42.3015C56.7066 45.2155 54.4279 47.4904 51.5125 48.2749C50.0897 48.6562 48.5825 48.656 47.1498 48.2726L47.15 48.2733ZM46.5534 50.4956C47.1685 50.6607 47.7939 50.7703 48.4245 50.8245C47.861 54.0254 45.5113 56.6329 42.2894 57.4962C37.7921 58.7013 33.1511 56.0253 31.9468 51.5307L27.6537 35.5086L35.7895 37.687L38.4833 47.7406C38.5897 48.1376 38.9003 48.4473 39.2972 48.5537L46.5534 50.4956ZM29.7124 54.1148C26.797 54.8928 23.6878 54.0627 21.5481 51.9351C19.9599 50.3561 19.07 48.2069 19.0772 45.9674C19.071 43.7268 19.962 41.5771 21.5514 39.9979L25.4527 36.0983L29.7458 52.1175C29.9106 52.7324 30.1264 53.3277 30.3954 53.9028C30.1706 53.9824 29.942 54.0533 29.7124 54.1148ZM42.3653 29.5035L36.41 35.4546L26.348 32.7633C25.9509 32.6577 25.5275 32.7711 25.2365 33.0612L19.9232 38.3702C19.4727 38.8194 19.0645 39.3046 18.7027 39.8248C16.2103 37.7386 15.1269 34.4008 15.9874 31.1825C16.7763 28.2685 19.0547 25.9933 21.9699 25.2086C23.3913 24.8277 24.9005 24.8296 26.333 25.2123L42.3653 29.5035ZM31.1692 15.9952C35.6686 14.7896 40.3075 17.4661 41.5124 21.9627L42.9395 27.2887L26.9098 22.999C26.2963 22.8338 25.6693 22.7234 25.0363 22.6693C25.5985 19.4665 27.9494 16.8579 31.1692 15.9952ZM51.9357 21.5532C55.2269 24.8444 55.2263 30.1985 51.9324 33.4905L40.193 45.2208L38.015 37.0921L45.3823 29.7292C45.6736 29.4384 45.7877 29.0149 45.6813 28.6179L43.7382 21.3663C43.5742 20.7541 43.3554 20.1589 43.0892 19.586C46.1705 18.4789 49.6139 19.2446 51.9357 21.5532Z" fill="white"/>
</g>
<defs>
<clipPath id="clip0_184_1416">
<rect width="60" height="60" fill="white" transform="translate(0 15.5291) rotate(-15)"/>
</clipPath>
</defs>
</svg>
