<svg width="74" height="74" viewBox="0 0 74 74" fill="none" xmlns="http://www.w3.org/2000/svg">
<g clip-path="url(#clip0_184_1454)">
<path d="M28.9444 7.77341L57.9225 15.5379L65.6871 44.5157L44.4736 65.729L15.4955 57.9645L7.73092 28.9867L28.9444 7.77341Z" fill="#673AB8"/>
<path d="M22.267 55.8934C26.7475 59.2697 36.4783 53.175 44.3927 42.6722C52.3071 32.1695 55.4836 21.1357 51.003 17.7594C46.5225 14.3831 36.7917 20.4778 28.8773 30.9806C20.9629 41.4833 17.7865 52.5171 22.267 55.8934ZM23.3939 54.398C21.9079 53.2782 21.6464 50.3686 22.8166 46.3039C24.0488 42.0238 26.7269 36.9458 30.3728 32.1075C34.0187 27.2692 38.1618 23.2952 41.9365 20.931C45.5212 18.6857 48.3902 18.1351 49.8761 19.2548C51.3621 20.3746 51.6236 23.2842 50.4534 27.3489C49.2212 31.6291 46.5431 36.7071 42.8972 41.5453C39.2513 46.3836 35.1082 50.3576 31.3335 52.7218C27.7488 54.9671 24.8798 55.5177 23.3939 54.398Z" fill="white"/>
<path d="M58.6116 46.1549C60.8037 40.9907 52.5359 33.0234 40.4304 27.8849C28.325 22.7465 16.8505 22.3337 14.6584 27.4979C12.4663 32.6621 20.7341 40.6294 32.8396 45.7679C44.945 50.9063 56.4195 51.3191 58.6116 46.1549ZM56.8879 45.4233C56.1609 47.136 53.401 48.0936 49.174 47.9415C44.7228 47.7814 39.1478 46.4113 33.5712 44.0442C27.9947 41.6771 23.1364 38.6184 19.9292 35.5278C16.8834 32.5928 15.6551 29.9422 16.3821 28.2295C17.1091 26.5169 19.869 25.5592 24.096 25.7113C28.5472 25.8715 34.1222 27.2415 39.6988 29.6086C45.2753 31.9757 50.1336 35.0344 53.3408 38.125C56.3866 41.06 57.6149 43.7106 56.8879 45.4233Z" fill="white"/>
<path d="M37.6649 40.6698C39.7877 40.1011 41.0474 37.9192 40.4786 35.7965C39.9098 33.6738 37.7279 32.4141 35.6052 32.9828C33.4825 33.5516 32.2228 35.7335 32.7916 37.8562C33.3604 39.9789 35.5422 41.2386 37.6649 40.6698Z" fill="white"/>
</g>
<defs>
<clipPath id="clip0_184_1454">
<rect width="60" height="60" fill="white" transform="translate(0 15.5291) rotate(-15)"/>
</clipPath>
</defs>
</svg>
