<svg width="82" height="82" viewBox="0 0 82 82" fill="none" xmlns="http://www.w3.org/2000/svg">
<g clip-path="url(#clip0_184_1457)">
<path d="M55.86 66.9608C70.159 58.7053 75.0582 40.4213 66.8027 26.1224C58.5472 11.8235 40.2632 6.92429 25.9642 15.1798C11.6653 23.4353 6.76613 41.7193 15.0216 56.0182C23.2771 70.3171 41.5611 75.2163 55.86 66.9608Z" fill="#1C1C20"/>
<path d="M50.8481 34.401L46.2999 33.1824L44.2631 26.2298L38.8929 31.1977L34.4747 30.0138L46.3174 18.563L50.8481 34.401Z" fill="#BAFFA9"/>
<path d="M57.1044 56.2726L18.1202 45.8268L29.9629 34.376L34.3811 35.5598L25.9221 43.739L34.7585 46.1067L40.363 40.7839L42.4253 48.161L51.2617 50.5287L48.0256 39.2158L52.5737 40.4345L57.1044 56.2726Z" fill="#7ACB16"/>
</g>
<defs>
<clipPath id="clip0_184_1457">
<rect width="60" height="60" fill="white" transform="translate(0 30) rotate(-30)"/>
</clipPath>
</defs>
</svg>
