<svg width="60" height="60" viewBox="0 0 60 60" fill="none" xmlns="http://www.w3.org/2000/svg">
<g clip-path="url(#clip0_187_2003)">
<path d="M0 21.7143C0 14.1136 0 10.3132 1.4792 7.41013C2.78034 4.8565 4.8565 2.78034 7.41013 1.4792C10.3132 0 14.1136 0 21.7143 0H38.2857C45.8864 0 49.6868 0 52.5899 1.4792C55.1435 2.78034 57.2197 4.8565 58.5208 7.41013C60 10.3132 60 14.1136 60 21.7143V38.2857C60 45.8864 60 49.6868 58.5208 52.5899C57.2197 55.1435 55.1435 57.2197 52.5899 58.5208C49.6868 60 45.8864 60 38.2857 60H21.7143C14.1136 60 10.3132 60 7.41013 58.5208C4.8565 57.2197 2.78034 55.1435 1.4792 52.5899C0 49.6868 0 45.8864 0 38.2857V21.7143Z" fill="white"/>
<path d="M0 21.7143C0 14.1136 0 10.3132 1.4792 7.41013C2.78034 4.8565 4.8565 2.78034 7.41013 1.4792C10.3132 0 14.1136 0 21.7143 0H38.2857C45.8864 0 49.6868 0 52.5899 1.4792C55.1435 2.78034 57.2197 4.8565 58.5208 7.41013C60 10.3132 60 14.1136 60 21.7143V38.2857C60 45.8864 60 49.6868 58.5208 52.5899C57.2197 55.1435 55.1435 57.2197 52.5899 58.5208C49.6868 60 45.8864 60 38.2857 60H21.7143C14.1136 60 10.3132 60 7.41013 58.5208C4.8565 57.2197 2.78034 55.1435 1.4792 52.5899C0 49.6868 0 45.8864 0 38.2857V21.7143Z" fill="url(#paint0_radial_187_2003)"/>
<path d="M0 21.7143C0 14.1136 0 10.3132 1.4792 7.41013C2.78034 4.8565 4.8565 2.78034 7.41013 1.4792C10.3132 0 14.1136 0 21.7143 0H38.2857C45.8864 0 49.6868 0 52.5899 1.4792C55.1435 2.78034 57.2197 4.8565 58.5208 7.41013C60 10.3132 60 14.1136 60 21.7143V38.2857C60 45.8864 60 49.6868 58.5208 52.5899C57.2197 55.1435 55.1435 57.2197 52.5899 58.5208C49.6868 60 45.8864 60 38.2857 60H21.7143C14.1136 60 10.3132 60 7.41013 58.5208C4.8565 57.2197 2.78034 55.1435 1.4792 52.5899C0 49.6868 0 45.8864 0 38.2857V21.7143Z" fill="url(#paint1_radial_187_2003)"/>
<path d="M0 21.7143C0 14.1136 0 10.3132 1.4792 7.41013C2.78034 4.8565 4.8565 2.78034 7.41013 1.4792C10.3132 0 14.1136 0 21.7143 0H38.2857C45.8864 0 49.6868 0 52.5899 1.4792C55.1435 2.78034 57.2197 4.8565 58.5208 7.41013C60 10.3132 60 14.1136 60 21.7143V38.2857C60 45.8864 60 49.6868 58.5208 52.5899C57.2197 55.1435 55.1435 57.2197 52.5899 58.5208C49.6868 60 45.8864 60 38.2857 60H21.7143C14.1136 60 10.3132 60 7.41013 58.5208C4.8565 57.2197 2.78034 55.1435 1.4792 52.5899C0 49.6868 0 45.8864 0 38.2857V21.7143Z" fill="url(#paint2_radial_187_2003)"/>
<path d="M0 21.7143C0 14.1136 0 10.3132 1.4792 7.41013C2.78034 4.8565 4.8565 2.78034 7.41013 1.4792C10.3132 0 14.1136 0 21.7143 0H38.2857C45.8864 0 49.6868 0 52.5899 1.4792C55.1435 2.78034 57.2197 4.8565 58.5208 7.41013C60 10.3132 60 14.1136 60 21.7143V38.2857C60 45.8864 60 49.6868 58.5208 52.5899C57.2197 55.1435 55.1435 57.2197 52.5899 58.5208C49.6868 60 45.8864 60 38.2857 60H21.7143C14.1136 60 10.3132 60 7.41013 58.5208C4.8565 57.2197 2.78034 55.1435 1.4792 52.5899C0 49.6868 0 45.8864 0 38.2857V21.7143Z" fill="url(#paint3_radial_187_2003)"/>
<path d="M0 21.7143C0 14.1136 0 10.3132 1.4792 7.41013C2.78034 4.8565 4.8565 2.78034 7.41013 1.4792C10.3132 0 14.1136 0 21.7143 0H38.2857C45.8864 0 49.6868 0 52.5899 1.4792C55.1435 2.78034 57.2197 4.8565 58.5208 7.41013C60 10.3132 60 14.1136 60 21.7143V38.2857C60 45.8864 60 49.6868 58.5208 52.5899C57.2197 55.1435 55.1435 57.2197 52.5899 58.5208C49.6868 60 45.8864 60 38.2857 60H21.7143C14.1136 60 10.3132 60 7.41013 58.5208C4.8565 57.2197 2.78034 55.1435 1.4792 52.5899C0 49.6868 0 45.8864 0 38.2857V21.7143Z" fill="url(#paint4_radial_187_2003)"/>
<path d="M0 21.7143C0 14.1136 0 10.3132 1.4792 7.41013C2.78034 4.8565 4.8565 2.78034 7.41013 1.4792C10.3132 0 14.1136 0 21.7143 0H38.2857C45.8864 0 49.6868 0 52.5899 1.4792C55.1435 2.78034 57.2197 4.8565 58.5208 7.41013C60 10.3132 60 14.1136 60 21.7143V38.2857C60 45.8864 60 49.6868 58.5208 52.5899C57.2197 55.1435 55.1435 57.2197 52.5899 58.5208C49.6868 60 45.8864 60 38.2857 60H21.7143C14.1136 60 10.3132 60 7.41013 58.5208C4.8565 57.2197 2.78034 55.1435 1.4792 52.5899C0 49.6868 0 45.8864 0 38.2857V21.7143Z" fill="url(#paint5_radial_187_2003)"/>
<path d="M0 21.7143C0 14.1136 0 10.3132 1.4792 7.41013C2.78034 4.8565 4.8565 2.78034 7.41013 1.4792C10.3132 0 14.1136 0 21.7143 0H38.2857C45.8864 0 49.6868 0 52.5899 1.4792C55.1435 2.78034 57.2197 4.8565 58.5208 7.41013C60 10.3132 60 14.1136 60 21.7143V38.2857C60 45.8864 60 49.6868 58.5208 52.5899C57.2197 55.1435 55.1435 57.2197 52.5899 58.5208C49.6868 60 45.8864 60 38.2857 60H21.7143C14.1136 60 10.3132 60 7.41013 58.5208C4.8565 57.2197 2.78034 55.1435 1.4792 52.5899C0 49.6868 0 45.8864 0 38.2857V21.7143Z" fill="url(#paint6_radial_187_2003)"/>
<path d="M47.8912 18.0511C44.7162 14.5383 40.2412 12.564 35.5912 12.5896C31.0412 12.5896 26.4162 14.5896 23.4412 17.8204C22.8912 17.7691 22.3412 17.7178 21.8162 17.7178C12.8912 17.7178 7.36621 25.4101 7.36621 32.5383C7.39121 36.3845 8.84121 40.0768 11.4162 42.8973C14.1162 45.846 17.8662 47.5127 21.8162 47.5127H35.5912C44.9412 47.5127 52.5412 39.6409 52.5412 29.9999C52.4912 25.564 50.8412 21.3075 47.8912 18.0511ZM21.5412 44.9999C14.9162 44.9999 9.56621 39.487 9.56621 32.6922C9.56621 25.9486 14.8912 20.4614 21.4912 20.4101C24.4162 20.4101 27.4912 21.3845 29.4412 23.5127L34.4662 28.7947C35.2912 29.6665 35.2662 31.0511 34.4162 31.8973C33.5662 32.7434 32.2162 32.7178 31.3912 31.846L26.4912 26.6665C23.2912 23.846 18.4662 24.205 15.7162 27.487C14.5162 28.8973 13.8662 30.7178 13.8662 32.5896C13.8662 36.8973 17.4412 40.5383 21.6662 40.5383H22.6412C24.0412 42.5383 27.9662 44.9999 27.9662 44.9999H21.5412ZM46.0912 40.5896C43.4162 43.4614 39.7162 45.0768 35.8412 45.1024C32.1662 45.1024 28.4162 43.4101 25.5412 40.487L18.9912 33.7178C18.1662 32.846 18.1912 31.4614 19.0162 30.6152C19.4162 30.205 19.9412 29.9999 20.5162 29.9999C21.0912 29.9999 21.6412 30.2306 22.0412 30.6665L28.5662 37.3588C30.6412 39.487 33.2912 40.6922 35.8412 40.6922C38.5662 40.6922 41.1662 39.5383 43.0412 37.487C44.9662 35.4614 46.0412 32.7435 46.0412 29.9229C46.0412 24.1281 41.4412 19.4358 35.7912 19.4101C33.6412 19.4101 31.8662 19.846 30.1162 21.1024C29.1255 20.0863 26.9912 19.0768 26.0162 18.8717C28.7162 16.2819 32.0912 15.0255 35.7912 15.0255C43.8162 15.0255 50.2912 21.6922 50.3162 29.9229C50.3162 33.8973 48.8162 37.7434 46.0912 40.5896Z" fill="white"/>
</g>
<defs>
<radialGradient id="paint0_radial_187_2003" cx="0" cy="0" r="1" gradientUnits="userSpaceOnUse" gradientTransform="translate(49.875 51.2821) rotate(46.87) scale(35.8368 36.7067)">
<stop stop-color="#68E048"/>
<stop offset="1" stop-color="#5CE049" stop-opacity="0"/>
</radialGradient>
<radialGradient id="paint1_radial_187_2003" cx="0" cy="0" r="1" gradientUnits="userSpaceOnUse" gradientTransform="translate(9.5 51.0256) rotate(137.364) scale(36.531 37.5579)">
<stop stop-color="#308CFE"/>
<stop offset="1" stop-color="#2F8BFF" stop-opacity="0"/>
</radialGradient>
<radialGradient id="paint2_radial_187_2003" cx="0" cy="0" r="1" gradientUnits="userSpaceOnUse" gradientTransform="translate(48.75 33.5897) rotate(7.9001) scale(21.4536 22.5468)">
<stop stop-color="#FDD511"/>
<stop offset="1" stop-color="#FDD20D" stop-opacity="0"/>
</radialGradient>
<radialGradient id="paint3_radial_187_2003" cx="0" cy="0" r="1" gradientUnits="userSpaceOnUse" gradientTransform="translate(10.25 21.6667) rotate(-127.134) scale(31.6805 32.2801)">
<stop stop-color="#F928C2"/>
<stop offset="1" stop-color="#F922BC" stop-opacity="0"/>
</radialGradient>
<radialGradient id="paint4_radial_187_2003" cx="0" cy="0" r="1" gradientUnits="userSpaceOnUse" gradientTransform="translate(34 10) rotate(-63.404) scale(31.8296 32.1609)">
<stop stop-color="#F90700"/>
<stop offset="1" stop-color="#F90700" stop-opacity="0"/>
</radialGradient>
<radialGradient id="paint5_radial_187_2003" cx="0" cy="0" r="1" gradientUnits="userSpaceOnUse" gradientTransform="translate(56.75 8.71795) rotate(-65.6935) scale(19.1318 19.3002)">
<stop stop-color="#FB4200"/>
<stop offset="1" stop-color="#FB4300" stop-opacity="0"/>
</radialGradient>
<radialGradient id="paint6_radial_187_2003" cx="0" cy="0" r="1" gradientUnits="userSpaceOnUse" gradientTransform="translate(6.25 7.30769) rotate(-133.672) scale(17.0159 17.4373)">
<stop stop-color="#FE0D88"/>
<stop offset="1" stop-color="#FE0D88" stop-opacity="0"/>
</radialGradient>
<clipPath id="clip0_187_2003">
<rect width="60" height="60" fill="white"/>
</clipPath>
</defs>
</svg>
