<svg width="60" height="60" viewBox="0 0 60 60" fill="none" xmlns="http://www.w3.org/2000/svg">
<path fill-rule="evenodd" clip-rule="evenodd" d="M8.3303 54.0022L3.51562 0H56.4206L51.6008 53.9937L29.9357 60L8.3303 54.0022Z" fill="#E44D26"/>
<path fill-rule="evenodd" clip-rule="evenodd" d="M29.9678 55.4091L47.4742 50.5556L51.593 4.41553H29.9678V55.4091Z" fill="#F16529"/>
<path d="M21.2039 24.4442H29.9681V31.0673H15.1467L13.3604 11.0388H29.9681V17.662H20.5986L21.2039 24.4442Z" fill="#EBEBEB"/>
<path d="M29.939 41.653L29.9681 41.6453V48.5361L29.9376 48.5446L16.3706 44.7783L15.4427 34.379H22.0913L22.5628 39.6613L29.939 41.653Z" fill="#EBEBEB"/>
<path d="M29.9453 11.0388H46.5364L45.9434 17.662H29.9453V11.0388Z" fill="white"/>
<path d="M29.9453 31.0673V24.4442H45.3407L45.1791 26.2227L43.5231 44.7783L29.9453 48.5414V41.6508L37.3322 39.657L38.101 31.0673H29.9453Z" fill="white"/>
</svg>
