<svg width="60" height="60" viewBox="0 0 60 60" fill="none" xmlns="http://www.w3.org/2000/svg">
<path fill-rule="evenodd" clip-rule="evenodd" d="M30.0531 59.1882C29.2472 59.1882 28.4949 58.9732 27.7965 58.5971L20.6504 54.3525C19.5758 53.7614 20.1131 53.5465 20.4355 53.4391C21.8862 52.9555 22.1548 52.848 23.6593 51.9883C23.8204 51.8809 24.0354 51.9346 24.1966 52.0421L29.677 55.3196C29.8919 55.4271 30.1606 55.4271 30.3218 55.3196L51.76 42.908C51.9749 42.8005 52.0824 42.5856 52.0824 42.317V17.5475C52.0824 17.2788 51.9749 17.0639 51.76 16.9564L30.3218 4.59855C30.1068 4.49109 29.8382 4.49109 29.677 4.59855L8.23877 16.9564C8.02385 17.0639 7.91639 17.3325 7.91639 17.5475V42.317C7.91639 42.5319 8.02385 42.8005 8.23877 42.908L14.0953 46.293C17.2654 47.9049 19.2534 46.0243 19.2534 44.1438V19.6967C19.2534 19.3743 19.5221 19.0519 19.8982 19.0519H22.6384C22.9608 19.0519 23.2831 19.3205 23.2831 19.6967V44.1438C23.2831 48.3884 20.9728 50.86 16.943 50.86C15.7072 50.86 14.7401 50.86 11.9999 49.5168L6.35822 46.293C4.96124 45.487 4.10156 43.9826 4.10156 42.3707V17.6012C4.10156 15.9893 4.96124 14.4849 6.35822 13.6789L27.7965 1.26729C29.1397 0.51507 30.9665 0.51507 32.3098 1.26729L53.748 13.6789C55.145 14.4849 56.0047 15.9893 56.0047 17.6012V42.3707C56.0047 43.9826 55.145 45.487 53.748 46.293L32.3098 58.7046C31.6113 59.027 30.8053 59.1882 30.0531 59.1882ZM36.6619 42.1558C27.2592 42.1558 25.3249 37.8574 25.3249 34.2037C25.3249 33.8814 25.5935 33.559 25.9696 33.559H28.7636C29.086 33.559 29.3546 33.7739 29.3546 34.0963C29.7845 36.944 31.0203 38.3409 36.7156 38.3409C41.2289 38.3409 43.1632 37.3201 43.1632 34.9022C43.1632 33.5052 42.6259 32.4844 35.5873 31.7859C29.7307 31.1949 26.0771 29.9053 26.0771 25.2308C26.0771 20.8787 29.7307 18.2997 35.856 18.2997C42.7334 18.2997 46.1184 20.6638 46.5482 25.8219C46.5482 25.9831 46.4945 26.1442 46.387 26.3054C46.2796 26.4129 46.1184 26.5204 45.9572 26.5204H43.1632C42.8946 26.5204 42.6259 26.3054 42.5722 26.0368C41.9274 23.0816 40.2618 22.1145 35.856 22.1145C30.9128 22.1145 30.3218 23.8339 30.3218 25.1234C30.3218 26.6815 31.0203 27.1651 37.6828 28.0248C44.2916 28.8845 47.4079 30.1203 47.4079 34.741C47.3542 39.4693 43.4856 42.1558 36.6619 42.1558Z" fill="#539E43"/>
</svg>
