<svg width="60" height="60" viewBox="0 0 60 60" fill="none" xmlns="http://www.w3.org/2000/svg">
<g clip-path="url(#clip0_187_2004)">
<path d="M29.712 0.234375C14.517 0.234376 15.4658 6.82387 15.4658 6.82387L15.4828 13.6505H29.9831V15.7002H9.72332C9.72332 15.7002 0 14.5975 0 29.9295C-1.08375e-06 45.2614 8.48673 44.7177 8.48673 44.7177H13.5517V37.6031C13.5517 37.6031 13.2787 29.1164 21.9029 29.1164H36.2846C36.2846 29.1164 44.3648 29.247 44.3648 21.3072V8.17904C44.3648 8.17904 45.5916 0.234375 29.712 0.234375ZM21.7165 4.825C23.1592 4.825 24.3252 5.99103 24.3252 7.4337C24.3252 8.87637 23.1592 10.0424 21.7165 10.0424C20.2739 10.0424 19.1078 8.87637 19.1078 7.4337C19.1078 5.99103 20.2739 4.825 21.7165 4.825Z" fill="url(#paint0_linear_187_2004)"/>
<path d="M30.1435 59.7782C45.3385 59.7782 44.3897 53.1887 44.3897 53.1887L44.3727 46.3621H29.8724V44.3124H50.1322C50.1322 44.3124 59.8555 45.4151 59.8555 30.0831C59.8555 14.7512 51.3688 15.2949 51.3688 15.2949H46.3038V22.4095C46.3038 22.4095 46.5768 30.8962 37.9526 30.8962H23.5709C23.5709 30.8962 15.4907 30.7656 15.4907 38.7054V51.8335C15.4907 51.8335 14.2639 59.7782 30.1435 59.7782ZM38.1389 55.1876C36.6963 55.1876 35.5303 54.0216 35.5303 52.5789C35.5303 51.1362 36.6963 49.9702 38.1389 49.9702C39.5816 49.9702 40.7476 51.1362 40.7476 52.5789C40.7477 54.0216 39.5816 55.1876 38.1389 55.1876Z" fill="url(#paint1_linear_187_2004)"/>
</g>
<defs>
<linearGradient id="paint0_linear_187_2004" x1="5.75224" y1="5.59019" x2="35.4145" y2="34.9565" gradientUnits="userSpaceOnUse">
<stop stop-color="#387EB8"/>
<stop offset="1" stop-color="#366994"/>
</linearGradient>
<linearGradient id="paint1_linear_187_2004" x1="23.9588" y1="24.4473" x2="55.8129" y2="54.5599" gradientUnits="userSpaceOnUse">
<stop stop-color="#FFE052"/>
<stop offset="1" stop-color="#FFC331"/>
</linearGradient>
<clipPath id="clip0_187_2004">
<rect width="60" height="60" fill="white"/>
</clipPath>
</defs>
</svg>
