<svg width="60" height="60" viewBox="0 0 60 60" fill="none" xmlns="http://www.w3.org/2000/svg">
<g clip-path="url(#clip0_187_2010)">
<path d="M0 21.7143C0 14.1136 0 10.3132 1.4792 7.41013C2.78034 4.8565 4.8565 2.78034 7.41013 1.4792C10.3132 0 14.1136 0 21.7143 0H38.2857C45.8864 0 49.6868 0 52.5899 1.4792C55.1435 2.78034 57.2197 4.8565 58.5208 7.41013C60 10.3132 60 14.1136 60 21.7143V38.2857C60 45.8864 60 49.6868 58.5208 52.5899C57.2197 55.1435 55.1435 57.2197 52.5899 58.5208C49.6868 60 45.8864 60 38.2857 60H21.7143C14.1136 60 10.3132 60 7.41013 58.5208C4.8565 57.2197 2.78034 55.1435 1.4792 52.5899C0 49.6868 0 45.8864 0 38.2857V21.7143Z" fill="#001E36"/>
<path d="M12.8574 43.9633V17.5787C12.8574 17.3992 12.9324 17.2967 13.1074 17.2967C15.6909 17.2967 18.2732 17.1428 20.8574 17.1428C25.0506 17.1428 29.591 18.5766 31.1824 22.9633C31.5574 24.0403 31.7574 25.1428 31.7574 26.2967C31.7574 28.5018 31.2574 30.3223 30.2574 31.7582C27.464 35.7693 22.6224 35.7069 18.2824 35.7069V43.9377C18.3164 44.1814 18.1087 44.2967 17.9074 44.2967H13.1574C12.9574 44.2967 12.8574 44.1941 12.8574 43.9633ZM18.3074 22.2454V30.8608C20.0282 30.9868 21.829 31.0005 23.4824 30.4505C25.3078 29.924 26.3074 28.3439 26.3074 26.4505C26.3582 24.8372 25.479 23.2892 23.9824 22.7069C22.3489 22.0277 20.0707 21.987 18.3074 22.2454Z" fill="#31A8FF"/>
<path d="M47.3503 29.1586C46.5938 28.76 45.7882 28.4683 44.9554 28.2917C43.8852 28.0398 39.6641 27.1579 39.6625 29.365C39.7 30.5972 41.6559 31.2009 42.5202 31.553C45.5541 32.5946 48.9875 34.4565 48.92 38.1994C49.0127 42.8589 44.4983 44.7215 40.6285 44.722C38.6139 44.7428 36.5152 44.4308 34.6714 43.566C34.4954 43.4728 34.3821 43.2736 34.3897 43.0706V38.6122C34.3699 38.4334 34.5617 38.2772 34.7117 38.4058C36.5182 39.4983 38.6594 40.0287 40.7492 40.0571C41.6717 40.0571 43.5001 39.9676 43.4863 38.6122C43.4863 37.3114 41.299 36.7134 40.4272 36.3829C39.1634 35.9318 37.9651 35.3069 36.8651 34.5253C35.3278 33.4288 34.3635 31.6707 34.3897 29.7366C34.3807 25.3493 38.5363 23.38 42.2788 23.3791C44.0283 23.3647 45.9071 23.4943 47.5357 24.2048C47.7699 24.2737 47.8184 24.5204 47.8174 24.7414V28.9109C47.8323 29.1697 47.5448 29.2579 47.3503 29.1586Z" fill="#31A8FF"/>
</g>
<defs>
<clipPath id="clip0_187_2010">
<rect width="60" height="60" fill="white"/>
</clipPath>
</defs>
</svg>
