<svg width="213" height="132" viewBox="0 0 213 132" fill="none" xmlns="http://www.w3.org/2000/svg">
<g style="mix-blend-mode:soft-light" filter="url(#filter0_f_0_1)">
<path d="M27.4697 32.8817L25 30.2629V106.609H188V31.2988L185.53 32.942C183.061 34.5851 178.121 37.8715 173.182 38.8903C168.242 39.909 163.303 38.6602 158.364 40.8888C153.424 43.1175 148.485 48.8236 143.545 53.9046C138.606 58.9857 133.667 63.4417 128.727 65.4927C123.788 67.5437 118.848 67.1897 113.909 60.4908C108.97 53.792 104.03 40.7483 99.0909 33.4394C94.1515 26.1305 89.2121 24.5562 84.2727 25.3517C79.3333 26.1472 74.3939 29.3123 69.4545 34.8255C64.5152 40.3386 59.5758 48.1998 54.6364 50.4494C49.697 52.6991 44.7576 49.3372 39.8182 45.0376C34.8788 40.7379 29.9394 35.5004 27.4697 32.8817L27.4697 32.8817Z" fill="url(#paint0_linear_0_1)"/>
</g>
<g filter="url(#filter1_d_0_1)">
<path d="M25 30.2629L27.4697 32.8817C29.9394 35.5004 34.8788 40.7379 39.8182 45.0376C44.7576 49.3372 49.697 52.6991 54.6364 50.4495C59.5758 48.1998 64.5152 40.3386 69.4545 34.8255C74.3939 29.3123 79.3333 26.1472 84.2727 25.3517C89.2121 24.5562 94.1515 26.1305 99.0909 33.4394C104.03 40.7483 108.97 53.792 113.909 60.4908C118.848 67.1897 123.788 67.5437 128.727 65.4927C133.667 63.4417 138.606 58.9857 143.545 53.9046C148.485 48.8236 153.424 43.1175 158.364 40.8888C163.303 38.6602 168.242 39.909 173.182 38.8903C178.121 37.8715 183.061 34.5851 185.53 32.942L188 31.2988" stroke="url(#paint1_linear_0_1)" stroke-width="1.5" shape-rendering="crispEdges"/>
</g>
<defs>
<filter id="filter0_f_0_1" x="0" y="0.165039" width="213" height="131.444" filterUnits="userSpaceOnUse" color-interpolation-filters="sRGB">
<feFlood flood-opacity="0" result="BackgroundImageFix"/>
<feBlend mode="normal" in="SourceGraphic" in2="BackgroundImageFix" result="shape"/>
<feGaussianBlur stdDeviation="12.5" result="effect1_foregroundBlur_0_1"/>
</filter>
<filter id="filter1_d_0_1" x="13.4551" y="17.415" width="185.961" height="64.9312" filterUnits="userSpaceOnUse" color-interpolation-filters="sRGB">
<feFlood flood-opacity="0" result="BackgroundImageFix"/>
<feColorMatrix in="SourceAlpha" type="matrix" values="0 0 0 0 0 0 0 0 0 0 0 0 0 0 0 0 0 0 127 0" result="hardAlpha"/>
<feOffset dy="4"/>
<feGaussianBlur stdDeviation="5.5"/>
<feComposite in2="hardAlpha" operator="out"/>
<feColorMatrix type="matrix" values="0 0 0 0 0 0 0 0 0 0 0 0 0 0 0 0 0 0 0.25 0"/>
<feBlend mode="normal" in2="BackgroundImageFix" result="effect1_dropShadow_0_1"/>
<feBlend mode="normal" in="SourceGraphic" in2="effect1_dropShadow_0_1" result="shape"/>
</filter>
<linearGradient id="paint0_linear_0_1" x1="142" y1="41.6094" x2="142" y2="109.609" gradientUnits="userSpaceOnUse">
<stop stop-color="#CEB3FF" stop-opacity="0.6"/>
<stop offset="0.320833" stop-color="#A260F3" stop-opacity="0.5"/>
<stop offset="0.742708" stop-color="#BA94FF" stop-opacity="0.3"/>
</linearGradient>
<linearGradient id="paint1_linear_0_1" x1="25" y1="38.6094" x2="201.5" y2="46.1094" gradientUnits="userSpaceOnUse">
<stop stop-color="#BA94FF"/>
<stop offset="0.320833" stop-color="#BA94FF" stop-opacity="0.6"/>
<stop offset="0.742708" stop-color="#BB96FF"/>
</linearGradient>
</defs>
</svg>
