<svg width="120" height="40" viewBox="0 0 120 40" fill="none" xmlns="http://www.w3.org/2000/svg">
<path d="M8.99115 26.7706V17.3794L0 2.23389H5.24598L11.4145 12.891L17.6105 2.23389H22.5742L13.5487 17.4101V26.7706H8.99115Z" fill="#A260F3"/>
<path d="M23.5527 26.7706V2.23389H28.1103V22.2822H40.1581V26.7706H23.5527Z" fill="#A260F3"/>
<path d="M42.4834 26.7706V2.23389H47.0409V22.2822H59.0888V26.7706H42.4834Z" fill="#A260F3"/>
<path d="M8.49902 32.3569H10.5093C10.986 32.3569 11.3647 32.4874 11.6452 32.7482C11.9292 33.0053 12.0721 33.3467 12.0721 33.7763C12.0721 34.0641 12.005 34.3115 11.8724 34.5206C11.7382 34.7316 11.5523 34.8927 11.3148 35.0039C11.6125 35.1018 11.8466 35.2687 12.017 35.5027C12.1908 35.7386 12.2786 36.0129 12.2786 36.3236C12.2786 36.7993 12.122 37.1791 11.8105 37.4592C11.5024 37.7411 11.0962 37.8811 10.5919 37.8811H8.49902V32.3569ZM10.4818 32.8863H9.0429V34.7661H10.4818C10.8019 34.7661 11.0566 34.6817 11.2459 34.5129C11.4387 34.3403 11.5351 34.112 11.5351 33.8301C11.5351 33.5443 11.4387 33.316 11.2459 33.1472C11.0566 32.9746 10.8019 32.8863 10.4818 32.8863ZM10.5506 37.3517C10.9034 37.3517 11.1874 37.2578 11.4043 37.0679C11.6194 36.8799 11.7278 36.6267 11.7278 36.3083C11.7278 35.9975 11.6194 35.7463 11.4043 35.5564C11.1874 35.3684 10.9034 35.2725 10.5506 35.2725H9.0429V37.3517H10.5506Z" fill="#A260F3"/>
<path d="M13.3689 33.9297V36.3082C13.3689 36.6573 13.4584 36.9335 13.6374 37.1368C13.8164 37.342 14.0573 37.4437 14.3602 37.4437C14.5702 37.4437 14.7595 37.39 14.9248 37.2826C15.0934 37.1752 15.2311 37.0255 15.3378 36.8299V33.9297H15.8611V37.881H15.3378V37.4207C15.2002 37.601 15.0366 37.7353 14.849 37.8273C14.6649 37.9136 14.4566 37.9578 14.2226 37.9578C13.8181 37.9578 13.4876 37.8177 13.2312 37.5358C12.9782 37.25 12.8525 36.8817 12.8525 36.4309V33.9297H13.3689Z" fill="#A260F3"/>
<path d="M16.8277 33.1702C16.7313 33.1702 16.6453 33.1318 16.573 33.0551C16.5041 32.9745 16.4697 32.8824 16.4697 32.7789C16.4697 32.6676 16.5041 32.5717 16.573 32.495C16.6453 32.4182 16.7313 32.3799 16.8277 32.3799C16.9241 32.3799 17.0067 32.4182 17.0756 32.495C17.1444 32.5717 17.1788 32.6676 17.1788 32.7789C17.1788 32.8824 17.1444 32.9745 17.0756 33.0551C17.0067 33.1318 16.9241 33.1702 16.8277 33.1702ZM17.0893 33.9297V37.8811H16.5661V33.9297H17.0893Z" fill="#A260F3"/>
<path d="M18.3211 32.2263V37.881H17.7979V32.3568L18.3211 32.2263Z" fill="#A260F3"/>
<path d="M21.7961 37.881V37.4666C21.6446 37.6201 21.4691 37.739 21.2729 37.8196C21.0749 37.9001 20.8667 37.9423 20.6464 37.9423C20.3985 37.9423 20.1645 37.8906 19.9441 37.7889C19.7273 37.6815 19.5397 37.5395 19.3796 37.3592C19.2178 37.1751 19.0922 36.9583 19.001 36.7071C18.908 36.452 18.8633 36.1834 18.8633 35.9015C18.8633 35.6157 18.908 35.349 19.001 35.1035C19.0922 34.8542 19.2178 34.6393 19.3796 34.459C19.5397 34.2749 19.7307 34.1329 19.951 34.0294C20.1713 33.9219 20.4054 33.8682 20.6532 33.8682C20.8546 33.8682 21.0543 33.9066 21.2522 33.9833C21.4484 34.06 21.6274 34.1713 21.7892 34.3132V32.3568L22.3124 32.2263V37.881H21.7961ZM19.3796 35.8938C19.3796 36.1086 19.414 36.3119 19.4829 36.4999C19.5517 36.6898 19.6429 36.8528 19.7583 36.9909C19.877 37.1291 20.0164 37.2365 20.1782 37.3132C20.3383 37.3899 20.5104 37.4283 20.6946 37.4283C20.9183 37.4283 21.1248 37.3803 21.3142 37.2825C21.5069 37.1866 21.6653 37.0504 21.7892 36.8759V34.927C21.6653 34.7582 21.5069 34.6259 21.3142 34.5281C21.1214 34.4322 20.9149 34.3823 20.6946 34.3823C20.3262 34.3823 20.0147 34.5281 19.7583 34.8196C19.5053 35.1073 19.3796 35.4641 19.3796 35.8938Z" fill="#A260F3"/>
<path d="M25.4711 37.9501C25.0856 37.9501 24.7706 37.8408 24.528 37.6202C24.2836 37.4016 24.1631 37.1138 24.1631 36.7609C24.1631 36.3926 24.2887 36.1011 24.5417 35.8862C24.7982 35.6676 25.1441 35.5563 25.5813 35.5563C25.7689 35.5563 25.9496 35.5793 26.1252 35.6254C26.3042 35.6714 26.4694 35.7385 26.6208 35.8249V35.3031C26.6208 34.9866 26.54 34.7488 26.3799 34.5896C26.2181 34.4265 25.984 34.3441 25.6777 34.3441C25.5021 34.3441 25.3266 34.3728 25.1476 34.4285C24.972 34.486 24.7792 34.5742 24.5693 34.697L24.3696 34.2443C24.6209 34.1062 24.855 34.0065 25.0718 33.9451C25.2921 33.8837 25.509 33.853 25.7259 33.853C26.1751 33.853 26.521 33.972 26.7654 34.206C27.0081 34.4419 27.1303 34.7814 27.1303 35.2264V37.8811H26.6208V37.4975C26.4591 37.6471 26.2835 37.7583 26.0907 37.8351C25.9014 37.9118 25.6949 37.9501 25.4711 37.9501ZM24.6657 36.7456C24.6657 36.9661 24.7483 37.1484 24.9135 37.2903C25.0822 37.4284 25.3007 37.4975 25.5675 37.4975C25.7775 37.4975 25.9703 37.4629 26.1458 37.3901C26.3197 37.3133 26.478 37.1963 26.6208 37.0371V36.2929C26.4728 36.1855 26.3145 36.1068 26.1458 36.055C25.9806 36.0052 25.7964 35.9783 25.5951 35.9783C25.3094 35.9783 25.0822 36.0512 24.9135 36.1931C24.7483 36.3312 24.6657 36.5154 24.6657 36.7456Z" fill="#A260F3"/>
<path d="M30.3163 37.881H29.8068L28.8086 33.9297H29.3249L30.0891 37.0831L30.9772 33.9297H31.4454L32.3197 37.0831L33.0907 33.9297H33.5864L32.5813 37.881H32.0787L31.2044 34.72L30.3163 37.881Z" fill="#A260F3"/>
<path d="M33.7832 35.9016C33.7832 35.6158 33.828 35.3472 33.9209 35.096C34.0173 34.8466 34.1446 34.628 34.3064 34.4438C34.4717 34.2597 34.6644 34.1177 34.8847 34.0142C35.1085 33.9067 35.346 33.853 35.5938 33.853C35.8451 33.853 36.0792 33.9067 36.296 34.0142C36.5163 34.1177 36.7057 34.2597 36.8675 34.4438C37.0327 34.628 37.16 34.8466 37.253 35.096C37.3494 35.3472 37.3976 35.6158 37.3976 35.9016C37.3976 36.1931 37.3494 36.4655 37.253 36.7149C37.16 36.9661 37.0327 37.1829 36.8675 37.367C36.7057 37.5512 36.5163 37.697 36.296 37.8044C36.0792 37.906 35.8451 37.9578 35.5938 37.9578C35.346 37.9578 35.1085 37.906 34.8847 37.8044C34.6644 37.697 34.4717 37.5512 34.3064 37.367C34.1446 37.1829 34.0173 36.9661 33.9209 36.7149C33.828 36.4655 33.7832 36.1931 33.7832 35.9016ZM35.5938 37.4361C35.7728 37.4361 35.9398 37.3977 36.0964 37.321C36.2565 37.2443 36.3941 37.1369 36.5095 36.9988C36.6282 36.8568 36.7194 36.6919 36.7848 36.5077C36.8485 36.3197 36.8812 36.1164 36.8812 35.9016C36.8812 35.6868 36.8485 35.4873 36.7848 35.3031C36.7194 35.1152 36.6282 34.9502 36.5095 34.8121C36.3941 34.674 36.2565 34.5666 36.0964 34.4898C35.9398 34.4131 35.7728 34.3748 35.5938 34.3748C35.4148 34.3748 35.2444 34.4131 35.0844 34.4898C34.9277 34.5666 34.7918 34.674 34.6782 34.8121C34.5629 34.9502 34.4717 35.1152 34.4028 35.3031C34.334 35.4873 34.2995 35.6868 34.2995 35.9016C34.2995 36.1164 34.3305 36.3197 34.3959 36.5077C34.4648 36.6919 34.556 36.8568 34.6713 36.9988C34.7849 37.1369 34.9226 37.2443 35.0844 37.321C35.2444 37.3977 35.4148 37.4361 35.5938 37.4361Z" fill="#A260F3"/>
<path d="M37.9453 37.881V33.9296H38.4685V34.4897C38.5684 34.2864 38.7043 34.1272 38.8747 34.014C39.0434 33.9028 39.2396 33.8452 39.4599 33.8452C39.5236 33.8452 39.5804 33.851 39.632 33.8606C39.6871 33.8663 39.7387 33.8797 39.7904 33.8989V34.436C39.7301 34.4168 39.6682 34.4015 39.6045 34.39C39.5442 34.3746 39.484 34.3669 39.4255 34.3669C39.2052 34.3669 39.0124 34.436 38.8472 34.5741C38.682 34.7122 38.5546 34.9117 38.4685 35.1726V37.881H37.9453Z" fill="#A260F3"/>
<path d="M40.7332 32.2263V37.881H40.21V32.3568L40.7332 32.2263Z" fill="#A260F3"/>
<path d="M44.2082 37.881V37.4666C44.0567 37.6201 43.8812 37.739 43.685 37.8196C43.487 37.9001 43.2788 37.9423 43.0585 37.9423C42.8106 37.9423 42.5766 37.8906 42.3563 37.7889C42.1394 37.6815 41.9518 37.5395 41.7917 37.3592C41.6299 37.1751 41.5043 36.9583 41.4131 36.7071C41.3201 36.452 41.2754 36.1834 41.2754 35.9015C41.2754 35.6157 41.3201 35.349 41.4131 35.1035C41.5043 34.8542 41.6299 34.6393 41.7917 34.459C41.9518 34.2749 42.1428 34.1329 42.3631 34.0294C42.5834 33.9219 42.8175 33.8682 43.0654 33.8682C43.2667 33.8682 43.4664 33.9066 43.6643 33.9833C43.8605 34.06 44.0395 34.1713 44.2013 34.3132V32.3568L44.7245 32.2263V37.881H44.2082ZM41.7917 35.8938C41.7917 36.1086 41.8261 36.3119 41.895 36.4999C41.9638 36.6898 42.0551 36.8528 42.1704 36.9909C42.2891 37.1291 42.4285 37.2365 42.5903 37.3132C42.7504 37.3899 42.9225 37.4283 43.1067 37.4283C43.3304 37.4283 43.5369 37.3803 43.7263 37.2825C43.919 37.1866 44.0774 37.0504 44.2013 36.8759V34.927C44.0774 34.7582 43.919 34.6259 43.7263 34.5281C43.5335 34.4322 43.327 34.3823 43.1067 34.3823C42.7383 34.3823 42.4268 34.5281 42.1704 34.8196C41.9174 35.1073 41.7917 35.4641 41.7917 35.8938Z" fill="#A260F3"/>
<path d="M45.3271 35.4028H47.7987V35.9246H45.3271V35.4028Z" fill="#A260F3"/>
<path d="M50.0616 37.4207C50.2492 37.4207 50.43 37.3805 50.6055 37.298C50.7845 37.2117 50.9463 37.0889 51.0943 36.9297L51.4248 37.321C51.2355 37.5205 51.022 37.6778 50.7845 37.789C50.5504 37.8964 50.3043 37.9501 50.0479 37.9501C49.8 37.9501 49.5625 37.8984 49.3388 37.7967C49.1185 37.6893 48.9274 37.5435 48.7674 37.3594C48.6056 37.1752 48.4782 36.9585 48.3818 36.7072C48.2889 36.4521 48.2441 36.1836 48.2441 35.9016C48.2441 35.6158 48.2889 35.3492 48.3818 35.1036C48.4782 34.8543 48.6056 34.6356 48.7674 34.4515C48.9274 34.2673 49.1185 34.1216 49.3388 34.0142C49.5625 33.9067 49.8 33.853 50.0479 33.853C50.3043 33.853 50.5539 33.9106 50.7983 34.0218C51.041 34.1292 51.2544 34.2808 51.4385 34.4745L51.1012 34.8965C50.9635 34.7392 50.8 34.6164 50.6124 34.5282C50.4282 34.4361 50.2424 34.3901 50.0548 34.3901C49.8758 34.3901 49.7054 34.4285 49.5453 34.5052C49.3835 34.5819 49.2458 34.6893 49.1322 34.8274C49.0169 34.9655 48.9257 35.1267 48.8569 35.3108C48.7915 35.4949 48.7605 35.6925 48.7605 35.9016C48.7605 36.1164 48.7949 36.3197 48.8637 36.5077C48.9326 36.6919 49.0238 36.853 49.1391 36.9911C49.2527 37.1254 49.3904 37.2289 49.5522 37.3057C49.7123 37.3824 49.8826 37.4207 50.0616 37.4207Z" fill="#A260F3"/>
<path d="M52.3777 32.2263V37.881H51.8545V32.3568L52.3777 32.2263Z" fill="#A260F3"/>
<path d="M54.2006 37.9501C53.8151 37.9501 53.5001 37.8408 53.2575 37.6202C53.0131 37.4016 52.8926 37.1138 52.8926 36.7609C52.8926 36.3926 53.0182 36.1011 53.2712 35.8862C53.5277 35.6676 53.8736 35.5563 54.3108 35.5563C54.4984 35.5563 54.6791 35.5793 54.8547 35.6254C55.0337 35.6714 55.1989 35.7385 55.3503 35.8249V35.3031C55.3503 34.9866 55.2694 34.7488 55.1094 34.5896C54.9476 34.4265 54.7135 34.3441 54.4072 34.3441C54.2316 34.3441 54.0561 34.3728 53.8771 34.4285C53.7015 34.486 53.5087 34.5742 53.2988 34.697L53.0991 34.2443C53.3504 34.1062 53.5845 34.0065 53.8013 33.9451C54.0216 33.8837 54.2385 33.853 54.4554 33.853C54.9046 33.853 55.2505 33.972 55.4949 34.206C55.7376 34.4419 55.8598 34.7814 55.8598 35.2264V37.8811H55.3503V37.4975C55.1886 37.6471 55.013 37.7583 54.8202 37.8351C54.6309 37.9118 54.4244 37.9501 54.2006 37.9501ZM53.3951 36.7456C53.3951 36.9661 53.4778 37.1484 53.643 37.2903C53.8117 37.4284 54.0302 37.4975 54.297 37.4975C54.507 37.4975 54.6998 37.4629 54.8753 37.3901C55.0491 37.3133 55.2075 37.1963 55.3503 37.0371V36.2929C55.2023 36.1855 55.044 36.1068 54.8753 36.055C54.7101 36.0052 54.5259 35.9783 54.3246 35.9783C54.0388 35.9783 53.8117 36.0512 53.643 36.1931C53.4778 36.3312 53.3951 36.5154 53.3951 36.7456Z" fill="#A260F3"/>
<path d="M56.1875 37.3364L56.5111 36.9604C56.6711 37.1292 56.8501 37.2597 57.0481 37.3517C57.2494 37.4438 57.4542 37.4898 57.6608 37.4898C57.9448 37.4898 58.1771 37.4246 58.3561 37.2903C58.5351 37.158 58.6246 36.9873 58.6246 36.7763C58.6246 36.6075 58.5713 36.4751 58.4663 36.3773C58.3596 36.2814 58.1926 36.2143 57.9637 36.1778L57.351 36.0858C56.9964 36.0244 56.7331 35.9074 56.5593 35.7328C56.3889 35.5544 56.3045 35.3166 56.3045 35.0193C56.3045 34.6874 56.4285 34.4132 56.6763 34.1983C56.9276 33.9797 57.2477 33.8684 57.6332 33.8684C57.8897 33.8684 58.1306 33.9125 58.3561 33.9988C58.585 34.0813 58.8105 34.2118 59.0308 34.3901L58.7485 34.7814C58.5506 34.6337 58.3578 34.5244 58.1702 34.4515C57.9861 34.3748 57.7985 34.3364 57.6057 34.3364C57.3665 34.3364 57.1685 34.3978 57.0136 34.5206C56.8622 34.6433 56.7865 34.8025 56.7865 34.9963C56.7865 35.1651 56.8364 35.2955 56.9379 35.3876C57.0429 35.4796 57.2098 35.5449 57.4405 35.5794L58.0601 35.6714C58.4129 35.7232 58.6762 35.8402 58.8518 36.0244C59.0308 36.2047 59.1203 36.4445 59.1203 36.7456C59.1203 36.9144 59.0824 37.0736 59.0101 37.2213C58.9361 37.3709 58.8346 37.5013 58.7072 37.6126C58.5781 37.72 58.425 37.8044 58.246 37.8658C58.0704 37.9214 57.8828 37.9502 57.6814 37.9502C57.3923 37.9502 57.1169 37.8965 56.8553 37.7891C56.5971 37.6816 56.3751 37.532 56.1875 37.3364Z" fill="#A260F3"/>
<path d="M59.1582 37.3364L59.4818 36.9604C59.6418 37.1292 59.8208 37.2597 60.0188 37.3517C60.2201 37.4438 60.4249 37.4898 60.6315 37.4898C60.9155 37.4898 61.1478 37.4246 61.3268 37.2903C61.5058 37.158 61.5953 36.9873 61.5953 36.7763C61.5953 36.6075 61.542 36.4751 61.437 36.3773C61.3303 36.2814 61.1633 36.2143 60.9344 36.1778L60.3217 36.0858C59.9671 36.0244 59.7038 35.9074 59.53 35.7328C59.3596 35.5544 59.2752 35.3166 59.2752 35.0193C59.2752 34.6874 59.3992 34.4132 59.647 34.1983C59.8983 33.9797 60.2184 33.8684 60.6039 33.8684C60.8604 33.8684 61.1014 33.9125 61.3268 33.9988C61.5557 34.0813 61.7812 34.2118 62.0015 34.3901L61.7192 34.7814C61.5213 34.6337 61.3285 34.5244 61.1409 34.4515C60.9568 34.3748 60.7692 34.3364 60.5764 34.3364C60.3372 34.3364 60.1392 34.3978 59.9843 34.5206C59.8329 34.6433 59.7572 34.8025 59.7572 34.9963C59.7572 35.1651 59.8071 35.2955 59.9086 35.3876C60.0136 35.4796 60.1805 35.5449 60.4112 35.5794L61.0308 35.6714C61.3836 35.7232 61.6469 35.8402 61.8225 36.0244C62.0015 36.2047 62.091 36.4445 62.091 36.7456C62.091 36.9144 62.0531 37.0736 61.9808 37.2213C61.9068 37.3709 61.8053 37.5013 61.6779 37.6126C61.5488 37.72 61.3957 37.8044 61.2167 37.8658C61.0411 37.9214 60.8535 37.9502 60.6521 37.9502C60.363 37.9502 60.0876 37.8965 59.826 37.7891C59.5678 37.6816 59.3458 37.532 59.1582 37.3364Z" fill="#A260F3"/>
<path d="M64.2652 36.9987V34.4284H63.501V33.9297H64.2652V32.9246L64.7884 32.7788V33.9297H65.8555V34.4284H64.7884V36.8452C64.7884 37.0562 64.8297 37.2058 64.9123 37.2979C64.9984 37.39 65.1395 37.436 65.3323 37.436C65.4286 37.436 65.5147 37.4283 65.5939 37.413C65.6713 37.3977 65.7556 37.3727 65.8486 37.3363V37.8503C65.7556 37.8849 65.6558 37.9117 65.5457 37.9271C65.4355 37.9424 65.3271 37.9501 65.2221 37.9501C64.914 37.9501 64.6782 37.8714 64.513 37.7122C64.3478 37.5492 64.2652 37.3113 64.2652 36.9987Z" fill="#A260F3"/>
<path d="M69.2176 37.4668C69.0145 37.626 68.8062 37.7469 68.5911 37.8274C68.3794 37.908 68.1453 37.9502 67.8888 37.9502C67.6358 37.9502 67.3966 37.8984 67.1729 37.7967C66.9474 37.6893 66.7529 37.5435 66.5877 37.3594C66.4259 37.1753 66.2985 36.9604 66.2021 36.7149C66.1092 36.4656 66.0645 36.1932 66.0645 35.9016C66.0645 35.6158 66.1092 35.3492 66.2021 35.1037C66.2934 34.8582 66.4173 34.6433 66.5739 34.4592C66.7288 34.2751 66.9147 34.1331 67.1315 34.0295C67.3467 33.9221 67.5739 33.8684 67.8131 33.8684C68.0472 33.8684 68.2675 33.9221 68.474 34.0295C68.6806 34.1331 68.8561 34.2751 69.0041 34.4592C69.1556 34.6433 69.2743 34.8582 69.3621 35.1037C69.4482 35.3492 69.4929 35.6158 69.4929 35.9016V36.0858H66.5808C66.6169 36.4751 66.7598 36.7974 67.0076 37.0525C67.2589 37.3095 67.5601 37.4361 67.9095 37.4361C68.0971 37.4361 68.2778 37.4054 68.4534 37.3441C68.6272 37.2827 68.7718 37.1944 68.8871 37.0755L69.2176 37.4668ZM67.7993 34.3825C67.4913 34.3825 67.2245 34.4976 67.0007 34.7277C66.7753 34.9579 66.6393 35.2552 66.5946 35.6177H68.9697C68.9181 35.2706 68.7838 34.979 68.5635 34.7431C68.3467 34.5033 68.0919 34.3825 67.7993 34.3825Z" fill="#A260F3"/>
<path d="M71.1508 37.9501C70.7653 37.9501 70.4503 37.8408 70.2077 37.6202C69.9633 37.4016 69.8428 37.1138 69.8428 36.7609C69.8428 36.3926 69.9684 36.1011 70.2214 35.8862C70.4779 35.6676 70.8238 35.5563 71.261 35.5563C71.4486 35.5563 71.6293 35.5793 71.8049 35.6254C71.9839 35.6714 72.1491 35.7385 72.3005 35.8249V35.3031C72.3005 34.9866 72.2196 34.7488 72.0596 34.5896C71.8978 34.4265 71.6637 34.3441 71.3574 34.3441C71.1818 34.3441 71.0063 34.3728 70.8273 34.4285C70.6517 34.486 70.4589 34.5742 70.249 34.697L70.0493 34.2443C70.3006 34.1062 70.5347 34.0065 70.7515 33.9451C70.9718 33.8837 71.1887 33.853 71.4056 33.853C71.8548 33.853 72.2007 33.972 72.4451 34.206C72.6878 34.4419 72.81 34.7814 72.81 35.2264V37.8811H72.3005V37.4975C72.1388 37.6471 71.9632 37.7583 71.7704 37.8351C71.5811 37.9118 71.3746 37.9501 71.1508 37.9501ZM70.3453 36.7456C70.3453 36.9661 70.428 37.1484 70.5932 37.2903C70.7619 37.4284 70.9804 37.4975 71.2472 37.4975C71.4572 37.4975 71.65 37.4629 71.8255 37.3901C71.9993 37.3133 72.1577 37.1963 72.3005 37.0371V36.2929C72.1525 36.1855 71.9942 36.1068 71.8255 36.055C71.6603 36.0052 71.4761 35.9783 71.2747 35.9783C70.989 35.9783 70.7619 36.0512 70.5932 36.1931C70.428 36.3312 70.3453 36.5154 70.3453 36.7456Z" fill="#A260F3"/>
<path d="M73.502 37.8811V33.9298H74.0252V34.3671C74.1577 34.1983 74.3109 34.0717 74.4864 33.9835C74.6603 33.8971 74.853 33.853 75.0647 33.853C75.3074 33.853 75.5277 33.9182 75.7256 34.0448C75.9219 34.1734 76.0733 34.3479 76.18 34.5666C76.3263 34.3268 76.5036 34.1484 76.7101 34.0295C76.9167 33.9125 77.1456 33.853 77.3986 33.853C77.7789 33.853 78.0905 33.9969 78.3349 34.2827C78.5775 34.5647 78.6997 34.931 78.6997 35.3799V37.8811H78.1834V35.5026C78.1834 35.1554 78.1008 34.8792 77.9356 34.674C77.7703 34.4707 77.5466 34.3671 77.2678 34.3671C77.075 34.3671 76.8977 34.4246 76.7377 34.5359C76.5759 34.6433 76.4382 34.8025 76.3246 35.0116C76.3332 35.0691 76.3401 35.1267 76.3452 35.188C76.3539 35.2494 76.359 35.3146 76.359 35.3799V37.8811H75.8427V35.5026C75.8427 35.1554 75.7601 34.8792 75.5948 34.674C75.4296 34.4707 75.2059 34.3671 74.927 34.3671C74.7377 34.3671 74.5656 34.417 74.4107 34.5129C74.2592 34.6107 74.1302 34.7545 74.0252 34.9425V37.8811H73.502Z" fill="#A260F3"/>
<path d="M79.65 37.1215C79.7464 37.1215 79.829 37.1637 79.8979 37.2442C79.9702 37.321 80.008 37.4169 80.008 37.5281C80.008 37.6355 79.9702 37.7314 79.8979 37.812C79.829 37.8887 79.7464 37.9271 79.65 37.9271C79.5485 37.9271 79.4607 37.8887 79.3884 37.812C79.3196 37.7314 79.2852 37.6355 79.2852 37.5281C79.2852 37.4169 79.3196 37.321 79.3884 37.2442C79.4607 37.1637 79.5485 37.1215 79.65 37.1215ZM79.65 33.8376C79.7464 33.8376 79.829 33.8798 79.8979 33.9604C79.9702 34.0371 80.008 34.133 80.008 34.2443C80.008 34.3517 79.9702 34.4476 79.8979 34.5282C79.829 34.6049 79.7464 34.6433 79.65 34.6433C79.5485 34.6433 79.4607 34.6049 79.3884 34.5282C79.3196 34.4476 79.2852 34.3517 79.2852 34.2443C79.2852 34.133 79.3196 34.0371 79.3884 33.9604C79.4607 33.8798 79.5485 33.8376 79.65 33.8376Z" fill="#A260F3"/>
<path d="M81.5771 36.9374L81.942 36.5154C82.1933 36.8185 82.4652 37.0448 82.7544 37.1982C83.047 37.3517 83.3551 37.4284 83.6769 37.4284C84.0625 37.4284 84.3791 37.3268 84.627 37.1215C84.8783 36.9182 85.0056 36.6593 85.0056 36.3466C85.0056 36.0608 84.9161 35.8402 84.7371 35.6868C84.5616 35.5333 84.2707 35.4221 83.8628 35.3492L83.1537 35.2264C82.6752 35.1401 82.3224 34.9847 82.0935 34.7584C81.868 34.5282 81.7561 34.2194 81.7561 33.83C81.7561 33.3697 81.9162 32.9995 82.2381 32.7175C82.5582 32.4317 82.9781 32.2878 83.4979 32.2878C83.8421 32.2878 84.1829 32.3531 84.5237 32.4797C84.8628 32.6024 85.1726 32.7846 85.4531 33.0244L85.1364 33.4924C84.8697 33.268 84.596 33.0992 84.3172 32.986C84.0366 32.869 83.7561 32.8096 83.4773 32.8096C83.1227 32.8096 82.837 32.9016 82.6167 33.0858C82.3964 33.2661 82.2863 33.4963 82.2863 33.7763C82.2863 34.0372 82.3637 34.2367 82.5203 34.3748C82.6752 34.509 82.9334 34.6088 83.2914 34.674L84.0005 34.7968C84.5375 34.9003 84.9299 35.071 85.1777 35.3108C85.4256 35.5525 85.5495 35.8843 85.5495 36.3082C85.5495 36.5538 85.503 36.7801 85.4118 36.9834C85.3189 37.1829 85.1881 37.3555 85.0194 37.4975C84.8542 37.6413 84.6545 37.7545 84.4204 37.8351C84.1864 37.9156 83.9316 37.9578 83.6563 37.9578C83.2604 37.9578 82.8818 37.8715 82.5203 37.697C82.1623 37.5186 81.8474 37.2654 81.5771 36.9374Z" fill="#A260F3"/>
<path d="M86.4439 36.9987V34.4284H85.6797V33.9297H86.4439V32.9246L86.9671 32.7788V33.9297H88.0342V34.4284H86.9671V36.8452C86.9671 37.0562 87.0084 37.2058 87.091 37.2979C87.1771 37.39 87.3182 37.436 87.511 37.436C87.6073 37.436 87.6934 37.4283 87.7726 37.413C87.85 37.3977 87.9344 37.3727 88.0273 37.3363V37.8503C87.9344 37.8849 87.8345 37.9117 87.7244 37.9271C87.6142 37.9424 87.5058 37.9501 87.4008 37.9501C87.0927 37.9501 86.8569 37.8714 86.6917 37.7122C86.5265 37.5492 86.4439 37.3113 86.4439 36.9987Z" fill="#A260F3"/>
<path d="M89.5239 37.9501C89.1383 37.9501 88.8234 37.8408 88.5807 37.6202C88.3363 37.4016 88.2158 37.1138 88.2158 36.7609C88.2158 36.3926 88.3415 36.1011 88.5945 35.8862C88.8509 35.6676 89.1969 35.5563 89.634 35.5563C89.8216 35.5563 90.0023 35.5793 90.1779 35.6254C90.3569 35.6714 90.5221 35.7385 90.6736 35.8249V35.3031C90.6736 34.9866 90.5927 34.7488 90.4326 34.5896C90.2708 34.4265 90.0368 34.3441 89.7304 34.3441C89.5549 34.3441 89.3793 34.3728 89.2003 34.4285C89.0247 34.486 88.832 34.5742 88.622 34.697L88.4224 34.2443C88.6736 34.1062 88.9077 34.0065 89.1246 33.9451C89.3449 33.8837 89.5617 33.853 89.7786 33.853C90.2278 33.853 90.5738 33.972 90.8182 34.206C91.0608 34.4419 91.183 34.7814 91.183 35.2264V37.8811H90.6736V37.4975C90.5118 37.6471 90.3362 37.7583 90.1435 37.8351C89.9542 37.9118 89.7476 37.9501 89.5239 37.9501ZM88.7184 36.7456C88.7184 36.9661 88.801 37.1484 88.9662 37.2903C89.1349 37.4284 89.3535 37.4975 89.6203 37.4975C89.8302 37.4975 90.023 37.4629 90.1986 37.3901C90.3724 37.3133 90.5307 37.1963 90.6736 37.0371V36.2929C90.5256 36.1855 90.3672 36.1068 90.1986 36.055C90.0333 36.0052 89.8492 35.9783 89.6478 35.9783C89.3621 35.9783 89.1349 36.0512 88.9662 36.1931C88.801 36.3312 88.7184 36.5154 88.7184 36.7456Z" fill="#A260F3"/>
<path d="M91.875 37.881V33.9296H92.3982V34.4897C92.498 34.2864 92.634 34.1272 92.8044 34.014C92.9731 33.9028 93.1693 33.8452 93.3896 33.8452C93.4533 33.8452 93.5101 33.851 93.5617 33.8606C93.6168 33.8663 93.6684 33.8797 93.72 33.8989V34.436C93.6598 34.4168 93.5978 34.4015 93.5342 34.39C93.4739 34.3746 93.4137 34.3669 93.3552 34.3669C93.1349 34.3669 92.9421 34.436 92.7769 34.5741C92.6116 34.7122 92.4843 34.9117 92.3982 35.1726V37.881H91.875Z" fill="#A260F3"/>
<path d="M94.5728 36.9987V34.4284H93.8086V33.9297H94.5728V32.9246L95.096 32.7788V33.9297H96.1631V34.4284H95.096V36.8452C95.096 37.0562 95.1373 37.2058 95.2199 37.2979C95.306 37.39 95.4471 37.436 95.6399 37.436C95.7363 37.436 95.8223 37.4283 95.9015 37.413C95.9789 37.3977 96.0633 37.3727 96.1562 37.3363V37.8503C96.0633 37.8849 95.9634 37.9117 95.8533 37.9271C95.7431 37.9424 95.6347 37.9501 95.5297 37.9501C95.2216 37.9501 94.9858 37.8714 94.8206 37.7122C94.6554 37.5492 94.5728 37.3113 94.5728 36.9987Z" fill="#A260F3"/>
<path d="M98.3767 33.9297V36.3082C98.3767 36.6573 98.4662 36.9335 98.6452 37.1368C98.8242 37.342 99.0651 37.4437 99.3681 37.4437C99.578 37.4437 99.7674 37.39 99.9326 37.2826C100.101 37.1752 100.239 37.0255 100.346 36.8299V33.9297H100.869V37.881H100.346V37.4207C100.208 37.601 100.044 37.7353 99.8569 37.8273C99.6727 37.9136 99.4644 37.9578 99.2304 37.9578C98.8259 37.9578 98.4954 37.8177 98.239 37.5358C97.986 37.25 97.8604 36.8817 97.8604 36.4309V33.9297H98.3767Z" fill="#A260F3"/>
<path d="M101.574 39.5V33.9298H102.091V34.3518C102.242 34.1945 102.414 34.0736 102.607 33.9912C102.803 33.9106 103.013 33.8684 103.233 33.8684C103.485 33.8684 103.719 33.9221 103.936 34.0295C104.151 34.1331 104.338 34.2751 104.5 34.4592C104.66 34.6395 104.786 34.8543 104.879 35.1037C104.97 35.3492 105.016 35.6158 105.016 35.9016C105.016 36.1836 104.97 36.4521 104.879 36.7072C104.786 36.9585 104.66 37.1753 104.5 37.3594C104.338 37.5397 104.149 37.6816 103.929 37.7891C103.712 37.8907 103.478 37.9425 103.226 37.9425C103.02 37.9425 102.82 37.9041 102.628 37.8274C102.435 37.7469 102.258 37.6337 102.097 37.4898V39.5H101.574ZM103.185 34.3825C102.965 34.3825 102.758 34.4323 102.566 34.5282C102.376 34.6261 102.221 34.7623 102.097 34.9349V36.8837C102.221 37.0525 102.38 37.1868 102.572 37.2827C102.765 37.3805 102.968 37.4285 103.185 37.4285C103.557 37.4285 103.868 37.2827 104.121 36.9911C104.373 36.6996 104.5 36.339 104.5 35.9093C104.5 35.6945 104.466 35.495 104.397 35.3108C104.331 35.1229 104.24 34.9579 104.121 34.8198C104.001 34.6817 103.862 34.5743 103.702 34.4976C103.54 34.4208 103.368 34.3825 103.185 34.3825Z" fill="#A260F3"/>
<path d="M106.901 37.8811V33.9298H107.425V34.3978C107.562 34.2194 107.724 34.0832 107.913 33.9911C108.101 33.8991 108.309 33.853 108.54 33.853C108.943 33.853 109.271 33.9969 109.524 34.2827C109.781 34.5647 109.91 34.931 109.91 35.3799V37.8811H109.394V35.5026C109.394 35.1554 109.301 34.8792 109.118 34.674C108.939 34.4707 108.7 34.3671 108.402 34.3671C108.185 34.3671 107.993 34.4208 107.824 34.5282C107.659 34.6318 107.524 34.7795 107.425 34.9732V37.8811H106.901Z" fill="#A260F3"/>
<path d="M110.436 35.9016C110.436 35.6158 110.48 35.3472 110.573 35.096C110.67 34.8466 110.797 34.628 110.959 34.4438C111.124 34.2597 111.317 34.1177 111.537 34.0142C111.761 33.9067 111.998 33.853 112.246 33.853C112.497 33.853 112.732 33.9067 112.948 34.0142C113.169 34.1177 113.358 34.2597 113.52 34.4438C113.685 34.628 113.812 34.8466 113.905 35.096C114.002 35.3472 114.05 35.6158 114.05 35.9016C114.05 36.1931 114.002 36.4655 113.905 36.7149C113.812 36.9661 113.685 37.1829 113.52 37.367C113.358 37.5512 113.169 37.697 112.948 37.8044C112.732 37.906 112.497 37.9578 112.246 37.9578C111.998 37.9578 111.761 37.906 111.537 37.8044C111.317 37.697 111.124 37.5512 110.959 37.367C110.797 37.1829 110.67 36.9661 110.573 36.7149C110.48 36.4655 110.436 36.1931 110.436 35.9016ZM112.246 37.4361C112.425 37.4361 112.592 37.3977 112.749 37.321C112.909 37.2443 113.046 37.1369 113.162 36.9988C113.281 36.8568 113.372 36.6919 113.437 36.5077C113.501 36.3197 113.534 36.1164 113.534 35.9016C113.534 35.6868 113.501 35.4873 113.437 35.3031C113.372 35.1152 113.281 34.9502 113.162 34.8121C113.046 34.674 112.909 34.5666 112.749 34.4898C112.592 34.4131 112.425 34.3748 112.246 34.3748C112.067 34.3748 111.897 34.4131 111.737 34.4898C111.58 34.5666 111.444 34.674 111.331 34.8121C111.215 34.9502 111.124 35.1152 111.055 35.3031C110.986 35.4873 110.952 35.6868 110.952 35.9016C110.952 36.1164 110.983 36.3197 111.048 36.5077C111.117 36.6919 111.208 36.8568 111.324 36.9988C111.437 37.1369 111.575 37.2443 111.737 37.321C111.897 37.3977 112.067 37.4361 112.246 37.4361Z" fill="#A260F3"/>
<path d="M115.755 37.881H115.245L114.247 33.9297H114.763L115.528 37.0831L116.416 33.9297H116.884L117.758 37.0831L118.529 33.9297H119.025L118.02 37.881H117.517L116.643 34.72L115.755 37.881Z" fill="#A260F3"/>
<path d="M119.429 36.3541L119.367 32.2263H119.911L119.849 36.3541H119.429ZM119.642 37.927C119.541 37.927 119.453 37.8886 119.381 37.8119C119.312 37.7313 119.277 37.6354 119.277 37.528C119.277 37.4168 119.312 37.3209 119.381 37.2441C119.453 37.1636 119.541 37.1214 119.642 37.1214C119.739 37.1214 119.821 37.1636 119.89 37.2441C119.962 37.3209 120 37.4168 120 37.528C120 37.6354 119.962 37.7313 119.89 37.8119C119.821 37.8886 119.739 37.927 119.642 37.927Z" fill="#A260F3"/>
<path d="M69.3792 13.6835L60.4902 26.8669H74.7193H88.9147L87.5965 24.4939L86.2446 22.1586L78.133 22.0456C73.6378 22.0079 69.9876 21.8949 69.9876 21.8196C69.9876 21.7442 73.0294 17.1865 76.7472 11.7248C80.4651 6.30075 83.5069 1.70537 83.5069 1.59237C83.5069 1.25337 82.4254 0.989697 80.1271 0.726028L78.2682 0.500027L69.3792 13.6835Z" fill="#A260F3"/>
<path d="M88.34 4.22914L86.3797 7.20483L85.4333 5.32148C84.3856 3.21213 84.2842 3.24979 82.5604 5.88648L81.5127 7.54383L84.7911 14.0226L88.0696 20.4636H90.3679C91.6184 20.4636 92.6324 20.3506 92.6324 20.2376C92.6324 20.1246 91.7198 18.1283 90.6045 15.8306C89.4891 13.5329 88.6104 11.4612 88.7117 11.2352C88.7793 11.0469 89.6581 9.65319 90.6721 8.18417L92.4634 5.50981L96.1812 12.9679L99.899 20.426L102.366 20.4636H104.834L103.144 16.9606C102.197 15.0772 100.102 10.7832 98.4795 7.4685L95.5052 1.44178L92.9027 1.32877L90.3003 1.21577L88.34 4.22914Z" fill="#A260F3"/>
<path d="M100.778 3.51346L99.3584 5.73582L100.203 7.61917C100.677 8.63618 101.184 9.57785 101.319 9.65319C101.488 9.76619 102.197 8.93751 102.907 7.8075C103.651 6.67749 104.327 5.77348 104.428 5.77348C104.53 5.81115 106.287 9.08818 108.281 13.1186L111.965 20.4636H114.331C115.615 20.4636 116.629 20.313 116.562 20.1246C116.528 19.9363 114.399 15.6046 111.898 10.5195L107.335 1.25344H104.766H102.197L100.778 3.51346Z" fill="#A260F3"/>
<path d="M89.2529 22.3092C89.2529 22.4976 89.7599 23.5899 90.3683 24.7576L91.4498 26.8669H99.8318H108.248L107.301 25.0966C106.794 24.0796 106.22 22.9872 106.017 22.6106C105.679 22.0456 104.902 21.9702 97.4659 21.9702C92.7004 21.9702 89.2529 22.1209 89.2529 22.3092Z" fill="#A260F3"/>
<path d="M112.912 22.1962C112.912 22.3469 113.453 23.4392 114.129 24.6446L115.312 26.8669H117.509C118.759 26.8669 119.672 26.7163 119.672 26.4903C119.672 26.2643 119.199 25.1719 118.624 24.0419L117.576 21.9702H115.244C113.96 21.9702 112.912 22.0832 112.912 22.1962Z" fill="#A260F3"/>
</svg>
