<svg width="1440" height="702" viewBox="0 0 1440 702" fill="none" xmlns="http://www.w3.org/2000/svg">
<g style="mix-blend-mode:soft-light">
<path d="M511.841 836.841L1441.33 416.538L816.094 1263.01L511.841 836.841ZM-241.474 -216.623L510.32 836.431L281.491 939.904L-241.474 -216.623Z" stroke="url(#paint0_linear_892_1920)"/>
<path d="M535.11 845.158L1444.44 382.847L858.507 1256.99L535.11 845.158ZM-265.527 -172.804L533.572 844.818L309.707 958.633L-265.527 -172.804Z" stroke="url(#paint1_linear_892_1920)"/>
<path d="M558.373 852.301L1445.99 349.564L899.964 1249.18L558.373 852.301ZM-287.234 -128.625L556.821 852.031L338.301 975.799L-287.234 -128.625Z" stroke="url(#paint2_linear_892_1920)"/>
<path d="M582.079 858.423L1446.04 316.039L941.277 1239.43L582.079 858.423ZM-307.045 -83.2378L580.517 858.224L367.821 991.752L-307.045 -83.2378Z" stroke="url(#paint3_linear_892_1920)"/>
<path d="M604.054 863.096L1444.75 285.31L978.761 1228.87L604.054 863.096ZM-323.4 -40.8387L602.484 862.961L395.516 1005.2L-323.4 -40.8387Z" stroke="url(#paint4_linear_892_1920)"/>
<path d="M625.103 866.685L1442.34 256.17L1013.95 1217.38L625.103 866.685ZM-337.303 0.0585469L623.53 866.613L422.336 1016.91L-337.303 0.0585469Z" stroke="url(#paint5_linear_892_1920)"/>
<path d="M645.099 869.31L1439.01 228.76L1046.75 1205.27L645.099 869.31ZM-348.938 39.1538L643.523 869.296L448.071 1026.99L-348.938 39.1538Z" stroke="url(#paint6_linear_892_1920)"/>
<path d="M669.264 871.479L1433.66 195.973L1085.58 1189.09L669.264 871.479ZM-360.998 86.732L667.69 871.536L479.506 1037.84L-360.998 86.732Z" stroke="url(#paint7_linear_892_1920)"/>
<path d="M694.518 872.582L1426.52 162.106L1125.21 1170.4L694.518 872.582ZM-371.278 136.819L692.948 872.712L512.738 1047.62L-371.278 136.819Z" stroke="url(#paint8_linear_892_1920)"/>
<path d="M717.681 872.557L1418.6 131.398L1160.73 1151.67L717.681 872.557ZM-378.633 183.09L716.118 872.754L543.56 1055.22L-378.633 183.09Z" stroke="url(#paint9_linear_892_1920)"/>
<path d="M740.311 871.572L1409.59 101.721L1194.65 1131.89L740.311 871.572ZM-383.905 228.605L738.758 871.835L573.99 1061.36L-383.905 228.605Z" stroke="url(#paint10_linear_892_1920)"/>
<path d="M765.528 869.354L1398.06 69.037L1231.55 1108.13L765.528 869.354ZM-387.533 279.679L763.989 869.688L608.267 1066.72L-387.533 279.679Z" stroke="url(#paint11_linear_892_1920)"/>
<path d="M787.017 866.517L1386.98 41.5029L1262.23 1086.43L787.017 866.517ZM-388.742 323.508L785.492 866.913L637.789 1070.02L-388.742 323.508Z" stroke="url(#paint12_linear_892_1920)"/>
<path d="M808.295 862.84L1374.86 14.5406L1291.91 1063.62L808.295 862.84ZM-388.197 367.185L806.787 863.297L667.307 1072.14L-388.197 367.185Z" stroke="url(#paint13_linear_892_1920)"/>
<path d="M830.257 858.113L1361.11 -12.9783L1321.79 1038.64L830.257 858.113ZM-385.783 412.563L828.77 858.632L698.08 1073.08L-385.783 412.563Z" stroke="url(#paint14_linear_892_1920)"/>
<path d="M852.508 852.337L1345.88 -40.5202L1351.27 1011.82L852.508 852.337ZM-381.362 458.85L851.044 852.919L729.583 1072.73L-381.362 458.85Z" stroke="url(#paint15_linear_892_1920)"/>
<path d="M880.224 843.701L1324.98 -74.3389L1386.82 976.194L880.224 843.701ZM-372.979 516.974L878.794 844.36L769.3 1070.37L-372.979 516.974Z" stroke="url(#paint16_linear_892_1920)"/>
<path d="M906.163 834.103L1303.43 -105.466L1418.87 940.534L906.163 834.103ZM-362.099 571.848L904.768 834.834L806.968 1066.14L-362.099 571.848Z" stroke="url(#paint17_linear_892_1920)"/>
<path d="M930.281 823.787L1281.53 -133.934L1447.54 905.24L930.281 823.787ZM-349.204 623.318L928.923 824.585L842.449 1060.36L-349.204 623.318Z" stroke="url(#paint18_linear_892_1920)"/>
<path d="M952.587 812.973L1259.59 -159.834L1473.04 870.644L952.587 812.973ZM-334.738 671.329L951.267 813.833L875.686 1053.33L-334.738 671.329Z" stroke="url(#paint19_linear_892_1920)"/>
<path d="M973.556 801.616L1237.39 -183.777L1496.04 836.294L973.556 801.616ZM-318.76 716.845L972.275 802.533L907.323 1045.12L-318.76 716.845Z" stroke="url(#paint20_linear_892_1920)"/>
<path d="M994.954 788.747L1213.04 -207.77L1518.48 799.278L994.954 788.747ZM-299.897 763.7L993.717 789.722L940.028 1035.05L-299.897 763.7Z" stroke="url(#paint21_linear_892_1920)"/>
<path d="M1014.22 775.96L1189.52 -228.965L1537.72 764.112L1014.22 775.96ZM-280.52 806.263L1013.02 776.988L969.867 1024.39L-280.52 806.263Z" stroke="url(#paint22_linear_892_1920)"/>
<path d="M1033.91 761.605L1163.77 -250.197L1556.35 726.188L1033.91 761.605ZM-258.145 850.199L1032.77 762.685L1000.8 1011.78L-258.145 850.199Z" stroke="url(#paint23_linear_892_1920)"/>
<path d="M1052.21 746.992L1138.17 -269.481L1572.62 689.004L1052.21 746.992ZM-234.809 891.407L1051.11 748.121L1029.95 998.363L-234.809 891.407Z" stroke="url(#paint24_linear_892_1920)"/>
<path d="M1067.28 733.932L1115.72 -285.019L1585.2 656.803L1067.28 733.932ZM-213.542 925.683L1066.22 735.101L1054.3 985.953L-213.542 925.683Z" stroke="url(#paint25_linear_892_1920)"/>
<path d="M1082.48 719.719L1091.69 -300.34L1597.05 622.725L1082.48 719.719ZM-190.014 960.597L1081.47 720.928L1079.2 972.053L-190.014 960.597Z" stroke="url(#paint26_linear_892_1920)"/>
<path d="M1102.02 699.732L1058.53 -319.442L1610.9 576.289L1102.02 699.732ZM-156.337 1006.01L1101.07 700.99L1111.78 951.898L-156.337 1006.01Z" stroke="url(#paint27_linear_892_1920)"/>
<path d="M1116.4 683.604L1032.25 -333.02L1619.94 539.943L1116.4 683.604ZM-128.729 1039.88L1115.5 684.9L1136.22 935.18L-128.729 1039.88Z" stroke="url(#paint28_linear_892_1920)"/>
<path d="M1129.65 667.508L1006.39 -345.119L1627.28 504.546L1129.65 667.508ZM-100.816 1071.51L1128.81 668.837L1159.15 918.133L-100.816 1071.51Z" stroke="url(#paint29_linear_892_1920)"/>
<path d="M1144.61 647.697L975.02 -358.209L1634.24 462.079L1144.61 647.697ZM-66.0304 1107.72L1143.83 649.064L1185.58 896.705L-66.0304 1107.72Z" stroke="url(#paint30_linear_892_1920)"/>
<path d="M1158 628.21L944.618 -369.326L1639.05 421.375L1158 628.21ZM-31.3868 1140.69L1157.27 629.609L1209.8 875.189L-31.3868 1140.69Z" stroke="url(#paint31_linear_892_1920)"/>
<path d="M1168.26 611.915L919.513 -377.393L1641.65 388.088L1168.26 611.915ZM-2.12393 1166.41L1167.59 613.339L1228.83 856.894L-2.12393 1166.41Z" stroke="url(#paint32_linear_892_1920)"/>
<path d="M1177.4 596.246L895.624 -384.168L1643.01 356.678L1177.4 596.246ZM26.251 1189.65L1176.77 597.692L1246.14 839.057L26.251 1189.65Z" stroke="url(#paint33_linear_892_1920)"/>
<path d="M1186.51 579.291L870.034 -390.478L1643.31 323.309L1186.51 579.291ZM57.2037 1213.28L1185.93 580.758L1263.85 819.503L57.2037 1213.28Z" stroke="url(#paint34_linear_892_1920)"/>
<path d="M1194.87 562.328L844.691 -395.787L1642.44 290.536L1194.87 562.328ZM88.413 1235.4L1194.35 563.814L1280.56 799.69L88.413 1235.4Z" stroke="url(#paint35_linear_892_1920)"/>
<path d="M1203.14 543.879L817.408 -400.48L1640.25 255.551L1203.14 543.879ZM122.616 1257.83L1202.68 545.384L1297.64 777.873L122.616 1257.83Z" stroke="url(#paint36_linear_892_1920)"/>
<path d="M1209.56 528.159L794.376 -403.631L1637.4 226.257L1209.56 528.159ZM151.962 1275.66L1209.14 529.678L1311.35 759.072L151.962 1275.66Z" stroke="url(#paint37_linear_892_1920)"/>
<path d="M1216.22 510.128L768.199 -406.325L1633.06 193.219L1216.22 510.128ZM185.844 1294.73L1215.85 511.661L1326.15 737.28L185.844 1294.73Z" stroke="url(#paint38_linear_892_1920)"/>
<path d="M1222.11 492.282L742.524 -408.056L1627.69 161.084L1222.11 492.282ZM219.609 1312.2L1221.8 493.826L1339.86 715.478L219.609 1312.2Z" stroke="url(#paint39_linear_892_1920)"/>
<path d="M1228.06 471.675L713.169 -408.943L1620.2 124.659L1228.06 471.675ZM258.859 1330.69L1227.82 473.231L1354.58 690.028L258.859 1330.69Z" stroke="url(#paint40_linear_892_1920)"/>
<path d="M1232.85 452.395L685.967 -408.724L1611.98 91.2139L1232.85 452.395ZM295.84 1346.42L1232.66 453.958L1367.29 665.954L295.84 1346.42Z" stroke="url(#paint41_linear_892_1920)"/>
<path d="M1237.53 429.758L654.356 -407.213L1600.88 52.7113L1237.53 429.758ZM339.562 1362.99L1237.4 431.329L1380.97 637.38L339.562 1362.99Z" stroke="url(#paint42_linear_892_1920)"/>
<path d="M1240.99 408.604L625.123 -404.607L1589.13 17.4588L1240.99 408.604ZM380.702 1376.68L1240.93 410.178L1392.55 610.38L380.702 1376.68Z" stroke="url(#paint43_linear_892_1920)"/>
<path d="M1244.11 382.312L589.193 -399.792L1572.69 -25.3988L1244.11 382.312ZM432.221 1391.32L1244.13 383.887L1405.36 576.431L432.221 1391.32Z" stroke="url(#paint44_linear_892_1920)"/>
</g>
<defs>
<linearGradient id="paint0_linear_892_1920" x1="1286.32" y1="69.0799" x2="124.69" y2="594.354" gradientUnits="userSpaceOnUse">
<stop stop-color="#BA94FF"/>
<stop offset="1" stop-color="white" stop-opacity="0"/>
</linearGradient>
<linearGradient id="paint1_linear_892_1920" x1="1273.72" y1="42.8303" x2="137.289" y2="620.604" gradientUnits="userSpaceOnUse">
<stop stop-color="#BA94FF"/>
<stop offset="1" stop-color="white" stop-opacity="0"/>
</linearGradient>
<linearGradient id="paint2_linear_892_1920" x1="1260.15" y1="17.5691" x2="150.856" y2="645.865" gradientUnits="userSpaceOnUse">
<stop stop-color="#BA94FF"/>
<stop offset="1" stop-color="white" stop-opacity="0"/>
</linearGradient>
<linearGradient id="paint3_linear_892_1920" x1="1245.37" y1="-7.20743" x2="165.639" y2="670.638" gradientUnits="userSpaceOnUse">
<stop stop-color="#BA94FF"/>
<stop offset="1" stop-color="white" stop-opacity="0"/>
</linearGradient>
<linearGradient id="paint4_linear_892_1920" x1="1230.84" y1="-29.3269" x2="180.176" y2="692.762" gradientUnits="userSpaceOnUse">
<stop stop-color="#BA94FF"/>
<stop offset="1" stop-color="white" stop-opacity="0"/>
</linearGradient>
<linearGradient id="paint5_linear_892_1920" x1="1216.18" y1="-49.7795" x2="194.833" y2="713.213" gradientUnits="userSpaceOnUse">
<stop stop-color="#BA94FF"/>
<stop offset="1" stop-color="white" stop-opacity="0"/>
</linearGradient>
<linearGradient id="paint6_linear_892_1920" x1="1201.61" y1="-68.5476" x2="209.408" y2="731.98" gradientUnits="userSpaceOnUse">
<stop stop-color="#BA94FF"/>
<stop offset="1" stop-color="white" stop-opacity="0"/>
</linearGradient>
<linearGradient id="paint7_linear_892_1920" x1="1183.16" y1="-90.3897" x2="227.853" y2="753.824" gradientUnits="userSpaceOnUse">
<stop stop-color="#BA94FF"/>
<stop offset="1" stop-color="white" stop-opacity="0"/>
</linearGradient>
<linearGradient id="paint8_linear_892_1920" x1="1162.92" y1="-112.242" x2="248.093" y2="775.676" gradientUnits="userSpaceOnUse">
<stop stop-color="#BA94FF"/>
<stop offset="1" stop-color="white" stop-opacity="0"/>
</linearGradient>
<linearGradient id="paint9_linear_892_1920" x1="1143.49" y1="-131.415" x2="267.517" y2="794.849" gradientUnits="userSpaceOnUse">
<stop stop-color="#BA94FF"/>
<stop offset="1" stop-color="white" stop-opacity="0"/>
</linearGradient>
<linearGradient id="paint10_linear_892_1920" x1="1123.72" y1="-149.345" x2="287.289" y2="812.777" gradientUnits="userSpaceOnUse">
<stop stop-color="#BA94FF"/>
<stop offset="1" stop-color="white" stop-opacity="0"/>
</linearGradient>
<linearGradient id="paint11_linear_892_1920" x1="1100.76" y1="-168.381" x2="310.252" y2="831.815" gradientUnits="userSpaceOnUse">
<stop stop-color="#BA94FF"/>
<stop offset="1" stop-color="white" stop-opacity="0"/>
</linearGradient>
<linearGradient id="paint12_linear_892_1920" x1="1080.41" y1="-183.815" x2="330.602" y2="847.247" gradientUnits="userSpaceOnUse">
<stop stop-color="#BA94FF"/>
<stop offset="1" stop-color="white" stop-opacity="0"/>
</linearGradient>
<linearGradient id="paint13_linear_892_1920" x1="1059.54" y1="-198.363" x2="351.475" y2="861.8" gradientUnits="userSpaceOnUse">
<stop stop-color="#BA94FF"/>
<stop offset="1" stop-color="white" stop-opacity="0"/>
</linearGradient>
<linearGradient id="paint14_linear_892_1920" x1="1037.22" y1="-212.607" x2="373.787" y2="876.041" gradientUnits="userSpaceOnUse">
<stop stop-color="#BA94FF"/>
<stop offset="1" stop-color="white" stop-opacity="0"/>
</linearGradient>
<linearGradient id="paint15_linear_892_1920" x1="1013.8" y1="-226.209" x2="397.212" y2="889.641" gradientUnits="userSpaceOnUse">
<stop stop-color="#BA94FF"/>
<stop offset="1" stop-color="white" stop-opacity="0"/>
</linearGradient>
<linearGradient id="paint16_linear_892_1920" x1="983.423" y1="-241.945" x2="427.585" y2="905.376" gradientUnits="userSpaceOnUse">
<stop stop-color="#BA94FF"/>
<stop offset="1" stop-color="white" stop-opacity="0"/>
</linearGradient>
<linearGradient id="paint17_linear_892_1920" x1="953.746" y1="-255.398" x2="457.268" y2="918.829" gradientUnits="userSpaceOnUse">
<stop stop-color="#BA94FF"/>
<stop offset="1" stop-color="white" stop-opacity="0"/>
</linearGradient>
<linearGradient id="paint18_linear_892_1920" x1="924.995" y1="-266.739" x2="486.019" y2="930.174" gradientUnits="userSpaceOnUse">
<stop stop-color="#BA94FF"/>
<stop offset="1" stop-color="white" stop-opacity="0"/>
</linearGradient>
<linearGradient id="paint19_linear_892_1920" x1="897.348" y1="-276.166" x2="513.666" y2="939.6" gradientUnits="userSpaceOnUse">
<stop stop-color="#BA94FF"/>
<stop offset="1" stop-color="white" stop-opacity="0"/>
</linearGradient>
<linearGradient id="paint20_linear_892_1920" x1="870.37" y1="-284.031" x2="540.642" y2="947.464" gradientUnits="userSpaceOnUse">
<stop stop-color="#BA94FF"/>
<stop offset="1" stop-color="white" stop-opacity="0"/>
</linearGradient>
<linearGradient id="paint21_linear_892_1920" x1="841.782" y1="-290.982" x2="569.232" y2="954.417" gradientUnits="userSpaceOnUse">
<stop stop-color="#BA94FF"/>
<stop offset="1" stop-color="white" stop-opacity="0"/>
</linearGradient>
<linearGradient id="paint22_linear_892_1920" x1="815.051" y1="-296.237" x2="595.964" y2="959.669" gradientUnits="userSpaceOnUse">
<stop stop-color="#BA94FF"/>
<stop offset="1" stop-color="white" stop-opacity="0"/>
</linearGradient>
<linearGradient id="paint23_linear_892_1920" x1="786.652" y1="-300.533" x2="624.36" y2="963.968" gradientUnits="userSpaceOnUse">
<stop stop-color="#BA94FF"/>
<stop offset="1" stop-color="white" stop-opacity="0"/>
</linearGradient>
<linearGradient id="paint24_linear_892_1920" x1="759.22" y1="-303.453" x2="651.791" y2="966.886" gradientUnits="userSpaceOnUse">
<stop stop-color="#BA94FF"/>
<stop offset="1" stop-color="white" stop-opacity="0"/>
</linearGradient>
<linearGradient id="paint25_linear_892_1920" x1="735.774" y1="-305.001" x2="675.239" y2="968.434" gradientUnits="userSpaceOnUse">
<stop stop-color="#BA94FF"/>
<stop offset="1" stop-color="white" stop-opacity="0"/>
</linearGradient>
<linearGradient id="paint26_linear_892_1920" x1="711.259" y1="-305.693" x2="699.753" y2="969.128" gradientUnits="userSpaceOnUse">
<stop stop-color="#BA94FF"/>
<stop offset="1" stop-color="white" stop-opacity="0"/>
</linearGradient>
<linearGradient id="paint27_linear_892_1920" x1="678.332" y1="-305.139" x2="732.683" y2="968.575" gradientUnits="userSpaceOnUse">
<stop stop-color="#BA94FF"/>
<stop offset="1" stop-color="white" stop-opacity="0"/>
</linearGradient>
<linearGradient id="paint28_linear_892_1920" x1="652.923" y1="-303.548" x2="758.088" y2="966.98" gradientUnits="userSpaceOnUse">
<stop stop-color="#BA94FF"/>
<stop offset="1" stop-color="white" stop-opacity="0"/>
</linearGradient>
<linearGradient id="paint29_linear_892_1920" x1="628.48" y1="-301.049" x2="782.532" y2="964.482" gradientUnits="userSpaceOnUse">
<stop stop-color="#BA94FF"/>
<stop offset="1" stop-color="white" stop-opacity="0"/>
</linearGradient>
<linearGradient id="paint30_linear_892_1920" x1="599.533" y1="-296.849" x2="811.478" y2="960.282" gradientUnits="userSpaceOnUse">
<stop stop-color="#BA94FF"/>
<stop offset="1" stop-color="white" stop-opacity="0"/>
</linearGradient>
<linearGradient id="paint31_linear_892_1920" x1="572.171" y1="-291.618" x2="838.842" y2="955.052" gradientUnits="userSpaceOnUse">
<stop stop-color="#BA94FF"/>
<stop offset="1" stop-color="white" stop-opacity="0"/>
</linearGradient>
<linearGradient id="paint32_linear_892_1920" x1="550.068" y1="-286.477" x2="860.945" y2="949.911" gradientUnits="userSpaceOnUse">
<stop stop-color="#BA94FF"/>
<stop offset="1" stop-color="white" stop-opacity="0"/>
</linearGradient>
<linearGradient id="paint33_linear_892_1920" x1="529.434" y1="-280.92" x2="881.579" y2="944.353" gradientUnits="userSpaceOnUse">
<stop stop-color="#BA94FF"/>
<stop offset="1" stop-color="white" stop-opacity="0"/>
</linearGradient>
<linearGradient id="paint34_linear_892_1920" x1="507.749" y1="-274.268" x2="903.263" y2="937.701" gradientUnits="userSpaceOnUse">
<stop stop-color="#BA94FF"/>
<stop offset="1" stop-color="white" stop-opacity="0"/>
</linearGradient>
<linearGradient id="paint35_linear_892_1920" x1="486.689" y1="-266.985" x2="924.323" y2="930.42" gradientUnits="userSpaceOnUse">
<stop stop-color="#BA94FF"/>
<stop offset="1" stop-color="white" stop-opacity="0"/>
</linearGradient>
<linearGradient id="paint36_linear_892_1920" x1="464.47" y1="-258.39" x2="946.544" y2="921.824" gradientUnits="userSpaceOnUse">
<stop stop-color="#BA94FF"/>
<stop offset="1" stop-color="white" stop-opacity="0"/>
</linearGradient>
<linearGradient id="paint37_linear_892_1920" x1="446.07" y1="-250.536" x2="964.942" y2="913.969" gradientUnits="userSpaceOnUse">
<stop stop-color="#BA94FF"/>
<stop offset="1" stop-color="white" stop-opacity="0"/>
</linearGradient>
<linearGradient id="paint38_linear_892_1920" x1="425.551" y1="-240.953" x2="985.462" y2="904.385" gradientUnits="userSpaceOnUse">
<stop stop-color="#BA94FF"/>
<stop offset="1" stop-color="white" stop-opacity="0"/>
</linearGradient>
<linearGradient id="paint39_linear_892_1920" x1="405.828" y1="-230.882" x2="1005.19" y2="894.316" gradientUnits="userSpaceOnUse">
<stop stop-color="#BA94FF"/>
<stop offset="1" stop-color="white" stop-opacity="0"/>
</linearGradient>
<linearGradient id="paint40_linear_892_1920" x1="383.761" y1="-218.561" x2="1027.25" y2="881.993" gradientUnits="userSpaceOnUse">
<stop stop-color="#BA94FF"/>
<stop offset="1" stop-color="white" stop-opacity="0"/>
</linearGradient>
<linearGradient id="paint41_linear_892_1920" x1="363.771" y1="-206.375" x2="1047.24" y2="869.809" gradientUnits="userSpaceOnUse">
<stop stop-color="#BA94FF"/>
<stop offset="1" stop-color="white" stop-opacity="0"/>
</linearGradient>
<linearGradient id="paint42_linear_892_1920" x1="341.098" y1="-191.285" x2="1069.92" y2="854.72" gradientUnits="userSpaceOnUse">
<stop stop-color="#BA94FF"/>
<stop offset="1" stop-color="white" stop-opacity="0"/>
</linearGradient>
<linearGradient id="paint43_linear_892_1920" x1="320.665" y1="-176.439" x2="1090.35" y2="839.873" gradientUnits="userSpaceOnUse">
<stop stop-color="#BA94FF"/>
<stop offset="1" stop-color="white" stop-opacity="0"/>
</linearGradient>
<linearGradient id="paint44_linear_892_1920" x1="296.264" y1="-157.001" x2="1114.75" y2="820.434" gradientUnits="userSpaceOnUse">
<stop stop-color="#BA94FF"/>
<stop offset="1" stop-color="white" stop-opacity="0"/>
</linearGradient>
</defs>
</svg>
